<svg width="128" height="128" viewBox="0 0 128 128" fill="none" xmlns="http://www.w3.org/2000/svg">
<g clip-path="url(#clip0_1440_2)">
<path d="M104 0H24C10.7452 0 0 10.7452 0 24V104C0 117.255 10.7452 128 24 128H104C117.255 128 128 117.255 128 104V24C128 10.7452 117.255 0 104 0Z" fill="black"/>
<path d="M25.52 45.538C25.7851 42.9698 26.5544 40.4792 27.7839 38.2089C29.0135 35.9386 30.679 33.9333 32.685 32.308C34.6886 30.6792 36.994 29.4619 39.469 28.7259C41.944 27.9899 44.54 27.7496 47.108 28.019C51.9467 28.5228 56.4267 30.8027 59.682 34.418L93.582 72.066C95.3112 73.9835 96.645 76.2234 97.5068 78.6574C98.3686 81.0914 98.7414 83.6716 98.604 86.25C98.4709 88.8285 97.8301 91.3553 96.7185 93.6856C95.6069 96.016 94.0462 98.104 92.126 99.83C88.5107 103.085 83.8169 104.885 78.952 104.88L33 104.832C31.3826 104.831 29.7812 104.512 28.2875 103.891C26.7938 103.271 25.437 102.362 24.295 101.217C23.1519 100.073 22.2458 98.7142 21.6284 97.2193C21.011 95.7244 20.6945 94.1224 20.697 92.505V92.045L25.52 45.538ZM44.028 46.284C43.682 46.564 43.47 46.949 43.423 47.397L39.333 86.839L78.97 86.879C79.33 86.879 79.678 86.764 79.963 86.551L80.082 86.454C80.419 86.15 80.605 85.753 80.629 85.308C80.652 84.863 80.509 84.448 80.205 84.111L46.305 46.462C46.0305 46.1572 45.6529 45.9649 45.245 45.922C45.0282 45.8978 44.8089 45.9174 44.5998 45.9796C44.3908 46.0418 44.1963 46.1453 44.028 46.284Z" fill="#7A1818"/>
<path d="M32.53 23.103L95 23.168C96.6175 23.1688 98.2189 23.4885 99.7126 24.109C101.206 24.7295 102.563 25.6385 103.705 26.784C104.848 27.9281 105.754 29.2865 106.371 30.7812C106.989 32.2759 107.305 33.8778 107.303 35.495V35.956L107.255 36.415L100.771 98.892C100.604 100.501 100.122 102.061 99.3513 103.483C98.5808 104.905 97.5375 106.161 96.281 107.179C93.8298 109.168 90.7083 110.14 87.5611 109.894C84.4139 109.648 81.4813 108.203 79.369 105.857L23.367 43.66C22.2842 42.4586 21.449 41.0554 20.9092 39.5308C20.3693 38.0062 20.1355 36.3901 20.221 34.775C20.3863 31.6228 21.7557 28.6544 24.0465 26.4827C26.3373 24.3111 29.3745 23.1019 32.531 23.105M45.298 41.117L84.188 84.309L88.666 41.162L45.298 41.117Z" fill="#FF6A33"/>
</g>
<defs>
<clipPath id="clip0_1440_2">
<rect width="128" height="128" fill="white"/>
</clipPath>
</defs>
</svg>
