<svg width="349" height="349" viewBox="0 0 349 349" fill="none" xmlns="http://www.w3.org/2000/svg">
<path d="M194.48 265H317.69C321.622 265 325.385 263.619 328.79 261.67C332.195 259.721 335.705 257.275 337.67 253.9C339.635 250.525 341.002 246.696 341 242.799C340.998 238.902 339.638 235.074 337.67 231.701L254.42 88.51C252.455 85.1356 250.054 82.6883 246.65 80.74C243.246 78.7917 238.371 77.41 234.44 77.41C230.509 77.41 226.744 78.7917 223.34 80.74C219.936 82.6883 217.535 85.1356 215.57 88.51L194.48 125.14L152.3 54.0974C150.333 50.7232 147.935 47.168 144.53 45.22C141.125 43.272 137.362 43 133.43 43C129.498 43 125.735 43.272 122.33 45.22C118.925 47.168 115.417 50.7232 113.45 54.0974L10.22 231.701C8.25195 235.074 8.00171 238.902 8 242.799C7.99829 246.696 8.25491 250.524 10.22 253.9C12.1851 257.275 15.695 259.721 19.1 261.67C22.505 263.619 26.2681 265 30.2 265H107.9C138.688 265 161.097 251.189 176.72 225.04L214.46 159.55L234.44 125.14L295.49 229.48H214.46L194.48 265ZM106.79 229.48H52.4L133.43 89.62L174.5 159.55L147.295 206.975C136.92 223.941 125.091 229.48 106.79 229.48Z" fill="#00DC82"/>
</svg>
