<svg width="1000" height="1000" viewBox="0 0 1000 1000" fill="none" xmlns="http://www.w3.org/2000/svg">
<path d="M569.705 447.033C589.664 431.419 624.38 420.792 632.495 442.195C641.496 465.957 610.225 464.913 591.98 474.717C571.105 485.936 566.946 515.532 546.356 505.319C529.442 496.923 544.095 467.071 569.705 447.033ZM452.9 505.319C432.309 515.532 428.157 485.936 407.278 474.717C389.04 464.913 357.761 465.957 366.767 442.195C374.877 420.792 409.6 431.419 429.552 447.033C455.159 467.071 469.821 496.923 452.9 505.319ZM534.64 624.97C532.62 626.852 529.565 627.32 527.161 625.966C518.964 621.364 510.862 620.442 499.683 620.442C488.496 620.442 480.401 621.364 472.205 625.966C469.798 627.32 466.736 626.852 464.719 624.97C399.838 564.295 348.241 519.44 269.867 498.052C265.528 496.869 263.721 491.775 266.378 488.148C343.652 383.031 366.425 286.584 499.683 286.584C632.933 286.584 655.715 383.031 732.98 488.148C735.646 491.775 733.828 496.869 729.492 498.052C651.119 519.44 599.528 564.295 534.64 624.97ZM303.476 119.327C347.851 119.327 404.972 230.499 418.723 258.647C420.382 262.043 418.645 266.016 415.092 267.326C373.389 282.634 338.83 318.977 316.728 353.404C314.562 356.785 309.413 355.866 308.509 351.955C297.641 304.939 257.636 119.327 303.476 119.327ZM695.88 119.327C741.681 119.327 701.792 304.588 690.879 351.815C689.968 355.78 684.755 356.707 682.553 353.287C660.44 318.892 625.922 282.618 584.274 267.326C580.712 266.016 578.978 262.043 580.633 258.647C594.385 230.499 651.508 119.327 695.88 119.327ZM717.081 404.769C716.155 403.35 715.879 401.69 716.317 400.054C724.304 370.271 798.258 84.7681 699.871 84.7681C623.818 84.7681 556.905 224.204 544.937 250.568C543.785 253.092 541.154 254.51 538.394 254.136C531.595 253.225 517.734 251.729 499.683 251.729C481.632 251.729 467.764 253.225 460.963 254.136C458.206 254.51 455.572 253.092 454.427 250.568C442.46 224.204 375.547 84.7681 299.487 84.7681C201.108 84.7681 275.056 370.271 283.042 400.054C283.478 401.69 283.213 403.35 282.286 404.769C276.63 413.416 254.325 447.156 216.315 500.116C211.921 506.25 214.897 514.882 222.158 516.946C246.379 523.8 295.281 539.64 335.597 565.137C386.423 597.281 440.996 650.241 451.646 660.76C452.861 661.957 453.477 663.534 453.624 665.229C454.941 680.571 467.71 703.107 499.683 703.107C531.649 703.107 544.425 680.571 545.741 665.229C545.888 663.534 546.494 661.957 547.711 660.76C558.363 650.241 612.935 597.281 663.761 565.137C703.96 539.714 752.693 523.903 776.983 517.001C784.344 514.912 787.374 506.156 782.92 499.944C744.987 447.077 722.727 413.406 717.081 404.769Z" fill="white"/>
<path d="M891.9 921.932H912.576C913.59 921.932 914.525 921.382 915.013 920.497L967.934 824.961C968.666 823.639 967.71 822.016 966.197 822.016H944.915C943.489 822.016 942.178 822.799 941.498 824.051L907.103 887.5C906.263 889.048 903.966 888.785 903.497 887.088L886.404 824.905C885.937 823.2 884.384 822.016 882.618 822.016H864.849C862.997 822.016 861.662 823.791 862.174 825.572L889.222 919.917C889.564 921.111 890.659 921.932 891.9 921.932ZM824.712 862.428C827.416 862.428 827.752 860.828 827.337 859.158C825.674 852.457 818.894 843.154 804.76 843.154C791.208 843.154 782.693 849.366 778.848 858.776C778.137 860.518 778.654 862.428 781.364 862.428H824.712ZM851.214 876.826C850.938 879.889 848.125 882.397 845.048 882.397H780.727C778.869 882.397 777.532 884.207 778.135 885.963C779.922 891.177 784.986 900.266 798.548 900.266C808.318 900.266 813.85 897.964 816.095 896.745C816.904 896.305 817.872 896.335 818.668 896.791L834.163 905.69C837.314 907.637 836.783 909.37 834.258 911.333C828.809 915.568 816.935 923.057 798.548 923.057C735.995 923.057 737.482 820.897 806.01 820.897C839.582 820.897 853.825 848.21 851.214 876.826ZM672.309 798.551C670.186 798.501 668.363 800.063 668.032 802.162L653.698 892.667C652.954 897.347 655.56 898.199 658.51 898.11C707.229 896.656 709.707 875.916 714.801 839.107C718.72 810.815 705.056 799.331 672.309 798.551ZM738.62 836.088C732.537 892.993 724.704 921.902 630.849 921.902C626.96 921.902 625.527 920.249 626.124 916.461L643.947 803.948C644.534 800.24 643.391 798.507 639.3 798.507H625.527C621.189 798.507 620.217 797.293 620.884 793.069L623.174 778.611C623.503 776.529 625.295 775 627.401 775H672.334C707.789 775 743.111 794.081 738.62 836.088ZM374.378 963.54C373.93 966.381 376.124 968.952 379 968.952H405.205C414.563 968.952 425.508 959.568 433.984 944.292C441.15 931.379 484.727 852.921 497.963 828.95C500.52 824.317 499.846 822.016 493.864 822.016H477.602C475.9 822.016 474.333 822.94 473.507 824.427L439.601 885.598C435.726 892.587 433.234 892.255 431.009 884.616L414.063 825.408C413.487 823.401 411.654 822.016 409.564 822.016H394.847C390.364 822.016 389.074 823.542 390.348 827.988L417.497 922.651C417.839 923.845 417.691 925.125 417.09 926.209L412.898 933.77C410.167 938.694 406.01 945.442 401.818 945.442H381.239C378.94 945.442 376.978 947.114 376.617 949.389L374.378 963.54ZM266.922 921.932H284.376C285.919 921.932 287.231 920.813 287.472 919.287L289.736 904.997C289.842 904.344 290.148 903.739 290.615 903.272L313.64 880.246C315.081 878.806 317.494 879.101 318.546 880.848L342.315 920.412C342.881 921.357 343.901 921.932 345.002 921.932H365.114C367.553 921.932 369.058 919.273 367.801 917.183L334.87 862.376C334.129 861.143 334.324 859.561 335.342 858.544L367.223 826.664C368.938 824.95 369.692 822.019 365.299 822.019L341.231 822.016C340.225 822.016 338.826 822.605 338.123 823.327L302.688 859.614C298.906 863.49 296.501 862.285 297.349 856.935L309.75 778.624C310.053 776.722 308.585 775 306.655 775H289.203C287.66 775 286.346 776.12 286.105 777.643L263.827 918.308C263.526 920.21 264.996 921.932 266.922 921.932ZM559.062 843.853C517.924 843.853 517.671 899.929 551.824 899.929C594.859 899.929 594.683 843.853 559.062 843.853ZM547.2 922.886C485.857 922.886 488.1 820.897 563.227 820.897C624.488 820.897 624.729 922.886 547.2 922.886ZM199.908 843.853C158.765 843.853 158.515 899.929 192.67 899.929C235.703 899.929 235.529 843.853 199.908 843.853ZM188.046 922.886C126.702 922.886 128.946 820.897 204.077 820.897C265.33 820.897 265.574 922.886 188.046 922.886ZM37.9257 775H166.219C169.099 775 171.297 777.571 170.847 780.416L168.608 794.556C168.245 796.834 166.284 798.507 163.98 798.507H115.494C113.188 798.507 111.224 800.185 110.866 802.46L92.566 917.982C92.2073 920.257 90.2438 921.932 87.9423 921.932H73.6234C70.7434 921.932 68.5456 919.358 68.9956 916.516L86.831 803.925C87.2809 801.083 85.0831 798.507 82.2031 798.507H35.6864C32.8065 798.507 30.6087 795.936 31.0586 793.091L33.2979 778.951C33.6566 776.675 35.6201 775 37.9257 775Z" fill="white"/>
</svg>
