<svg width="750" height="750" viewBox="0 0 750 750" fill="none" xmlns="http://www.w3.org/2000/svg">
<path d="M486.339 473.315C486.339 456.437 489.039 442.035 494.44 430.108C499.841 417.956 509.518 404.566 523.47 389.938C537.198 375.311 546.649 362.821 551.825 352.47C557.226 342.118 559.926 331.316 559.926 320.064C559.926 309.937 558.239 302.961 554.863 299.136C551.713 295.085 546.987 293.06 540.686 293.06C527.859 293.06 521.445 300.823 521.445 316.351V341.668H486.339V318.714C486.339 299.586 491.065 284.958 500.516 274.831C509.968 264.48 523.695 259.304 541.698 259.304C559.701 259.304 573.429 264.48 582.88 274.831C592.332 284.958 597.058 299.586 597.058 318.714C597.058 333.116 593.57 347.181 586.593 360.909C579.842 374.636 568.028 390.389 551.15 408.167C540.123 419.869 532.697 429.433 528.871 436.859C525.046 444.06 523.133 451.824 523.133 460.15V465.214H593.682V498.969H486.339V473.315ZM676.516 502.345C658.512 502.345 644.785 497.282 635.334 487.155C625.882 476.803 621.156 462.063 621.156 442.935V424.369H656.262V445.635C656.262 460.938 662.676 468.589 675.503 468.589C688.33 468.589 694.744 460.938 694.744 445.635V392.639C694.744 377.111 688.33 369.347 675.503 369.347C662.676 369.347 656.262 377.111 656.262 392.639V394.664H621.156L627.907 262.679H725.799V296.435H660.988L657.95 352.807H658.625C665.601 341.33 676.291 335.592 690.693 335.592C704.195 335.592 714.434 340.205 721.411 349.432C728.387 358.658 731.875 372.048 731.875 389.601V442.935C731.875 462.063 727.149 476.803 717.698 487.155C708.246 497.282 694.519 502.345 676.516 502.345Z" fill="url(#paint0_linear_1270_816)"/>
<path d="M20.51 473.315C20.51 456.437 23.2104 442.035 28.6114 430.108C34.0123 417.956 43.6889 404.566 57.6413 389.938C71.3686 375.311 80.8202 362.821 85.9961 352.47C91.397 342.118 94.0975 331.316 94.0975 320.064C94.0975 309.937 92.4097 302.961 89.0341 299.136C85.8836 295.085 81.1578 293.06 74.8567 293.06C62.0295 293.06 55.6159 300.823 55.6159 316.351V341.668H20.51V318.714C20.51 299.586 25.2358 284.958 34.6874 274.831C44.139 264.48 57.8663 259.304 75.8694 259.304C93.8724 259.304 107.6 264.48 117.051 274.831C126.503 284.958 131.229 299.586 131.229 318.714C131.229 333.116 127.741 347.181 120.764 360.909C114.013 374.636 102.199 390.389 85.321 408.167C74.2941 419.869 66.8678 429.433 63.0422 436.859C59.2165 444.06 57.3037 451.824 57.3037 460.15V465.214H127.853V498.969H20.51V473.315ZM210.011 502.345C191.783 502.345 177.831 497.169 168.154 486.817C158.478 476.466 153.639 461.838 153.639 442.935V318.714C153.639 299.811 158.478 285.183 168.154 274.831C177.831 264.48 191.783 259.304 210.011 259.304C228.24 259.304 242.192 264.48 251.869 274.831C261.545 285.183 266.384 299.811 266.384 318.714V442.935C266.384 461.838 261.545 476.466 251.869 486.817C242.192 497.169 228.24 502.345 210.011 502.345ZM210.011 468.589C222.839 468.589 229.252 460.825 229.252 445.298V316.351C229.252 300.823 222.839 293.06 210.011 293.06C197.184 293.06 190.771 300.823 190.771 316.351V445.298C190.771 460.825 197.184 468.589 210.011 468.589Z" fill="url(#paint1_linear_1270_816)"/>
<path d="M731.623 130.834H499.271C477.106 130.834 458.24 146.971 454.807 168.869L382.826 627.882C378.534 655.254 354.952 675.426 327.246 675.426H16.0016" stroke="url(#paint2_linear_1270_816)" stroke-width="5.62595"/>
<path d="M731.623 119.582H489.944C466.671 119.582 446.862 136.526 443.256 159.518L371.276 618.532C367.156 644.809 344.517 664.174 317.919 664.174H16.0016" stroke="url(#paint3_linear_1270_816)" stroke-width="5.62595"/>
<path d="M731.623 108.33H480.617C456.235 108.33 435.484 126.081 431.706 150.168L359.726 609.182C355.777 634.364 334.082 652.922 308.592 652.922H16.0016" stroke="url(#paint4_linear_1270_816)" stroke-width="5.62595"/>
<path d="M731.623 97.0779H471.29C445.8 97.0779 424.105 115.636 420.156 140.818L348.176 599.832C344.399 623.919 323.647 641.67 299.265 641.67H16.0016" stroke="url(#paint5_linear_1270_816)" stroke-width="5.62595"/>
<path d="M731.623 85.826H461.963C435.365 85.826 412.727 105.191 408.606 131.468L336.626 590.482C333.02 613.474 313.212 630.418 289.938 630.418H16.0016" stroke="url(#paint6_linear_1270_816)" stroke-width="5.62595"/>
<path d="M731.623 74.574H452.636C424.93 74.574 401.348 94.7459 397.056 122.118L325.076 581.131C321.642 603.029 302.777 619.166 280.611 619.166H16.0016" stroke="url(#paint7_linear_1270_816)" stroke-width="5.62595"/>
<defs>
<linearGradient id="paint0_linear_1270_816" x1="608.329" y1="508.227" x2="608.329" y2="413.149" gradientUnits="userSpaceOnUse">
<stop stop-color="#67DBFF"/>
<stop offset="1" stop-color="white"/>
</linearGradient>
<linearGradient id="paint1_linear_1270_816" x1="142.5" y1="508.227" x2="142.5" y2="413.149" gradientUnits="userSpaceOnUse">
<stop stop-color="#67DBFF"/>
<stop offset="1" stop-color="white"/>
</linearGradient>
<linearGradient id="paint2_linear_1270_816" x1="373.812" y1="130.834" x2="373.812" y2="675.426" gradientUnits="userSpaceOnUse">
<stop stop-color="white"/>
<stop offset="1" stop-color="#66DAFF"/>
</linearGradient>
<linearGradient id="paint3_linear_1270_816" x1="373.812" y1="119.582" x2="373.812" y2="664.174" gradientUnits="userSpaceOnUse">
<stop stop-color="white"/>
<stop offset="1" stop-color="#66DAFF"/>
</linearGradient>
<linearGradient id="paint4_linear_1270_816" x1="373.812" y1="108.33" x2="373.812" y2="652.922" gradientUnits="userSpaceOnUse">
<stop stop-color="white"/>
<stop offset="1" stop-color="#66DAFF"/>
</linearGradient>
<linearGradient id="paint5_linear_1270_816" x1="373.812" y1="97.0779" x2="373.812" y2="641.67" gradientUnits="userSpaceOnUse">
<stop stop-color="white"/>
<stop offset="1" stop-color="#66DAFF"/>
</linearGradient>
<linearGradient id="paint6_linear_1270_816" x1="373.812" y1="85.826" x2="373.812" y2="630.418" gradientUnits="userSpaceOnUse">
<stop stop-color="white"/>
<stop offset="1" stop-color="#66DAFF"/>
</linearGradient>
<linearGradient id="paint7_linear_1270_816" x1="373.812" y1="74.574" x2="373.812" y2="619.166" gradientUnits="userSpaceOnUse">
<stop stop-color="white"/>
<stop offset="1" stop-color="#66DAFF"/>
</linearGradient>
</defs>
</svg>
