<svg width="750" height="750" viewBox="0 0 750 750" fill="none" xmlns="http://www.w3.org/2000/svg">
<g clip-path="url(#clip0_1619_285)">
<path d="M375.645 8L8.8175 378.275L375.645 743L742.473 376.425L375.645 8Z" fill="url(#paint0_linear_1619_285)"/>
<mask id="mask0_1619_285" style="mask-type:alpha" maskUnits="userSpaceOnUse" x="8" y="100" width="735" height="552">
<path d="M375.645 100.106L8.8175 378.275L375.645 651.356L742.473 376.425L375.645 100.106Z" fill="#C4C4C4"/>
</mask>
<g mask="url(#mask0_1619_285)">
<path d="M8.8175 7.99976H969.691V743.328H8.8175V7.99976Z" fill="url(#paint1_linear_1619_285)"/>
</g>
<mask id="mask1_1619_285" style="mask-type:alpha" maskUnits="userSpaceOnUse" x="8" y="192" width="735" height="368">
<path d="M375.645 192.211L8.8175 378.01L375.645 559.597L742.473 376.367L375.645 192.211Z" fill="#C4C4C4"/>
</mask>
<g mask="url(#mask1_1619_285)">
<path d="M8.20923 8.14551H742.479V743.761H8.20923V8.14551Z" fill="url(#paint2_linear_1619_285)"/>
</g>
<g filter="url(#filter0_d_1619_285)">
<path d="M213.838 484.553C213.838 462.255 217.406 443.228 224.541 427.471C231.676 411.417 244.46 393.728 262.892 374.403C281.028 355.079 293.514 338.579 300.352 324.903C307.487 311.227 311.055 296.957 311.055 282.092C311.055 268.713 308.825 259.497 304.366 254.443C300.204 249.091 293.96 246.416 285.636 246.416C268.69 246.416 260.217 256.673 260.217 277.186V310.632H213.838V280.308C213.838 255.037 220.081 235.713 232.568 222.334C245.054 208.659 263.19 201.821 286.974 201.821C310.758 201.821 328.893 208.659 341.38 222.334C353.866 235.713 360.109 255.037 360.109 280.308C360.109 299.335 355.501 317.916 346.285 336.052C337.366 354.187 321.758 374.998 299.46 398.485C284.893 413.944 275.082 426.579 270.028 436.39C264.974 445.904 262.446 456.161 262.446 467.161V473.85H355.65V518.445H213.838V484.553ZM465.082 522.905C441.298 522.905 423.163 516.215 410.676 502.837C398.189 489.161 391.946 469.688 391.946 444.417V419.89H438.325V447.985C438.325 468.201 446.798 478.31 463.744 478.31C480.69 478.31 489.163 468.201 489.163 447.985V377.971C489.163 357.457 480.69 347.2 463.744 347.2C446.798 347.2 438.325 357.457 438.325 377.971V380.647H391.946L400.865 206.28H530.191V250.875H444.568L440.555 325.349H441.447C450.663 310.187 464.785 302.605 483.812 302.605C501.65 302.605 515.177 308.7 524.393 320.889C533.609 333.079 538.218 350.768 538.218 373.957V444.417C538.218 469.688 531.974 489.161 519.488 502.837C507.001 516.215 488.866 522.905 465.082 522.905Z" fill="#FFF6E6"/>
<path d="M213.838 484.553C213.838 462.255 217.406 443.228 224.541 427.471C231.676 411.417 244.46 393.728 262.892 374.403C281.028 355.079 293.514 338.579 300.352 324.903C307.487 311.227 311.055 296.957 311.055 282.092C311.055 268.713 308.825 259.497 304.366 254.443C300.204 249.091 293.96 246.416 285.636 246.416C268.69 246.416 260.217 256.673 260.217 277.186V310.632H213.838V280.308C213.838 255.037 220.081 235.713 232.568 222.334C245.054 208.659 263.19 201.821 286.974 201.821C310.758 201.821 328.893 208.659 341.38 222.334C353.866 235.713 360.109 255.037 360.109 280.308C360.109 299.335 355.501 317.916 346.285 336.052C337.366 354.187 321.758 374.998 299.46 398.485C284.893 413.944 275.082 426.579 270.028 436.39C264.974 445.904 262.446 456.161 262.446 467.161V473.85H355.65V518.445H213.838V484.553ZM465.082 522.905C441.298 522.905 423.163 516.215 410.676 502.837C398.189 489.161 391.946 469.688 391.946 444.417V419.89H438.325V447.985C438.325 468.201 446.798 478.31 463.744 478.31C480.69 478.31 489.163 468.201 489.163 447.985V377.971C489.163 357.457 480.69 347.2 463.744 347.2C446.798 347.2 438.325 357.457 438.325 377.971V380.647H391.946L400.865 206.28H530.191V250.875H444.568L440.555 325.349H441.447C450.663 310.187 464.785 302.605 483.812 302.605C501.65 302.605 515.177 308.7 524.393 320.889C533.609 333.079 538.218 350.768 538.218 373.957V444.417C538.218 469.688 531.974 489.161 519.488 502.837C507.001 516.215 488.866 522.905 465.082 522.905Z" fill="url(#paint3_linear_1619_285)" fill-opacity="0.4"/>
</g>
</g>
<defs>
<filter id="filter0_d_1619_285" x="183.838" y="181.821" width="384.38" height="381.084" filterUnits="userSpaceOnUse" color-interpolation-filters="sRGB">
<feFlood flood-opacity="0" result="BackgroundImageFix"/>
<feColorMatrix in="SourceAlpha" type="matrix" values="0 0 0 0 0 0 0 0 0 0 0 0 0 0 0 0 0 0 127 0" result="hardAlpha"/>
<feOffset dy="10"/>
<feGaussianBlur stdDeviation="15"/>
<feComposite in2="hardAlpha" operator="out"/>
<feColorMatrix type="matrix" values="0 0 0 0 0.321295 0 0 0 0 0.0865256 0 0 0 0 0.392747 0 0 0 1 0"/>
<feBlend mode="normal" in2="BackgroundImageFix" result="effect1_dropShadow_1619_285"/>
<feBlend mode="normal" in="SourceGraphic" in2="effect1_dropShadow_1619_285" result="shape"/>
</filter>
<linearGradient id="paint0_linear_1619_285" x1="8.81738" y1="375.5" x2="742.473" y2="375.5" gradientUnits="userSpaceOnUse">
<stop stop-color="#D068D5"/>
<stop offset="0.230769" stop-color="#B937C0"/>
<stop offset="0.504808" stop-color="#85258A"/>
<stop offset="0.759615" stop-color="#511571"/>
</linearGradient>
<linearGradient id="paint1_linear_1619_285" x1="8.81734" y1="375.664" x2="969.691" y2="375.664" gradientUnits="userSpaceOnUse">
<stop stop-color="#C568D5"/>
<stop offset="0.3333" stop-color="#A537C0"/>
<stop offset="0.673077" stop-color="#79258A"/>
<stop offset="1" stop-color="#440A59"/>
</linearGradient>
<linearGradient id="paint2_linear_1619_285" x1="8.2091" y1="375.953" x2="742.479" y2="375.953" gradientUnits="userSpaceOnUse">
<stop stop-color="#D786EE"/>
<stop offset="0.432692" stop-color="#BA68D5"/>
<stop offset="0.778846" stop-color="#A737C0"/>
<stop offset="1" stop-color="#68258A"/>
</linearGradient>
<linearGradient id="paint3_linear_1619_285" x1="-128" y1="117.445" x2="878" y2="117.445" gradientUnits="userSpaceOnUse">
<stop stop-color="#544D40"/>
<stop offset="0.166667" stop-color="#ACA495"/>
<stop offset="0.333333" stop-color="#DBD2C3"/>
<stop offset="0.5" stop-color="#E9E0D1"/>
<stop offset="0.666667" stop-color="#DBD2C3"/>
<stop offset="0.833333" stop-color="#ACA495"/>
<stop offset="1" stop-color="#544D40"/>
</linearGradient>
<clipPath id="clip0_1619_285">
<rect width="750" height="750" fill="white"/>
</clipPath>
</defs>
</svg>
