<svg width="750" height="750" viewBox="0 0 750 750" fill="none" xmlns="http://www.w3.org/2000/svg">
<rect x="87" y="534" width="576" height="165" fill="#E6FFD5"/>
<rect x="120" y="71" width="516" height="384" fill="#E6FFD5"/>
<rect x="154" y="54" width="444" height="418" fill="#E6FFD5"/>
<rect width="390" height="68" transform="matrix(1 0 0 -1 181 540)" fill="#E6FFD5"/>
<path d="M678.975 519.772H583.005V487.594H614.925V455.627H135.075V487.594H167.1V519.772H71.0248V711.998H678.975V519.772ZM198.915 487.594H550.875V519.772H198.915V487.594ZM647.055 680.03H102.945V551.74H647.055V680.03Z" fill="#242B21"/>
<path d="M614.925 70.9714H647.055V455.633H614.925V70.9714Z" fill="#242B21"/>
<path d="M422.985 583.704H583.005V615.882H422.985V583.704Z" fill="#242B21"/>
<path d="M167.1 423.664H583.11V103.148H167.1V423.664ZM198.915 135.115H550.875V391.486H198.915V135.115Z" fill="#242B21"/>
<path d="M166.995 583.704H231.045V647.849H166.995V583.704Z" fill="#242B21"/>
<path d="M135.075 39H614.925V70.9675H135.075V39Z" fill="#242B21"/>
<path d="M102.945 70.9714H135.075V455.633H102.945V70.9714Z" fill="#242B21"/>
<path d="M246 192H331.8V220.6H246V192ZM331.8 249.2V220.6H360.4V249.2H331.8ZM274.6 249.2H331.8V277.8H274.6V249.2ZM246 335V277.8H274.6V306.4H360.4V335H246Z" fill="#242B21"/>
<path d="M417.6 249.2H474.8V277.8H389V192H503.4V220.6H417.6V249.2ZM503.4 277.8V306.4H474.8V277.8H503.4ZM474.8 335H389V306.4H474.8V335Z" fill="#242B21"/>
</svg>
