<svg width="750" height="749" viewBox="0 0 750 749" fill="none" xmlns="http://www.w3.org/2000/svg">
<g clip-path="url(#clip0_2_729)">
<path d="M155.789 250.284L48.0677 561.614L371.57 623.211L155.789 250.284Z" fill="#FF9FD7"/>
<path d="M155.789 250.285L371.57 1.29297L48.0674 188.067L155.789 250.285Z" fill="#F472C3"/>
<path d="M48.0677 188.068V561.616L155.789 250.286L48.0677 188.068Z" fill="#E166B2"/>
<path d="M586.408 250.286L371.571 1.29346L155.79 250.286H586.408Z" fill="#FF98D5"/>
<path d="M586.407 250.286L695.072 561.616V188.068L586.407 250.286Z" fill="#E166B2"/>
<path d="M695.072 188.068L371.57 1.29346L586.407 250.286L695.072 188.068Z" fill="#F472C3"/>
<path d="M371.57 623.211L695.072 561.614L586.407 250.284L371.57 623.211Z" fill="#FF9FD7"/>
<path d="M48.0677 561.616L371.57 748.39V623.213L48.0677 561.616Z" fill="#C63C98"/>
<path d="M371.57 748.39L695.072 561.616L371.57 623.213V748.39Z" fill="#C63C98"/>
<path d="M371.571 623.211L586.408 250.284H155.79L371.571 623.211Z" fill="#FFB8E4"/>
<path d="M155.789 250.284L48.0677 561.614L371.57 623.211L155.789 250.284Z" fill="url(#paint0_linear_2_729)"/>
<path d="M155.789 250.285L371.57 1.29297L48.0674 188.067L155.789 250.285Z" fill="url(#paint1_linear_2_729)"/>
<path d="M48.0677 188.068V561.616L155.789 250.286L48.0677 188.068Z" fill="url(#paint2_linear_2_729)"/>
<path d="M586.408 250.286L371.571 1.29346L155.79 250.286H586.408Z" fill="url(#paint3_linear_2_729)"/>
<path d="M586.407 250.286L695.072 561.616V188.068L586.407 250.286Z" fill="url(#paint4_linear_2_729)"/>
<path d="M695.072 188.068L371.57 1.29346L586.407 250.286L695.072 188.068Z" fill="url(#paint5_linear_2_729)"/>
<path d="M371.57 623.211L695.072 561.614L586.407 250.284L371.57 623.211Z" fill="url(#paint6_linear_2_729)"/>
<path d="M48.0677 561.616L371.57 748.39V623.213L48.0677 561.616Z" fill="url(#paint7_linear_2_729)"/>
<path d="M371.57 748.39L695.072 561.616L371.57 623.213V748.39Z" fill="url(#paint8_linear_2_729)"/>
<path d="M371.571 623.211L586.408 250.284H155.79L371.571 623.211Z" fill="url(#paint9_linear_2_729)"/>
<g opacity="0.95" filter="url(#filter0_d_2_729)">
<path d="M154.111 530.19C154.111 499.735 158.983 473.747 168.729 452.226C178.475 430.298 195.935 406.137 221.112 379.743C245.882 353.348 262.936 330.812 272.276 312.133C282.022 293.453 286.894 273.962 286.894 253.659C286.894 235.386 283.849 222.798 277.758 215.895C272.073 208.586 263.546 204.931 252.176 204.931C229.03 204.931 217.457 218.94 217.457 246.959V292.641H154.111V251.223C154.111 216.707 162.638 190.313 179.693 172.04C196.748 153.36 221.518 144.021 254.003 144.021C286.488 144.021 311.258 153.36 328.313 172.04C345.368 190.313 353.895 216.707 353.895 251.223C353.895 277.211 347.601 302.59 335.013 327.36C322.831 352.13 301.513 380.555 271.058 412.634C251.161 433.749 237.76 451.007 230.857 464.408C223.954 477.402 220.503 491.411 220.503 506.435V515.572H347.804V576.482H154.111V530.19ZM397.989 530.19C397.989 499.735 402.861 473.747 412.607 452.226C422.353 430.298 439.813 406.137 464.99 379.743C489.76 353.348 506.814 330.812 516.154 312.133C525.9 293.453 530.772 273.962 530.772 253.659C530.772 235.386 527.727 222.798 521.636 215.895C515.951 208.586 507.424 204.931 496.054 204.931C472.908 204.931 461.335 218.94 461.335 246.959V292.641H397.989V251.223C397.989 216.707 406.516 190.313 423.571 172.04C440.626 153.36 465.396 144.021 497.881 144.021C530.366 144.021 555.136 153.36 572.191 172.04C589.246 190.313 597.773 216.707 597.773 251.223C597.773 277.211 591.479 302.59 578.891 327.36C566.709 352.13 545.391 380.555 514.936 412.634C495.038 433.749 481.638 451.007 474.735 464.408C467.832 477.402 464.38 491.411 464.38 506.435V515.572H591.682V576.482H397.989V530.19Z" fill="white"/>
<path d="M168.729 452.226L176.917 455.933L176.93 455.905L176.942 455.876L168.729 452.226ZM221.112 379.743L227.615 385.946L227.641 385.92L227.666 385.893L221.112 379.743ZM272.276 312.133L264.307 307.975L264.272 308.044L264.237 308.113L272.276 312.133ZM277.758 215.895L270.663 221.413L270.834 221.633L271.018 221.841L277.758 215.895ZM217.457 292.641V301.629H226.445V292.641H217.457ZM154.111 292.641H145.123V301.629H154.111V292.641ZM179.693 172.04L186.264 178.172L186.297 178.136L186.33 178.1L179.693 172.04ZM328.313 172.04L321.676 178.1L321.709 178.136L321.742 178.172L328.313 172.04ZM335.013 327.36L327.001 323.288L326.974 323.341L326.948 323.393L335.013 327.36ZM271.058 412.634L264.539 406.446L264.528 406.458L264.516 406.47L271.058 412.634ZM230.857 464.408L238.795 468.624L238.821 468.574L238.847 468.524L230.857 464.408ZM220.503 515.572H211.514V524.56H220.503V515.572ZM347.804 515.572H356.792V506.584H347.804V515.572ZM347.804 576.482V585.47H356.792V576.482H347.804ZM154.111 576.482H145.123V585.47H154.111V576.482ZM163.099 530.19C163.099 500.659 167.828 476.005 176.917 455.933L160.541 448.518C150.139 471.489 145.123 498.812 145.123 530.19H163.099ZM176.942 455.876C186.11 435.248 202.82 411.941 227.615 385.946L214.608 373.539C189.051 400.333 170.839 425.348 160.516 448.575L176.942 455.876ZM227.666 385.893C252.663 359.256 270.403 335.977 280.315 316.152L264.237 308.113C255.47 325.646 239.1 347.44 214.558 373.592L227.666 385.893ZM280.245 316.29C290.634 296.378 295.882 275.465 295.882 253.659H277.906C277.906 272.459 273.409 290.529 264.307 307.975L280.245 316.29ZM295.882 253.659C295.882 235.043 292.914 219.487 284.497 209.948L271.018 221.841C274.784 226.109 277.906 235.729 277.906 253.659H295.882ZM284.853 210.377C277.077 200.379 265.619 195.943 252.176 195.943V213.919C261.473 213.919 267.069 216.792 270.663 221.413L284.853 210.377ZM252.176 195.943C238.717 195.943 227.15 200.099 219.207 209.714C211.536 219 208.469 231.937 208.469 246.959H226.445C226.445 233.962 229.164 225.885 233.066 221.162C236.696 216.768 242.489 213.919 252.176 213.919V195.943ZM208.469 246.959V292.641H226.445V246.959H208.469ZM217.457 283.653H154.111V301.629H217.457V283.653ZM163.099 292.641V251.223H145.123V292.641H163.099ZM163.099 251.223C163.099 218.108 171.271 194.236 186.264 178.172L173.122 165.907C154.005 186.389 145.123 215.306 145.123 251.223H163.099ZM186.33 178.1C201.228 161.783 223.281 153.009 254.003 153.009V135.033C219.755 135.033 192.267 144.938 173.055 165.979L186.33 178.1ZM254.003 153.009C284.725 153.009 306.778 161.783 321.676 178.1L334.951 165.979C315.739 144.938 288.251 135.033 254.003 135.033V153.009ZM321.742 178.172C336.735 194.236 344.907 218.108 344.907 251.223H362.883C362.883 215.306 354.001 186.389 334.884 165.907L321.742 178.172ZM344.907 251.223C344.907 275.699 338.993 299.69 327.001 323.288L343.026 331.432C356.21 305.49 362.883 278.723 362.883 251.223H344.907ZM326.948 323.393C315.333 347.01 294.698 374.679 264.539 406.446L277.576 418.822C308.328 386.431 330.329 357.25 343.079 331.327L326.948 323.393ZM264.516 406.47C244.471 427.743 230.363 445.741 222.867 460.291L238.847 468.524C245.158 456.274 257.85 439.756 277.599 418.798L264.516 406.47ZM222.92 460.191C215.312 474.512 211.514 489.973 211.514 506.435H229.491C229.491 492.849 232.596 480.292 238.795 468.624L222.92 460.191ZM211.514 506.435V515.572H229.491V506.435H211.514ZM220.503 524.56H347.804V506.584H220.503V524.56ZM338.816 515.572V576.482H356.792V515.572H338.816ZM347.804 567.494H154.111V585.47H347.804V567.494ZM163.099 576.482V530.19H145.123V576.482H163.099ZM412.607 452.226L420.795 455.933L420.808 455.905L420.82 455.876L412.607 452.226ZM464.99 379.743L471.493 385.946L471.518 385.92L471.543 385.893L464.99 379.743ZM516.154 312.133L508.185 307.975L508.149 308.044L508.115 308.113L516.154 312.133ZM521.636 215.895L514.541 221.413L514.712 221.633L514.896 221.841L521.636 215.895ZM461.335 292.641V301.629H470.323V292.641H461.335ZM397.989 292.641H389.001V301.629H397.989V292.641ZM423.571 172.04L430.141 178.172L430.175 178.136L430.208 178.1L423.571 172.04ZM572.191 172.04L565.554 178.1L565.587 178.136L565.62 178.172L572.191 172.04ZM578.891 327.36L570.879 323.288L570.852 323.341L570.826 323.393L578.891 327.36ZM514.936 412.634L508.417 406.446L508.406 406.458L508.394 406.47L514.936 412.634ZM474.735 464.408L482.673 468.624L482.699 468.574L482.725 468.524L474.735 464.408ZM464.38 515.572H455.392V524.56H464.38V515.572ZM591.682 515.572H600.67V506.584H591.682V515.572ZM591.682 576.482V585.47H600.67V576.482H591.682ZM397.989 576.482H389.001V585.47H397.989V576.482ZM406.977 530.19C406.977 500.659 411.706 476.005 420.795 455.933L404.419 448.518C394.017 471.489 389.001 498.812 389.001 530.19H406.977ZM420.82 455.876C429.988 435.248 446.698 411.941 471.493 385.946L458.486 373.539C432.929 400.333 414.717 425.348 404.394 448.575L420.82 455.876ZM471.543 385.893C496.541 359.256 514.281 335.977 524.193 316.152L508.115 308.113C499.348 325.646 482.978 347.44 458.436 373.592L471.543 385.893ZM524.123 316.29C534.512 296.378 539.76 275.465 539.76 253.659H521.784C521.784 272.459 517.287 290.529 508.185 307.975L524.123 316.29ZM539.76 253.659C539.76 235.043 536.792 219.487 528.375 209.948L514.896 221.841C518.661 226.109 521.784 235.729 521.784 253.659H539.76ZM528.731 210.377C520.954 200.379 509.497 195.943 496.054 195.943V213.919C505.351 213.919 510.947 216.792 514.541 221.413L528.731 210.377ZM496.054 195.943C482.595 195.943 471.028 200.099 463.085 209.714C455.414 219 452.347 231.937 452.347 246.959H470.323C470.323 233.962 473.042 225.885 476.944 221.162C480.574 216.768 486.367 213.919 496.054 213.919V195.943ZM452.347 246.959V292.641H470.323V246.959H452.347ZM461.335 283.653H397.989V301.629H461.335V283.653ZM406.977 292.641V251.223H389.001V292.641H406.977ZM406.977 251.223C406.977 218.108 415.149 194.236 430.141 178.172L417 165.907C397.883 186.389 389.001 215.306 389.001 251.223H406.977ZM430.208 178.1C445.106 161.783 467.159 153.009 497.881 153.009V135.033C463.633 135.033 436.145 144.938 416.933 165.979L430.208 178.1ZM497.881 153.009C528.603 153.009 550.656 161.783 565.554 178.1L578.829 165.979C559.617 144.938 532.129 135.033 497.881 135.033V153.009ZM565.62 178.172C580.613 194.236 588.785 218.108 588.785 251.223H606.761C606.761 215.306 597.879 186.389 578.762 165.907L565.62 178.172ZM588.785 251.223C588.785 275.699 582.871 299.69 570.879 323.288L586.904 331.432C600.088 305.49 606.761 278.723 606.761 251.223H588.785ZM570.826 323.393C559.211 347.01 538.576 374.679 508.417 406.446L521.454 418.822C552.206 386.431 574.207 357.25 586.957 331.327L570.826 323.393ZM508.394 406.47C488.349 427.743 474.241 445.741 466.745 460.291L482.725 468.524C489.036 456.274 501.728 439.756 521.477 418.798L508.394 406.47ZM466.798 460.191C459.19 474.512 455.392 489.973 455.392 506.435H473.368C473.368 492.849 476.474 480.292 482.673 468.624L466.798 460.191ZM455.392 506.435V515.572H473.368V506.435H455.392ZM464.38 524.56H591.682V506.584H464.38V524.56ZM582.694 515.572V576.482H600.67V515.572H582.694ZM591.682 567.494H397.989V585.47H591.682V567.494ZM406.977 576.482V530.19H389.001V576.482H406.977Z" fill="#CC50A3"/>
</g>
</g>
<defs>
<filter id="filter0_d_2_729" x="117.468" y="133.028" width="516.949" height="505.747" filterUnits="userSpaceOnUse" color-interpolation-filters="sRGB">
<feFlood flood-opacity="0" result="BackgroundImageFix"/>
<feColorMatrix in="SourceAlpha" type="matrix" values="0 0 0 0 0 0 0 0 0 0 0 0 0 0 0 0 0 0 127 0" result="hardAlpha"/>
<feOffset dy="25.65"/>
<feGaussianBlur stdDeviation="18.3215"/>
<feComposite in2="hardAlpha" operator="out"/>
<feColorMatrix type="matrix" values="0 0 0 0 0.408333 0 0 0 0 0.153125 0 0 0 0 0.311701 0 0 0 0.53 0"/>
<feBlend mode="normal" in2="BackgroundImageFix" result="effect1_dropShadow_2_729"/>
<feBlend mode="normal" in="SourceGraphic" in2="effect1_dropShadow_2_729" result="shape"/>
</filter>
<linearGradient id="paint0_linear_2_729" x1="47.9019" y1="561.327" x2="263.857" y2="436.645" gradientUnits="userSpaceOnUse">
<stop stop-color="white" stop-opacity="0.4"/>
<stop offset="1" stop-color="white" stop-opacity="0"/>
</linearGradient>
<linearGradient id="paint1_linear_2_729" x1="75.0032" y1="234.721" x2="398.506" y2="47.9471" gradientUnits="userSpaceOnUse">
<stop stop-color="white" stop-opacity="0.4"/>
<stop offset="1" stop-color="white" stop-opacity="0"/>
</linearGradient>
<linearGradient id="paint2_linear_2_729" x1="-32.8078" y1="421.536" x2="182.793" y2="297.058" gradientUnits="userSpaceOnUse">
<stop stop-color="white" stop-opacity="0.4"/>
<stop offset="1" stop-color="white" stop-opacity="0"/>
</linearGradient>
<linearGradient id="paint3_linear_2_729" x1="182.681" y1="296.863" x2="505.645" y2="110.4" gradientUnits="userSpaceOnUse">
<stop stop-color="white" stop-opacity="0.4"/>
<stop offset="1" stop-color="white" stop-opacity="0"/>
</linearGradient>
<linearGradient id="paint4_linear_2_729" x1="614.084" y1="421.341" x2="775.835" y2="327.954" gradientUnits="userSpaceOnUse">
<stop stop-color="white" stop-opacity="0.4"/>
<stop offset="1" stop-color="white" stop-opacity="0"/>
</linearGradient>
<linearGradient id="paint5_linear_2_729" x1="344.123" y1="76.7026" x2="689.811" y2="202.523" gradientUnits="userSpaceOnUse">
<stop stop-color="white" stop-opacity="0.4"/>
<stop offset="1" stop-color="white" stop-opacity="0"/>
</linearGradient>
<linearGradient id="paint6_linear_2_729" x1="344.785" y1="576.819" x2="667.395" y2="390.56" gradientUnits="userSpaceOnUse">
<stop stop-color="white" stop-opacity="0.4"/>
<stop offset="1" stop-color="white" stop-opacity="0"/>
</linearGradient>
<linearGradient id="paint7_linear_2_729" x1="128.943" y1="701.697" x2="344.898" y2="577.015" gradientUnits="userSpaceOnUse">
<stop stop-color="white" stop-opacity="0.4"/>
<stop offset="1" stop-color="white" stop-opacity="0"/>
</linearGradient>
<linearGradient id="paint8_linear_2_729" x1="344.468" y1="701.449" x2="667.97" y2="514.675" gradientUnits="userSpaceOnUse">
<stop stop-color="white" stop-opacity="0.4"/>
<stop offset="1" stop-color="white" stop-opacity="0"/>
</linearGradient>
<linearGradient id="paint9_linear_2_729" x1="263.503" y1="436.85" x2="586.467" y2="250.386" gradientUnits="userSpaceOnUse">
<stop stop-color="white" stop-opacity="0.5"/>
<stop offset="1" stop-color="white" stop-opacity="0"/>
</linearGradient>
<clipPath id="clip0_2_729">
<rect width="750" height="749" fill="white"/>
</clipPath>
</defs>
</svg>
