<svg width="750" height="750" viewBox="0 0 750 750" fill="none" xmlns="http://www.w3.org/2000/svg">
<g clip-path="url(#clip0_1048_89)">
<path d="M607.324 -0.369629L64.9976 316.435V437.239L207.5 519.5L148 734L687.867 434.239V316.435L539.998 228.043L607.324 -0.369629Z" fill="#383336" stroke="black" stroke-width="0.826087"/>
<mask id="mask0_1048_89" style="mask-type:luminance" maskUnits="userSpaceOnUse" x="51" y="51" width="647" height="647">
<path d="M51.9999 51.2394V697.24H698V51.2394H51.9999ZM169.455 380.65L184.944 371.706L339.068 478.577L169.455 380.65ZM565.152 378.811L411.18 272.043L580.623 369.874L565.148 378.811H565.152Z" fill="white"/>
</mask>
<g mask="url(#mask0_1048_89)">
<path d="M318.406 255.848L337.232 190.308L323.431 198.276L185.196 679.653L195.585 685.653L208.674 678.097L328.284 261.551L318.406 255.848Z" fill="url(#paint0_linear_1048_89)"/>
<path d="M243.006 647.394L239.26 660.443L252.486 652.805L375.808 223.348L365.827 217.589L380.903 165.094L367.247 172.981L232.719 641.454L243.006 647.394Z" fill="url(#paint1_linear_1048_89)"/>
<path d="M290.426 609.135L282.93 635.229L296.303 627.506L423.221 185.518L413.137 179.699L424.577 139.88L411.06 147.682L280.239 603.255L290.426 609.135Z" fill="url(#paint2_linear_1048_89)"/>
<path d="M337.108 570.925L325.738 610.512L339.252 602.708L470.13 146.95L459.943 141.074L467.385 115.164L454.013 122.883L327.027 565.105L337.108 570.925Z" fill="url(#paint3_linear_1048_89)"/>
<path d="M384.543 532.616L369.409 585.298L383.069 577.412L517.65 108.751L507.363 102.814L511.056 89.9497L497.829 97.5874L374.561 526.856L384.543 532.616Z" fill="url(#paint4_linear_1048_89)"/>
<path d="M431.672 494.676L412.846 560.216L426.648 552.248L564.882 70.8715L554.493 64.8743L541.408 72.4267L421.794 488.977L431.672 494.676Z" fill="url(#paint5_linear_1048_89)"/>
</g>
<path d="M323.43 198.276L88.5016 333.912V427.389L278.943 317.436L323.43 198.276Z" fill="url(#paint6_linear_1048_89)"/>
<path d="M426.647 552.248L661.58 416.613V323.135L471.135 433.088L426.647 552.248Z" fill="url(#paint7_linear_1048_89)"/>
<mask id="path-11-outside-1_1048_89" maskUnits="userSpaceOnUse" x="266.087" y="247.875" width="241" height="229" fill="black">
<rect fill="white" x="266.087" y="247.875" width="241" height="229"/>
<path d="M271.119 448.428C271.119 433.003 273.587 419.84 278.523 408.94C283.459 397.834 292.303 385.596 305.054 372.228C317.6 358.859 326.238 347.444 330.969 337.984C335.905 328.523 338.373 318.651 338.373 308.367C338.373 299.112 336.83 292.736 333.745 289.24C330.866 285.538 326.547 283.687 320.788 283.687C309.065 283.687 303.203 290.782 303.203 304.973V328.111H271.119V307.133C271.119 289.651 275.438 276.283 284.076 267.027C292.714 257.567 305.26 252.836 321.713 252.836C338.167 252.836 350.713 257.567 359.351 267.027C367.989 276.283 372.308 289.651 372.308 307.133C372.308 320.296 369.12 333.15 362.745 345.696C356.575 358.242 345.777 372.639 330.352 388.887C320.274 399.582 313.487 408.323 309.99 415.11C306.494 421.691 304.746 428.787 304.746 436.397V441.024H369.223V471.875H271.119V448.428ZM452.023 432.695H387.237V401.844L448.938 255.921H485.959V401.844H502.001V432.695H485.959V471.875H452.023V432.695ZM452.023 401.844V317.622H451.406L418.088 401.844H452.023Z"/>
</mask>
<path d="M271.119 448.428C271.119 433.003 273.587 419.84 278.523 408.94C283.459 397.834 292.303 385.596 305.054 372.228C317.6 358.859 326.238 347.444 330.969 337.984C335.905 328.523 338.373 318.651 338.373 308.367C338.373 299.112 336.83 292.736 333.745 289.24C330.866 285.538 326.547 283.687 320.788 283.687C309.065 283.687 303.203 290.782 303.203 304.973V328.111H271.119V307.133C271.119 289.651 275.438 276.283 284.076 267.027C292.714 257.567 305.26 252.836 321.713 252.836C338.167 252.836 350.713 257.567 359.351 267.027C367.989 276.283 372.308 289.651 372.308 307.133C372.308 320.296 369.12 333.15 362.745 345.696C356.575 358.242 345.777 372.639 330.352 388.887C320.274 399.582 313.487 408.323 309.99 415.11C306.494 421.691 304.746 428.787 304.746 436.397V441.024H369.223V471.875H271.119V448.428ZM452.023 432.695H387.237V401.844L448.938 255.921H485.959V401.844H502.001V432.695H485.959V471.875H452.023V432.695ZM452.023 401.844V317.622H451.406L418.088 401.844H452.023Z" fill="#040823"/>
<path d="M278.523 408.94L282.285 410.644L282.291 410.63L282.297 410.617L278.523 408.94ZM305.054 372.228L308.043 375.078L308.055 375.066L308.066 375.054L305.054 372.228ZM330.969 337.984L327.307 336.073L327.29 336.105L327.274 336.136L330.969 337.984ZM333.745 289.24L330.485 291.776L330.563 291.877L330.648 291.973L333.745 289.24ZM303.203 328.111V332.242H307.334V328.111H303.203ZM271.119 328.111H266.988V332.242H271.119V328.111ZM284.076 267.027L287.095 269.846L287.111 269.829L287.126 269.812L284.076 267.027ZM359.351 267.027L356.301 269.812L356.316 269.829L356.331 269.846L359.351 267.027ZM362.745 345.696L359.062 343.825L359.05 343.849L359.038 343.873L362.745 345.696ZM330.352 388.887L327.356 386.043L327.351 386.049L327.346 386.054L330.352 388.887ZM309.99 415.11L313.638 417.048L313.65 417.025L313.662 417.001L309.99 415.11ZM304.746 441.024H300.615V445.155H304.746V441.024ZM369.223 441.024H373.354V436.894H369.223V441.024ZM369.223 471.875V476.005H373.354V471.875H369.223ZM271.119 471.875H266.988V476.005H271.119V471.875ZM275.249 448.428C275.249 433.428 277.651 420.878 282.285 410.644L274.76 407.236C269.522 418.803 266.988 432.579 266.988 448.428H275.249ZM282.297 410.617C286.968 400.108 295.466 388.264 308.043 375.078L302.065 369.377C289.139 382.929 279.95 395.559 274.748 407.262L282.297 410.617ZM308.066 375.054C320.717 361.574 329.669 349.818 334.663 339.831L327.274 336.136C322.807 345.071 314.484 356.144 302.042 369.401L308.066 375.054ZM334.631 339.894C339.862 329.866 342.503 319.341 342.503 308.367H334.242C334.242 317.96 331.947 327.179 327.307 336.073L334.631 339.894ZM342.503 308.367C342.503 298.954 340.996 291.215 336.842 286.507L330.648 291.973C332.664 294.258 334.242 299.27 334.242 308.367H342.503ZM337.006 286.704C333.165 281.766 327.499 279.556 320.788 279.556V287.817C325.594 287.817 328.566 289.309 330.485 291.776L337.006 286.704ZM320.788 279.556C314.06 279.556 308.337 281.63 304.415 286.378C300.618 290.974 299.073 297.413 299.073 304.973H307.334C307.334 298.343 308.719 294.138 310.784 291.639C312.724 289.291 315.793 287.817 320.788 287.817V279.556ZM299.073 304.973V328.111H307.334V304.973H299.073ZM303.203 323.981H271.119V332.242H303.203V323.981ZM275.249 328.111V307.133H266.988V328.111H275.249ZM275.249 307.133C275.249 290.295 279.405 278.085 287.095 269.846L281.056 264.209C271.47 274.48 266.988 289.007 266.988 307.133H275.249ZM287.126 269.812C294.773 261.437 306.07 256.967 321.713 256.967V248.706C304.45 248.706 290.655 253.696 281.026 264.242L287.126 269.812ZM321.713 256.967C337.357 256.967 348.654 261.437 356.301 269.812L362.401 264.242C352.772 253.696 338.977 248.706 321.713 248.706V256.967ZM356.331 269.846C364.022 278.085 368.178 290.295 368.178 307.133H376.439C376.439 289.007 371.957 274.48 362.371 264.209L356.331 269.846ZM368.178 307.133C368.178 319.601 365.164 331.818 359.062 343.825L366.427 347.567C373.076 334.483 376.439 320.991 376.439 307.133H368.178ZM359.038 343.873C353.129 355.889 342.645 369.939 327.356 386.043L333.347 391.731C348.909 375.339 360.02 360.595 366.451 347.519L359.038 343.873ZM327.346 386.054C317.199 396.821 310.087 405.903 306.318 413.218L313.662 417.001C316.886 410.743 323.348 402.342 333.358 391.72L327.346 386.054ZM306.343 413.172C302.522 420.363 300.615 428.126 300.615 436.397H308.876C308.876 429.448 310.465 423.019 313.638 417.048L306.343 413.172ZM300.615 436.397V441.024H308.876V436.397H300.615ZM304.746 445.155H369.223V436.894H304.746V445.155ZM365.093 441.024V471.875H373.354V441.024H365.093ZM369.223 467.744H271.119V476.005H369.223V467.744ZM275.249 471.875V448.428H266.988V471.875H275.249ZM452.023 432.695H456.154V428.564H452.023V432.695ZM387.237 432.695H383.107V436.825H387.237V432.695ZM387.237 401.844L383.433 400.235L383.107 401.007V401.844H387.237ZM448.938 255.921V251.791H446.2L445.134 254.313L448.938 255.921ZM485.959 255.921H490.089V251.791H485.959V255.921ZM485.959 401.844H481.828V405.975H485.959V401.844ZM502.001 401.844H506.131V397.714H502.001V401.844ZM502.001 432.695V436.825H506.131V432.695H502.001ZM485.959 432.695V428.564H481.828V432.695H485.959ZM485.959 471.875V476.005H490.089V471.875H485.959ZM452.023 471.875H447.893V476.005H452.023V471.875ZM452.023 401.844V405.975H456.154V401.844H452.023ZM452.023 317.622H456.154V313.492H452.023V317.622ZM451.406 317.622V313.492H448.598L447.565 316.103L451.406 317.622ZM418.088 401.844L414.247 400.325L412.012 405.975H418.088V401.844ZM452.023 428.564H387.237V436.825H452.023V428.564ZM391.367 432.695V401.844H383.107V432.695H391.367ZM391.041 403.453L452.742 257.53L445.134 254.313L383.433 400.235L391.041 403.453ZM448.938 260.052H485.959V251.791H448.938V260.052ZM481.828 255.921V401.844H490.089V255.921H481.828ZM485.959 405.975H502.001V397.714H485.959V405.975ZM497.871 401.844V432.695H506.131V401.844H497.871ZM502.001 428.564H485.959V436.825H502.001V428.564ZM481.828 432.695V471.875H490.089V432.695H481.828ZM485.959 467.744H452.023V476.005H485.959V467.744ZM456.154 471.875V432.695H447.893V471.875H456.154ZM456.154 401.844V317.622H447.893V401.844H456.154ZM452.023 313.492H451.406V321.753H452.023V313.492ZM447.565 316.103L414.247 400.325L421.928 403.364L455.247 319.142L447.565 316.103ZM418.088 405.975H452.023V397.714H418.088V405.975Z" fill="#F7B457" mask="url(#path-11-outside-1_1048_89)"/>
<path d="M263.119 443.428C263.119 428.003 265.587 414.84 270.523 403.94C275.459 392.834 284.303 380.596 297.054 367.228C309.6 353.859 318.238 342.444 322.969 332.984C327.905 323.523 330.373 313.651 330.373 303.367C330.373 294.112 328.83 287.736 325.745 284.24C322.866 280.538 318.547 278.687 312.788 278.687C301.065 278.687 295.203 285.782 295.203 299.973V323.111H263.119V302.133C263.119 284.651 267.438 271.283 276.076 262.027C284.714 252.567 297.26 247.836 313.713 247.836C330.167 247.836 342.713 252.567 351.351 262.027C359.989 271.283 364.308 284.651 364.308 302.133C364.308 315.296 361.12 328.15 354.745 340.696C348.575 353.242 337.777 367.639 322.352 383.887C312.274 394.582 305.487 403.323 301.99 410.11C298.494 416.691 296.746 423.787 296.746 431.397V436.024H361.223V466.875H263.119V443.428ZM444.023 427.695H379.237V396.844L440.938 250.921H477.959V396.844H494.001V427.695H477.959V466.875H444.023V427.695ZM444.023 396.844V312.622H443.406L410.088 396.844H444.023Z" fill="#FFF6E6"/>
<path d="M661.58 323.135L434.204 191.86L411.18 272.047L661.58 416.612V323.135Z" fill="url(#paint8_linear_1048_89)"/>
<path d="M88.5016 427.389L316.041 558.764L339.068 478.577L88.5016 333.912V427.389Z" fill="url(#paint9_linear_1048_89)"/>
</g>
<defs>
<linearGradient id="paint0_linear_1048_89" x1="205.378" y1="402.747" x2="327.081" y2="473.009" gradientUnits="userSpaceOnUse">
<stop stop-color="#1595E7"/>
<stop offset="0.5" stop-color="#52B384"/>
<stop offset="1" stop-color="#F7B457"/>
</linearGradient>
<linearGradient id="paint1_linear_1048_89" x1="249.124" y1="377.575" x2="370.824" y2="447.837" gradientUnits="userSpaceOnUse">
<stop stop-color="#429BCA"/>
<stop offset="0.5" stop-color="#52B384"/>
<stop offset="1" stop-color="#CAAE74"/>
</linearGradient>
<linearGradient id="paint2_linear_1048_89" x1="292.867" y1="352.4" x2="414.568" y2="422.665" gradientUnits="userSpaceOnUse">
<stop stop-color="#6FA1AD"/>
<stop offset="0.5" stop-color="#52B384"/>
<stop offset="1" stop-color="#9DA891"/>
</linearGradient>
<linearGradient id="paint3_linear_1048_89" x1="457.448" y1="397.991" x2="335.747" y2="327.727" gradientUnits="userSpaceOnUse">
<stop stop-color="#6FA1AD"/>
<stop offset="0.5" stop-color="#52B384"/>
<stop offset="1" stop-color="#9DA891"/>
</linearGradient>
<linearGradient id="paint4_linear_1048_89" x1="501.192" y1="372.817" x2="379.49" y2="302.554" gradientUnits="userSpaceOnUse">
<stop stop-color="#429BCA"/>
<stop offset="0.5" stop-color="#52B384"/>
<stop offset="1" stop-color="#CAAE74"/>
</linearGradient>
<linearGradient id="paint5_linear_1048_89" x1="544.699" y1="347.78" x2="423" y2="277.514" gradientUnits="userSpaceOnUse">
<stop stop-color="#1595E7"/>
<stop offset="0.5" stop-color="#52B384"/>
<stop offset="1" stop-color="#F7B457"/>
</linearGradient>
<linearGradient id="paint6_linear_1048_89" x1="88.5016" y1="312.835" x2="323.43" y2="312.835" gradientUnits="userSpaceOnUse">
<stop stop-color="#B94FAF"/>
<stop offset="1" stop-color="#190941"/>
</linearGradient>
<linearGradient id="paint7_linear_1048_89" x1="661.578" y1="437.693" x2="426.649" y2="437.693" gradientUnits="userSpaceOnUse">
<stop stop-color="#B94FAF"/>
<stop offset="1" stop-color="#190941"/>
</linearGradient>
<linearGradient id="paint8_linear_1048_89" x1="661.578" y1="304.238" x2="411.182" y2="304.238" gradientUnits="userSpaceOnUse">
<stop stop-color="#2DAAE0"/>
<stop offset="1" stop-color="#FFF873"/>
</linearGradient>
<linearGradient id="paint9_linear_1048_89" x1="88.4995" y1="446.338" x2="339.069" y2="446.338" gradientUnits="userSpaceOnUse">
<stop stop-color="#2DAAE0"/>
<stop offset="1" stop-color="#FFF873"/>
</linearGradient>
<clipPath id="clip0_1048_89">
<rect width="750" height="750" fill="white"/>
</clipPath>
</defs>
</svg>
