<svg width="750" height="750" viewBox="0 0 750 750" fill="none" xmlns="http://www.w3.org/2000/svg">
<g clip-path="url(#clip0_1684_4121)">
<path d="M607.324 -0.369629L64.9976 316.435V437.239L207.5 519.5L148 734L687.867 434.239V316.435L539.998 228.043L607.324 -0.369629Z" fill="#383336" stroke="black" stroke-width="0.826087"/>
<mask id="mask0_1684_4121" style="mask-type:luminance" maskUnits="userSpaceOnUse" x="51" y="51" width="647" height="647">
<path d="M51.9999 51.2393V697.239H698V51.2393H51.9999ZM169.455 380.65L184.944 371.706L339.068 478.577L169.455 380.65ZM565.152 378.811L411.18 272.043L580.623 369.874L565.148 378.811H565.152Z" fill="white"/>
</mask>
<g mask="url(#mask0_1684_4121)">
<path d="M318.406 255.848L337.232 190.308L323.431 198.276L185.196 679.653L195.585 685.653L208.674 678.097L328.284 261.551L318.406 255.848Z" fill="url(#paint0_linear_1684_4121)"/>
<path d="M243.006 647.394L239.26 660.443L252.486 652.805L375.808 223.348L365.827 217.589L380.903 165.094L367.247 172.981L232.719 641.454L243.006 647.394Z" fill="url(#paint1_linear_1684_4121)"/>
<path d="M290.426 609.135L282.93 635.229L296.303 627.506L423.221 185.519L413.137 179.699L424.577 139.881L411.06 147.682L280.239 603.255L290.426 609.135Z" fill="url(#paint2_linear_1684_4121)"/>
<path d="M337.108 570.925L325.738 610.512L339.252 602.708L470.13 146.95L459.943 141.073L467.385 115.164L454.013 122.883L327.027 565.105L337.108 570.925Z" fill="url(#paint3_linear_1684_4121)"/>
<path d="M384.543 532.616L369.409 585.298L383.069 577.412L517.65 108.751L507.363 102.814L511.056 89.9497L497.829 97.5874L374.561 526.856L384.543 532.616Z" fill="url(#paint4_linear_1684_4121)"/>
<path d="M431.672 494.676L412.846 560.216L426.648 552.248L564.882 70.8715L554.493 64.8743L541.408 72.4267L421.794 488.977L431.672 494.676Z" fill="url(#paint5_linear_1684_4121)"/>
</g>
<path d="M323.43 198.276L88.5016 333.912V427.389L278.943 317.436L323.43 198.276Z" fill="url(#paint6_linear_1684_4121)"/>
<path d="M426.647 552.248L661.58 416.612V323.135L471.135 433.088L426.647 552.248Z" fill="url(#paint7_linear_1684_4121)"/>
<mask id="path-11-outside-1_1684_4121" maskUnits="userSpaceOnUse" x="266.087" y="247.875" width="234" height="232" fill="black">
<rect fill="white" x="266.087" y="247.875" width="234" height="232"/>
<path d="M271.119 448.428C271.119 433.003 273.587 419.84 278.523 408.939C283.459 397.833 292.303 385.596 305.054 372.227C317.6 358.859 326.238 347.444 330.969 337.983C335.905 328.522 338.373 318.65 338.373 308.367C338.373 299.112 336.83 292.736 333.745 289.239C330.866 285.537 326.547 283.686 320.788 283.686C309.065 283.686 303.203 290.782 303.203 304.973V328.111H271.119V307.133C271.119 289.651 275.438 276.282 284.076 267.027C292.714 257.566 305.26 252.836 321.713 252.836C338.167 252.836 350.713 257.566 359.351 267.027C367.989 276.282 372.308 289.651 372.308 307.133C372.308 320.296 369.12 333.15 362.745 345.696C356.575 358.242 345.777 372.639 330.352 388.887C320.274 399.581 313.487 408.322 309.99 415.11C306.494 421.691 304.746 428.787 304.746 436.396V441.024H369.223V471.875H271.119V448.428ZM444.927 474.96C428.474 474.96 415.928 470.332 407.29 461.077C398.652 451.616 394.333 438.145 394.333 420.663V403.695H426.417V423.131C426.417 437.116 432.279 444.109 444.002 444.109C455.725 444.109 461.587 437.116 461.587 423.131V374.695C461.587 360.504 455.725 353.409 444.002 353.409C432.279 353.409 426.417 360.504 426.417 374.695V376.546H394.333L400.503 255.921H489.969V286.771H430.736L427.96 338.292H428.577C434.952 327.803 444.722 322.558 457.885 322.558C470.225 322.558 479.583 326.774 485.959 335.207C492.334 343.639 495.522 355.877 495.522 371.919V420.663C495.522 438.145 491.203 451.616 482.565 461.077C473.927 470.332 461.381 474.96 444.927 474.96Z"/>
</mask>
<path d="M271.119 448.428C271.119 433.003 273.587 419.84 278.523 408.939C283.459 397.833 292.303 385.596 305.054 372.227C317.6 358.859 326.238 347.444 330.969 337.983C335.905 328.522 338.373 318.65 338.373 308.367C338.373 299.112 336.83 292.736 333.745 289.239C330.866 285.537 326.547 283.686 320.788 283.686C309.065 283.686 303.203 290.782 303.203 304.973V328.111H271.119V307.133C271.119 289.651 275.438 276.282 284.076 267.027C292.714 257.566 305.26 252.836 321.713 252.836C338.167 252.836 350.713 257.566 359.351 267.027C367.989 276.282 372.308 289.651 372.308 307.133C372.308 320.296 369.12 333.15 362.745 345.696C356.575 358.242 345.777 372.639 330.352 388.887C320.274 399.581 313.487 408.322 309.99 415.11C306.494 421.691 304.746 428.787 304.746 436.396V441.024H369.223V471.875H271.119V448.428ZM444.927 474.96C428.474 474.96 415.928 470.332 407.29 461.077C398.652 451.616 394.333 438.145 394.333 420.663V403.695H426.417V423.131C426.417 437.116 432.279 444.109 444.002 444.109C455.725 444.109 461.587 437.116 461.587 423.131V374.695C461.587 360.504 455.725 353.409 444.002 353.409C432.279 353.409 426.417 360.504 426.417 374.695V376.546H394.333L400.503 255.921H489.969V286.771H430.736L427.96 338.292H428.577C434.952 327.803 444.722 322.558 457.885 322.558C470.225 322.558 479.583 326.774 485.959 335.207C492.334 343.639 495.522 355.877 495.522 371.919V420.663C495.522 438.145 491.203 451.616 482.565 461.077C473.927 470.332 461.381 474.96 444.927 474.96Z" fill="#040823"/>
<path d="M278.523 408.939L282.285 410.643L282.291 410.63L282.297 410.617L278.523 408.939ZM305.054 372.227L308.043 375.078L308.055 375.066L308.066 375.054L305.054 372.227ZM330.969 337.983L327.307 336.073L327.29 336.104L327.274 336.136L330.969 337.983ZM333.745 289.239L330.485 291.775L330.563 291.876L330.648 291.972L333.745 289.239ZM303.203 328.111V332.242H307.334V328.111H303.203ZM271.119 328.111H266.988V332.242H271.119V328.111ZM284.076 267.027L287.095 269.845L287.111 269.829L287.126 269.812L284.076 267.027ZM359.351 267.027L356.301 269.812L356.316 269.829L356.331 269.845L359.351 267.027ZM362.745 345.696L359.062 343.825L359.05 343.849L359.038 343.873L362.745 345.696ZM330.352 388.887L327.356 386.043L327.351 386.048L327.346 386.054L330.352 388.887ZM309.99 415.11L313.638 417.047L313.65 417.024L313.662 417.001L309.99 415.11ZM304.746 441.024H300.615V445.154H304.746V441.024ZM369.223 441.024H373.354V436.894H369.223V441.024ZM369.223 471.875V476.005H373.354V471.875H369.223ZM271.119 471.875H266.988V476.005H271.119V471.875ZM271.119 448.428H275.249C275.249 433.427 277.651 420.877 282.285 410.643L278.523 408.939L274.76 407.236C269.522 418.802 266.988 432.578 266.988 448.428H271.119ZM278.523 408.939L282.297 410.617C286.968 400.108 295.466 388.263 308.043 375.078L305.054 372.227L302.065 369.376C289.139 382.929 279.95 395.559 274.748 407.262L278.523 408.939ZM305.054 372.227L308.066 375.054C320.717 361.574 329.669 349.818 334.663 339.83L330.969 337.983L327.274 336.136C322.807 345.07 314.484 356.144 302.042 369.401L305.054 372.227ZM330.969 337.983L334.631 339.894C339.862 329.866 342.503 319.341 342.503 308.367H338.373H334.242C334.242 317.96 331.947 327.179 327.307 336.073L330.969 337.983ZM338.373 308.367H342.503C342.503 298.954 340.996 291.214 336.842 286.507L333.745 289.239L330.648 291.972C332.664 294.257 334.242 299.269 334.242 308.367H338.373ZM333.745 289.239L337.006 286.704C333.165 281.766 327.499 279.556 320.788 279.556V283.686V287.817C325.594 287.817 328.566 289.309 330.485 291.775L333.745 289.239ZM320.788 283.686V279.556C314.06 279.556 308.337 281.63 304.415 286.378C300.618 290.974 299.073 297.412 299.073 304.973H303.203H307.334C307.334 298.343 308.719 294.138 310.784 291.639C312.724 289.29 315.793 287.817 320.788 287.817V283.686ZM303.203 304.973H299.073V328.111H303.203H307.334V304.973H303.203ZM303.203 328.111V323.981H271.119V328.111V332.242H303.203V328.111ZM271.119 328.111H275.249V307.133H271.119H266.988V328.111H271.119ZM271.119 307.133H275.249C275.249 290.295 279.405 278.085 287.095 269.845L284.076 267.027L281.056 264.209C271.47 274.479 266.988 289.007 266.988 307.133H271.119ZM284.076 267.027L287.126 269.812C294.773 261.437 306.07 256.966 321.713 256.966V252.836V248.705C304.45 248.705 290.655 253.696 281.026 264.242L284.076 267.027ZM321.713 252.836V256.966C337.357 256.966 348.654 261.437 356.301 269.812L359.351 267.027L362.401 264.242C352.772 253.696 338.977 248.705 321.713 248.705V252.836ZM359.351 267.027L356.331 269.845C364.022 278.085 368.178 290.295 368.178 307.133H372.308H376.439C376.439 289.007 371.957 274.479 362.371 264.209L359.351 267.027ZM372.308 307.133H368.178C368.178 319.601 365.164 331.817 359.062 343.825L362.745 345.696L366.427 347.567C373.076 334.483 376.439 320.991 376.439 307.133H372.308ZM362.745 345.696L359.038 343.873C353.129 355.889 342.645 369.938 327.356 386.043L330.352 388.887L333.347 391.73C348.909 375.339 360.02 360.595 366.451 347.519L362.745 345.696ZM330.352 388.887L327.346 386.054C317.199 396.821 310.087 405.902 306.318 413.218L309.99 415.11L313.662 417.001C316.886 410.743 323.348 402.342 333.358 391.719L330.352 388.887ZM309.99 415.11L306.343 413.172C302.522 420.363 300.615 428.126 300.615 436.396H304.746H308.876C308.876 429.447 310.465 423.019 313.638 417.047L309.99 415.11ZM304.746 436.396H300.615V441.024H304.746H308.876V436.396H304.746ZM304.746 441.024V445.154H369.223V441.024V436.894H304.746V441.024ZM369.223 441.024H365.093V471.875H369.223H373.354V441.024H369.223ZM369.223 471.875V467.744H271.119V471.875V476.005H369.223V471.875ZM271.119 471.875H275.249V448.428H271.119H266.988V471.875H271.119ZM407.29 461.077L404.24 463.862L404.255 463.879L404.27 463.895L407.29 461.077ZM394.333 403.695V399.564H390.202V403.695H394.333ZM426.417 403.695H430.548V399.564H426.417V403.695ZM426.417 376.546V380.677H430.548V376.546H426.417ZM394.333 376.546L390.208 376.335L389.986 380.677H394.333V376.546ZM400.503 255.921V251.79H396.578L396.378 255.71L400.503 255.921ZM489.969 255.921H494.1V251.79H489.969V255.921ZM489.969 286.771V290.902H494.1V286.771H489.969ZM430.736 286.771V282.641H426.822L426.612 286.549L430.736 286.771ZM427.96 338.292L423.835 338.07L423.601 342.422H427.96V338.292ZM428.577 338.292V342.422H430.9L432.106 340.437L428.577 338.292ZM485.959 335.207L482.664 337.698L482.664 337.698L485.959 335.207ZM482.565 461.077L485.585 463.895L485.6 463.879L485.615 463.862L482.565 461.077ZM444.927 474.96V470.829C429.257 470.829 417.95 466.445 410.309 458.259L407.29 461.077L404.27 463.895C413.906 474.219 427.691 479.09 444.927 479.09V474.96ZM407.29 461.077L410.34 458.292C402.616 449.832 398.463 437.494 398.463 420.663H394.333H390.202C390.202 438.795 394.687 453.4 404.24 463.862L407.29 461.077ZM394.333 420.663H398.463V403.695H394.333H390.202V420.663H394.333ZM394.333 403.695V407.825H426.417V403.695V399.564H394.333V403.695ZM426.417 403.695H422.287V423.131H426.417H430.548V403.695H426.417ZM426.417 423.131H422.287C422.287 430.6 423.837 436.971 427.648 441.518C431.576 446.204 437.294 448.239 444.002 448.239V444.109V439.979C438.987 439.979 435.912 438.518 433.979 436.211C431.928 433.765 430.548 429.647 430.548 423.131H426.417ZM444.002 444.109V448.239C450.71 448.239 456.428 446.204 460.356 441.518C464.167 436.971 465.717 430.6 465.717 423.131H461.587H457.456C457.456 429.647 456.076 433.765 454.025 436.211C452.092 438.518 449.017 439.979 444.002 439.979V444.109ZM461.587 423.131H465.717V374.695H461.587H457.456V423.131H461.587ZM461.587 374.695H465.717C465.717 367.135 464.172 360.696 460.375 356.1C456.453 351.352 450.73 349.278 444.002 349.278V353.409V357.539C448.997 357.539 452.066 359.013 454.006 361.361C456.071 363.86 457.456 368.065 457.456 374.695H461.587ZM444.002 353.409V349.278C437.274 349.278 431.551 351.352 427.629 356.1C423.832 360.696 422.287 367.135 422.287 374.695H426.417H430.548C430.548 368.065 431.933 363.86 433.998 361.361C435.938 359.013 439.007 357.539 444.002 357.539V353.409ZM426.417 374.695H422.287V376.546H426.417H430.548V374.695H426.417ZM426.417 376.546V372.416H394.333V376.546V380.677H426.417V376.546ZM394.333 376.546L398.458 376.757L404.628 256.132L400.503 255.921L396.378 255.71L390.208 376.335L394.333 376.546ZM400.503 255.921V260.051H489.969V255.921V251.79H400.503V255.921ZM489.969 255.921H485.839V286.771H489.969H494.1V255.921H489.969ZM489.969 286.771V282.641H430.736V286.771V290.902H489.969V286.771ZM430.736 286.771L426.612 286.549L423.835 338.07L427.96 338.292L432.084 338.514L434.861 286.994L430.736 286.771ZM427.96 338.292V342.422H428.577V338.292V334.161H427.96V338.292ZM428.577 338.292L432.106 340.437C437.67 331.285 446.038 326.688 457.885 326.688V322.558V318.428C443.406 318.428 432.235 324.321 425.047 336.146L428.577 338.292ZM457.885 322.558V326.688C469.176 326.688 477.206 330.479 482.664 337.698L485.959 335.207L489.253 332.716C481.96 323.07 471.274 318.428 457.885 318.428V322.558ZM485.959 335.207L482.664 337.698C488.281 345.127 491.392 356.335 491.392 371.919H495.522H499.653C499.653 355.418 496.388 342.151 489.253 332.716L485.959 335.207ZM495.522 371.919H491.392V420.663H495.522H499.653V371.919H495.522ZM495.522 420.663H491.392C491.392 437.494 487.239 449.832 479.515 458.292L482.565 461.077L485.615 463.862C495.168 453.4 499.653 438.795 499.653 420.663H495.522ZM482.565 461.077L479.546 458.259C471.905 466.445 460.598 470.829 444.927 470.829V474.96V479.09C462.164 479.09 475.949 474.219 485.585 463.895L482.565 461.077Z" fill="#F7B457" mask="url(#path-11-outside-1_1684_4121)"/>
<path d="M263.119 443.428C263.119 428.003 265.587 414.84 270.523 403.939C275.459 392.833 284.303 380.596 297.054 367.227C309.6 353.859 318.238 342.444 322.969 332.983C327.905 323.522 330.373 313.65 330.373 303.367C330.373 294.112 328.83 287.736 325.745 284.239C322.866 280.537 318.547 278.686 312.788 278.686C301.065 278.686 295.203 285.782 295.203 299.973V323.111H263.119V302.133C263.119 284.651 267.438 271.282 276.076 262.027C284.714 252.566 297.26 247.836 313.713 247.836C330.167 247.836 342.713 252.566 351.351 262.027C359.989 271.282 364.308 284.651 364.308 302.133C364.308 315.296 361.12 328.15 354.745 340.696C348.575 353.242 337.777 367.639 322.352 383.887C312.274 394.581 305.487 403.322 301.99 410.11C298.494 416.691 296.746 423.787 296.746 431.396V436.024H361.223V466.875H263.119V443.428ZM436.927 469.96C420.474 469.96 407.928 465.332 399.29 456.077C390.652 446.616 386.333 433.145 386.333 415.663V398.695H418.417V418.131C418.417 432.116 424.279 439.109 436.002 439.109C447.725 439.109 453.587 432.116 453.587 418.131V369.695C453.587 355.504 447.725 348.409 436.002 348.409C424.279 348.409 418.417 355.504 418.417 369.695V371.546H386.333L392.503 250.921H481.969V281.771H422.736L419.96 333.292H420.577C426.952 322.803 436.722 317.558 449.885 317.558C462.225 317.558 471.583 321.774 477.959 330.207C484.334 338.639 487.522 350.877 487.522 366.919V415.663C487.522 433.145 483.203 446.616 474.565 456.077C465.927 465.332 453.381 469.96 436.927 469.96Z" fill="#FFF6E6"/>
<path d="M661.58 323.135L434.204 191.86L411.18 272.047L661.58 416.612V323.135Z" fill="url(#paint8_linear_1684_4121)"/>
<path d="M88.5016 427.389L316.041 558.763L339.068 478.577L88.5016 333.912V427.389Z" fill="url(#paint9_linear_1684_4121)"/>
</g>
<defs>
<linearGradient id="paint0_linear_1684_4121" x1="205.38" y1="402.745" x2="327.08" y2="473.009" gradientUnits="userSpaceOnUse">
<stop stop-color="#7FB352"/>
<stop offset="0.33333" stop-color="#15E7A1"/>
<stop offset="1" stop-color="#3D81FF"/>
</linearGradient>
<linearGradient id="paint1_linear_1684_4121" x1="252.391" y1="377.533" x2="372.511" y2="445.126" gradientUnits="userSpaceOnUse">
<stop stop-color="#7FB352"/>
<stop offset="0.33333" stop-color="#15E7A1"/>
<stop offset="1" stop-color="#3D81FF"/>
</linearGradient>
<linearGradient id="paint2_linear_1684_4121" x1="299.401" y1="352.319" x2="417.863" y2="417.25" gradientUnits="userSpaceOnUse">
<stop stop-color="#7FB352"/>
<stop offset="0.33333" stop-color="#15E7A1"/>
<stop offset="1" stop-color="#3D81FF"/>
</linearGradient>
<linearGradient id="paint3_linear_1684_4121" x1="344.907" y1="327.602" x2="463.393" y2="392.57" gradientUnits="userSpaceOnUse">
<stop stop-color="#7FB352"/>
<stop offset="0.33333" stop-color="#15E7A1"/>
<stop offset="1" stop-color="#3D81FF"/>
</linearGradient>
<linearGradient id="paint4_linear_1684_4121" x1="389.089" y1="302.388" x2="509.233" y2="370.021" gradientUnits="userSpaceOnUse">
<stop stop-color="#7FB352"/>
<stop offset="0.33333" stop-color="#15E7A1"/>
<stop offset="1" stop-color="#3D81FF"/>
</linearGradient>
<linearGradient id="paint5_linear_1684_4121" x1="433.029" y1="277.31" x2="554.73" y2="347.574" gradientUnits="userSpaceOnUse">
<stop stop-color="#7FB352"/>
<stop offset="0.33333" stop-color="#15E7A1"/>
<stop offset="1" stop-color="#3D81FF"/>
</linearGradient>
<linearGradient id="paint6_linear_1684_4121" x1="323.43" y1="312.832" x2="88.5016" y2="312.832" gradientUnits="userSpaceOnUse">
<stop stop-color="#4FA0B9"/>
<stop offset="1" stop-color="#190941"/>
</linearGradient>
<linearGradient id="paint7_linear_1684_4121" x1="661.58" y1="437.691" x2="426.647" y2="437.691" gradientUnits="userSpaceOnUse">
<stop stop-color="#4FA0B9"/>
<stop offset="1" stop-color="#190941"/>
</linearGradient>
<linearGradient id="paint8_linear_1684_4121" x1="661.578" y1="304.237" x2="411.182" y2="304.237" gradientUnits="userSpaceOnUse">
<stop stop-color="#2DAAE0"/>
<stop offset="1" stop-color="#FFF873"/>
</linearGradient>
<linearGradient id="paint9_linear_1684_4121" x1="88.4995" y1="446.338" x2="339.069" y2="446.338" gradientUnits="userSpaceOnUse">
<stop stop-color="#52E02F"/>
<stop offset="1" stop-color="#C0EFF4"/>
</linearGradient>
<clipPath id="clip0_1684_4121">
<rect width="750" height="750" fill="white"/>
</clipPath>
</defs>
</svg>
