<svg width="750" height="750" viewBox="0 0 750 750" fill="none" xmlns="http://www.w3.org/2000/svg">
<g clip-path="url(#clip0_550_3122)">
<path d="M607.324 -0.369644L64.9976 316.435V437.239L207.5 519.5L148 734L687.867 434.239V316.435L539.998 228.043L607.324 -0.369644Z" fill="#383336" stroke="black" stroke-width="0.826087"/>
<mask id="mask0_550_3122" style="mask-type:luminance" maskUnits="userSpaceOnUse" x="51" y="51" width="647" height="647">
<path d="M51.9999 51.2394V697.24H698V51.2394H51.9999ZM169.455 380.65L184.944 371.706L339.068 478.577L169.455 380.65ZM565.152 378.811L411.18 272.043L580.623 369.874L565.148 378.811H565.152Z" fill="white"/>
</mask>
<g mask="url(#mask0_550_3122)">
<path d="M318.406 255.848L337.232 190.308L323.431 198.276L185.196 679.653L195.585 685.654L208.674 678.098L328.284 261.551L318.406 255.848Z" fill="url(#paint0_linear_550_3122)"/>
<path d="M243.006 647.394L239.26 660.443L252.486 652.805L375.808 223.348L365.827 217.589L380.903 165.094L367.247 172.981L232.719 641.454L243.006 647.394Z" fill="url(#paint1_linear_550_3122)"/>
<path d="M290.426 609.135L282.93 635.229L296.303 627.506L423.221 185.518L413.137 179.699L424.577 139.881L411.06 147.682L280.239 603.255L290.426 609.135Z" fill="url(#paint2_linear_550_3122)"/>
<path d="M337.108 570.925L325.738 610.512L339.252 602.708L470.13 146.95L459.943 141.074L467.385 115.164L454.013 122.883L327.027 565.105L337.108 570.925Z" fill="url(#paint3_linear_550_3122)"/>
<path d="M384.543 532.616L369.409 585.298L383.069 577.412L517.65 108.751L507.363 102.814L511.056 89.9498L497.829 97.5874L374.561 526.856L384.543 532.616Z" fill="url(#paint4_linear_550_3122)"/>
<path d="M431.672 494.676L412.846 560.216L426.648 552.248L564.882 70.8715L554.493 64.8743L541.408 72.4268L421.794 488.977L431.672 494.676Z" fill="url(#paint5_linear_550_3122)"/>
</g>
<path d="M323.43 198.276L88.5016 333.912V427.389L278.943 317.436L323.43 198.276Z" fill="url(#paint6_linear_550_3122)"/>
<path d="M426.647 552.248L661.58 416.612V323.135L471.135 433.088L426.647 552.248Z" fill="url(#paint7_linear_550_3122)"/>
<path d="M271.119 448.428C271.119 433.003 273.587 419.84 278.523 408.94C283.459 397.833 292.303 385.596 305.054 372.228C317.6 358.859 326.238 347.444 330.969 337.983C335.905 328.523 338.373 318.65 338.373 308.367C338.373 299.112 336.83 292.736 333.745 289.24C330.866 285.538 326.547 283.687 320.788 283.687C309.065 283.687 303.203 290.782 303.203 304.973V328.111H271.119V307.133C271.119 289.651 275.438 276.282 284.076 267.027C292.714 257.566 305.26 252.836 321.713 252.836C338.167 252.836 350.713 257.566 359.351 267.027C367.989 276.282 372.308 289.651 372.308 307.133C372.308 320.296 369.12 333.15 362.745 345.696C356.575 358.242 345.777 372.639 330.352 388.887C320.274 399.582 313.487 408.323 309.99 415.11C306.494 421.691 304.746 428.787 304.746 436.397V441.024H369.223V471.875H271.119V448.428ZM443.385 474.96C426.726 474.96 414.077 470.332 405.439 461.077C397.006 451.822 392.79 438.556 392.79 421.28V403.695H424.875V422.822C424.875 437.014 430.736 444.109 442.459 444.109C448.218 444.109 452.537 442.361 455.417 438.865C458.502 435.163 460.044 428.787 460.044 419.737V402.153C460.044 392.28 458.296 385.288 454.8 381.174C451.303 376.855 445.647 374.696 437.832 374.696H426.417V343.845H438.757C445.545 343.845 450.583 342.097 453.874 338.6C457.371 335.104 459.119 329.242 459.119 321.016V305.282C459.119 297.878 457.576 292.428 454.491 288.931C451.406 285.435 447.293 283.687 442.151 283.687C431.25 283.687 425.8 290.371 425.8 303.739V317.931H393.716V306.516C393.716 289.24 397.932 275.974 406.364 266.719C415.002 257.464 427.343 252.836 443.385 252.836C459.633 252.836 471.973 257.464 480.406 266.719C488.838 275.768 493.054 288.931 493.054 306.207V313.92C493.054 325.643 491.1 335.104 487.193 342.303C483.285 349.295 477.218 354.334 468.991 357.419V358.036C477.835 361.327 484.21 366.674 488.118 374.079C492.026 381.483 493.98 390.943 493.98 402.461V421.588C493.98 438.865 489.661 452.13 481.023 461.385C472.59 470.435 460.044 474.96 443.385 474.96Z" fill="#040823"/>
<path d="M278.523 408.94L282.285 410.643L282.291 410.63L282.297 410.617L278.523 408.94ZM305.054 372.228L308.043 375.078L308.055 375.066L308.066 375.054L305.054 372.228ZM330.969 337.983L327.307 336.073L327.29 336.104L327.274 336.136L330.969 337.983ZM333.745 289.24L330.485 291.775L330.563 291.876L330.648 291.972L333.745 289.24ZM303.203 328.111V332.242H307.334V328.111H303.203ZM271.119 328.111H266.988V332.242H271.119V328.111ZM284.076 267.027L287.095 269.846L287.111 269.829L287.126 269.812L284.076 267.027ZM359.351 267.027L356.301 269.812L356.316 269.829L356.331 269.846L359.351 267.027ZM362.745 345.696L359.062 343.825L359.05 343.849L359.038 343.873L362.745 345.696ZM330.352 388.887L327.356 386.043L327.351 386.049L327.346 386.054L330.352 388.887ZM309.99 415.11L313.638 417.048L313.65 417.024L313.662 417.001L309.99 415.11ZM304.746 441.024H300.615V445.155H304.746V441.024ZM369.223 441.024H373.354V436.894H369.223V441.024ZM369.223 471.875V476.005H373.354V471.875H369.223ZM271.119 471.875H266.988V476.005H271.119V471.875ZM275.249 448.428C275.249 433.427 277.651 420.878 282.285 410.643L274.76 407.236C269.522 418.803 266.988 432.579 266.988 448.428H275.249ZM282.297 410.617C286.968 400.108 295.466 388.263 308.043 375.078L302.065 369.377C289.139 382.929 279.95 395.559 274.748 407.262L282.297 410.617ZM308.066 375.054C320.717 361.574 329.669 349.818 334.663 339.831L327.274 336.136C322.807 345.071 314.484 356.144 302.042 369.401L308.066 375.054ZM334.631 339.894C339.862 329.866 342.503 319.341 342.503 308.367H334.242C334.242 317.96 331.947 327.179 327.307 336.073L334.631 339.894ZM342.503 308.367C342.503 298.954 340.996 291.215 336.842 286.507L330.648 291.972C332.664 294.257 334.242 299.27 334.242 308.367H342.503ZM337.006 286.704C333.165 281.766 327.499 279.556 320.788 279.556V287.817C325.594 287.817 328.566 289.309 330.485 291.775L337.006 286.704ZM320.788 279.556C314.06 279.556 308.337 281.63 304.415 286.378C300.618 290.974 299.073 297.413 299.073 304.973H307.334C307.334 298.343 308.719 294.138 310.784 291.639C312.724 289.291 315.793 287.817 320.788 287.817V279.556ZM299.073 304.973V328.111H307.334V304.973H299.073ZM303.203 323.981H271.119V332.242H303.203V323.981ZM275.249 328.111V307.133H266.988V328.111H275.249ZM275.249 307.133C275.249 290.295 279.405 278.085 287.095 269.846L281.056 264.209C271.47 274.48 266.988 289.007 266.988 307.133H275.249ZM287.126 269.812C294.773 261.437 306.07 256.966 321.713 256.966V248.706C304.45 248.706 290.655 253.696 281.026 264.242L287.126 269.812ZM321.713 256.966C337.357 256.966 348.654 261.437 356.301 269.812L362.401 264.242C352.772 253.696 338.977 248.706 321.713 248.706V256.966ZM356.331 269.846C364.022 278.085 368.178 290.295 368.178 307.133H376.439C376.439 289.007 371.957 274.48 362.371 264.209L356.331 269.846ZM368.178 307.133C368.178 319.601 365.164 331.818 359.062 343.825L366.427 347.567C373.076 334.483 376.439 320.991 376.439 307.133H368.178ZM359.038 343.873C353.129 355.889 342.645 369.939 327.356 386.043L333.347 391.731C348.909 375.339 360.02 360.595 366.451 347.519L359.038 343.873ZM327.346 386.054C317.199 396.821 310.087 405.902 306.318 413.218L313.662 417.001C316.886 410.743 323.348 402.342 333.358 391.719L327.346 386.054ZM306.343 413.172C302.522 420.363 300.615 428.126 300.615 436.397H308.876C308.876 429.448 310.465 423.019 313.638 417.048L306.343 413.172ZM300.615 436.397V441.024H308.876V436.397H300.615ZM304.746 445.155H369.223V436.894H304.746V445.155ZM365.093 441.024V471.875H373.354V441.024H365.093ZM369.223 467.744H271.119V476.005H369.223V467.744ZM275.249 471.875V448.428H266.988V471.875H275.249ZM405.439 461.077L402.386 463.859L402.402 463.877L402.419 463.895L405.439 461.077ZM392.79 403.695V399.565H388.66V403.695H392.79ZM424.875 403.695H429.005V399.565H424.875V403.695ZM455.417 438.865L452.244 436.22L452.236 436.23L452.228 436.239L455.417 438.865ZM454.8 381.174L451.589 383.773L451.62 383.812L451.653 383.849L454.8 381.174ZM426.417 374.696H422.287V378.826H426.417V374.696ZM426.417 343.845V339.715H422.287V343.845H426.417ZM453.874 338.6L450.953 335.68L450.909 335.724L450.866 335.77L453.874 338.6ZM454.491 288.931L457.588 286.198L457.588 286.198L454.491 288.931ZM425.8 317.931V322.061H429.931V317.931H425.8ZM393.716 317.931H389.585V322.061H393.716V317.931ZM406.364 266.719L403.345 263.9L403.328 263.919L403.311 263.937L406.364 266.719ZM480.406 266.719L477.352 269.501L477.368 269.518L477.384 269.535L480.406 266.719ZM487.193 342.303L490.798 344.317L490.811 344.295L490.823 344.273L487.193 342.303ZM468.991 357.419L467.541 353.552L464.86 354.557V357.419H468.991ZM468.991 358.036H464.86V360.906L467.55 361.907L468.991 358.036ZM488.118 374.079L484.465 376.006L484.465 376.006L488.118 374.079ZM481.023 461.385L478.003 458.567L478.001 458.57L481.023 461.385ZM443.385 470.829C427.491 470.829 416.089 466.435 408.458 458.259L402.419 463.895C412.064 474.229 425.96 479.09 443.385 479.09V470.829ZM408.492 458.295C400.978 450.049 396.921 437.92 396.921 421.28H388.66C388.66 439.192 393.034 453.595 402.386 463.859L408.492 458.295ZM396.921 421.28V403.695H388.66V421.28H396.921ZM392.79 407.825H424.875V399.565H392.79V407.825ZM420.744 403.695V422.822H429.005V403.695H420.744ZM420.744 422.822C420.744 430.383 422.29 436.822 426.086 441.418C430.008 446.165 435.731 448.24 442.459 448.24V439.979C437.464 439.979 434.395 438.505 432.455 436.157C430.391 433.658 429.005 429.453 429.005 422.822H420.744ZM442.459 448.24C449.089 448.24 454.736 446.188 458.605 441.49L452.228 436.239C450.338 438.534 447.347 439.979 442.459 439.979V448.24ZM458.59 441.509C462.642 436.646 464.175 429.012 464.175 419.737H455.914C455.914 428.561 454.361 433.679 452.244 436.22L458.59 441.509ZM464.175 419.737V402.153H455.914V419.737H464.175ZM464.175 402.153C464.175 392.02 462.425 383.768 457.947 378.499L451.653 383.849C454.167 386.807 455.914 392.541 455.914 402.153H464.175ZM458.01 378.575C453.447 372.939 446.362 370.565 437.832 370.565V378.826C444.932 378.826 449.159 380.771 451.589 383.773L458.01 378.575ZM437.832 370.565H426.417V378.826H437.832V370.565ZM430.548 374.696V343.845H422.287V374.696H430.548ZM426.417 347.975H438.757V339.715H426.417V347.975ZM438.757 347.975C446.203 347.975 452.533 346.052 456.882 341.431L450.866 335.77C448.634 338.142 444.886 339.715 438.757 339.715V347.975ZM456.795 341.521C461.445 336.871 463.249 329.65 463.249 321.016H454.988C454.988 328.835 453.296 333.337 450.953 335.68L456.795 341.521ZM463.249 321.016V305.282H454.988V321.016H463.249ZM463.249 305.282C463.249 297.432 461.635 290.784 457.588 286.198L451.394 291.664C453.518 294.071 454.988 298.323 454.988 305.282H463.249ZM457.588 286.198C453.633 281.716 448.341 279.556 442.151 279.556V287.817C446.244 287.817 449.179 289.154 451.394 291.664L457.588 286.198ZM442.151 279.556C435.816 279.556 430.397 281.539 426.687 286.09C423.108 290.478 421.67 296.6 421.67 303.739H429.931C429.931 297.51 431.217 293.605 433.089 291.31C434.829 289.176 437.585 287.817 442.151 287.817V279.556ZM421.67 303.739V317.931H429.931V303.739H421.67ZM425.8 313.8H393.716V322.061H425.8V313.8ZM397.846 317.931V306.516H389.585V317.931H397.846ZM397.846 306.516C397.846 289.875 401.904 277.747 409.418 269.501L403.311 263.937C393.96 274.201 389.585 288.604 389.585 306.516H397.846ZM409.384 269.537C417.044 261.33 428.162 256.966 443.385 256.966V248.706C426.523 248.706 412.961 253.597 403.345 263.9L409.384 269.537ZM443.385 256.966C458.837 256.966 469.919 261.342 477.352 269.501L483.459 263.937C474.027 253.585 460.429 248.706 443.385 248.706V256.966ZM477.384 269.535C484.863 277.561 488.924 289.559 488.924 306.207H497.185C497.185 288.303 492.813 273.975 483.427 263.903L477.384 269.535ZM488.924 306.207V313.92H497.185V306.207H488.924ZM488.924 313.92C488.924 325.233 487.031 333.943 483.563 340.332L490.823 344.273C495.17 336.265 497.185 326.053 497.185 313.92H488.924ZM483.587 340.288C480.203 346.343 474.947 350.774 467.541 353.552L470.441 361.287C479.488 357.894 486.367 352.248 490.798 344.317L483.587 340.288ZM464.86 357.419V358.036H473.121V357.419H464.86ZM467.55 361.907C475.573 364.892 481.092 369.615 484.465 376.006L491.771 372.151C487.329 363.734 480.097 357.762 470.431 354.165L467.55 361.907ZM484.465 376.006C487.964 382.635 489.849 391.376 489.849 402.461H498.11C498.11 390.511 496.088 380.33 491.771 372.151L484.465 376.006ZM489.849 402.461V421.588H498.11V402.461H489.849ZM489.849 421.588C489.849 438.205 485.701 450.319 478.003 458.567L484.042 464.204C493.62 453.941 498.11 439.524 498.11 421.588H489.849ZM478.001 458.57C470.593 466.52 459.312 470.829 443.385 470.829V479.09C460.777 479.09 474.587 474.35 484.044 464.201L478.001 458.57Z" fill="#F7B457"/>
<path d="M263.119 443.428C263.119 428.003 265.587 414.84 270.523 403.94C275.459 392.833 284.303 380.596 297.054 367.228C309.6 353.859 318.238 342.444 322.969 332.983C327.905 323.523 330.373 313.65 330.373 303.367C330.373 294.112 328.83 287.736 325.745 284.24C322.866 280.538 318.547 278.687 312.788 278.687C301.065 278.687 295.203 285.782 295.203 299.973V323.111H263.119V302.133C263.119 284.651 267.438 271.282 276.076 262.027C284.714 252.566 297.26 247.836 313.713 247.836C330.167 247.836 342.713 252.566 351.351 262.027C359.989 271.282 364.308 284.651 364.308 302.133C364.308 315.296 361.12 328.15 354.745 340.696C348.575 353.242 337.777 367.639 322.352 383.887C312.274 394.582 305.487 403.323 301.99 410.11C298.494 416.691 296.746 423.787 296.746 431.397V436.024H361.223V466.875H263.119V443.428ZM435.385 469.96C418.726 469.96 406.077 465.332 397.439 456.077C389.006 446.822 384.79 433.556 384.79 416.28V398.695H416.875V417.822C416.875 432.014 422.736 439.109 434.459 439.109C440.218 439.109 444.537 437.361 447.417 433.865C450.502 430.163 452.044 423.787 452.044 414.737V397.153C452.044 387.28 450.296 380.288 446.8 376.174C443.303 371.855 437.647 369.696 429.832 369.696H418.417V338.845H430.757C437.545 338.845 442.583 337.097 445.874 333.6C449.371 330.104 451.119 324.242 451.119 316.016V300.282C451.119 292.878 449.576 287.428 446.491 283.931C443.406 280.435 439.293 278.687 434.151 278.687C423.25 278.687 417.8 285.371 417.8 298.739V312.931H385.716V301.516C385.716 284.24 389.932 270.974 398.364 261.719C407.002 252.464 419.343 247.836 435.385 247.836C451.633 247.836 463.973 252.464 472.406 261.719C480.838 270.768 485.054 283.931 485.054 301.207V308.92C485.054 320.643 483.1 330.104 479.193 337.303C475.285 344.295 469.218 349.334 460.991 352.419V353.036C469.835 356.327 476.21 361.674 480.118 369.079C484.026 376.483 485.98 385.943 485.98 397.461V416.588C485.98 433.865 481.661 447.13 473.023 456.385C464.59 465.435 452.044 469.96 435.385 469.96Z" fill="#FFF6E6"/>
<path d="M661.58 323.135L434.204 191.86L411.18 272.047L661.58 416.612V323.135Z" fill="url(#paint8_linear_550_3122)"/>
<path d="M88.5016 427.389L316.041 558.764L339.068 478.577L88.5016 333.912V427.389Z" fill="url(#paint9_linear_550_3122)"/>
</g>
<defs>
<linearGradient id="paint0_linear_550_3122" x1="205.378" y1="402.747" x2="327.081" y2="473.009" gradientUnits="userSpaceOnUse">
<stop stop-color="#1595E7"/>
<stop offset="0.5" stop-color="#52B384"/>
<stop offset="1" stop-color="#F7B457"/>
</linearGradient>
<linearGradient id="paint1_linear_550_3122" x1="249.124" y1="377.575" x2="370.824" y2="447.837" gradientUnits="userSpaceOnUse">
<stop stop-color="#429BCA"/>
<stop offset="0.5" stop-color="#52B384"/>
<stop offset="1" stop-color="#CAAE74"/>
</linearGradient>
<linearGradient id="paint2_linear_550_3122" x1="292.867" y1="352.4" x2="414.568" y2="422.665" gradientUnits="userSpaceOnUse">
<stop stop-color="#6FA1AD"/>
<stop offset="0.5" stop-color="#52B384"/>
<stop offset="1" stop-color="#9DA891"/>
</linearGradient>
<linearGradient id="paint3_linear_550_3122" x1="457.448" y1="397.991" x2="335.747" y2="327.727" gradientUnits="userSpaceOnUse">
<stop stop-color="#6FA1AD"/>
<stop offset="0.5" stop-color="#52B384"/>
<stop offset="1" stop-color="#9DA891"/>
</linearGradient>
<linearGradient id="paint4_linear_550_3122" x1="501.192" y1="372.817" x2="379.49" y2="302.555" gradientUnits="userSpaceOnUse">
<stop stop-color="#429BCA"/>
<stop offset="0.5" stop-color="#52B384"/>
<stop offset="1" stop-color="#CAAE74"/>
</linearGradient>
<linearGradient id="paint5_linear_550_3122" x1="544.699" y1="347.78" x2="423" y2="277.515" gradientUnits="userSpaceOnUse">
<stop stop-color="#1595E7"/>
<stop offset="0.5" stop-color="#52B384"/>
<stop offset="1" stop-color="#F7B457"/>
</linearGradient>
<linearGradient id="paint6_linear_550_3122" x1="88.5016" y1="312.834" x2="323.43" y2="312.834" gradientUnits="userSpaceOnUse">
<stop stop-color="#9F0D47"/>
<stop offset="1" stop-color="#190941"/>
</linearGradient>
<linearGradient id="paint7_linear_550_3122" x1="661.578" y1="437.693" x2="426.649" y2="437.693" gradientUnits="userSpaceOnUse">
<stop stop-color="#9F0D47"/>
<stop offset="1" stop-color="#190941"/>
</linearGradient>
<linearGradient id="paint8_linear_550_3122" x1="661.578" y1="304.238" x2="411.182" y2="304.238" gradientUnits="userSpaceOnUse">
<stop stop-color="#E02D2D"/>
<stop offset="1" stop-color="#FFF873"/>
</linearGradient>
<linearGradient id="paint9_linear_550_3122" x1="88.4995" y1="446.338" x2="339.069" y2="446.338" gradientUnits="userSpaceOnUse">
<stop stop-color="#E02D2D"/>
<stop offset="1" stop-color="#FFF873"/>
</linearGradient>
<clipPath id="clip0_550_3122">
<rect width="750" height="750" fill="white"/>
</clipPath>
</defs>
</svg>
