<svg width="750" height="750" viewBox="0 0 750 750" fill="none" xmlns="http://www.w3.org/2000/svg">
<g clip-path="url(#clip0_550_3122)">
<mask id="mask0_550_3122" style="mask-type:luminance" maskUnits="userSpaceOnUse" x="-16" y="-16" width="782" height="782">
<path d="M-16 -16V766H766V-16H-16ZM126.183 382.761L144.932 371.933L331.504 501.303L126.183 382.761ZM605.184 380.534L418.797 251.289L623.912 369.715L605.18 380.534H605.184Z" fill="white"/>
</mask>
<g mask="url(#mask0_550_3122)">
<path d="M306.492 231.685L329.281 152.347L312.574 161.992L145.237 744.711L157.814 751.975L173.657 742.828L318.45 238.588L306.492 231.685Z" fill="url(#paint0_linear_550_3122)"/>
<path d="M215.218 705.661L210.683 721.457L226.694 712.211L375.978 192.342L363.895 185.37L382.146 121.825L365.615 131.371L202.765 698.47L215.218 705.661Z" fill="url(#paint1_linear_550_3122)"/>
<path d="M272.621 659.347L263.548 690.935L279.735 681.586L433.373 146.548L421.166 139.503L435.015 91.3025L418.651 100.746L260.289 652.229L272.621 659.347Z" fill="url(#paint2_linear_550_3122)"/>
<path d="M329.131 613.093L315.368 661.014L331.727 651.567L490.157 99.8603L477.826 92.7466L486.835 61.382L470.648 70.7265L316.928 606.048L329.131 613.093Z" fill="url(#paint3_linear_550_3122)"/>
<path d="M386.551 566.719L368.232 630.492L384.768 620.946L547.681 53.6194L535.229 46.4326L539.699 30.8599L523.688 40.1056L374.469 559.747L386.551 566.719Z" fill="url(#paint4_linear_550_3122)"/>
<path d="M443.603 520.791L420.813 600.129L437.521 590.484L604.857 7.76525L592.28 0.505447L576.441 9.6479L431.645 513.893L443.603 520.791Z" fill="url(#paint5_linear_550_3122)"/>
</g>
<path d="M312.574 161.992L28.1863 326.182V439.339L258.721 306.238L312.574 161.992Z" fill="url(#paint6_linear_550_3122)"/>
<path d="M437.521 590.484L721.912 426.294V313.137L491.374 446.238L437.521 590.484Z" fill="url(#paint7_linear_550_3122)"/>
<g filter="url(#filter0_d_550_3122)">
<path d="M239.565 458.229C239.565 439.556 242.552 423.622 248.528 410.427C254.503 396.982 265.208 382.169 280.645 365.986C295.832 349.803 306.288 335.985 312.015 324.532C317.99 313.08 320.978 301.129 320.978 288.681C320.978 277.477 319.11 269.759 315.376 265.527C311.89 261.045 306.662 258.804 299.691 258.804C285.499 258.804 278.404 267.394 278.404 284.573V312.582H239.565V287.187C239.565 266.025 244.793 249.842 255.25 238.638C265.706 227.185 280.894 221.459 300.811 221.459C320.729 221.459 335.916 227.185 346.372 238.638C356.829 249.842 362.057 266.025 362.057 287.187C362.057 303.121 358.198 318.682 350.48 333.869C343.011 349.056 329.94 366.484 311.268 386.152C299.068 399.099 290.852 409.68 286.62 417.896C282.387 425.863 280.271 434.452 280.271 443.664V449.266H358.323V486.611H239.565V458.229ZM448.098 490.346C427.931 490.346 412.62 484.744 402.163 473.54C391.955 462.337 386.851 446.278 386.851 425.365V404.078H425.69V427.232C425.69 444.411 432.786 453 446.977 453C453.948 453 459.177 450.884 462.662 446.652C466.397 442.17 468.264 434.452 468.264 423.497V402.211C468.264 390.26 466.148 381.795 461.915 376.816C457.683 371.587 450.836 368.973 441.375 368.973H427.558V331.628H442.496C450.712 331.628 456.812 329.512 460.795 325.279C465.028 321.047 467.144 313.951 467.144 303.992V284.946C467.144 275.983 465.276 269.386 461.542 265.153C457.807 260.921 452.828 258.804 446.604 258.804C433.408 258.804 426.811 266.896 426.811 283.079V300.258H387.972V286.44C387.972 265.527 393.075 249.468 403.283 238.265C413.74 227.061 428.678 221.459 448.098 221.459C467.766 221.459 482.704 227.061 492.912 238.265C503.12 249.219 508.224 265.153 508.224 286.067V295.403C508.224 309.594 505.858 321.047 501.128 329.761C496.398 338.226 489.053 344.325 479.094 348.06V348.807C489.8 352.79 497.518 359.263 502.248 368.226C506.979 377.189 509.344 388.642 509.344 402.584V425.738C509.344 446.652 504.116 462.71 493.659 473.914C483.451 484.868 468.264 490.346 448.098 490.346Z" fill="#383336"/>
</g>
<path d="M721.913 313.137L446.667 154.225L418.797 251.293L721.913 426.294V313.137Z" fill="url(#paint8_linear_550_3122)"/>
<path d="M28.1863 439.339L303.629 598.371L331.503 501.303L28.1863 326.182V439.339Z" fill="url(#paint9_linear_550_3122)"/>
</g>
<defs>
<filter id="filter0_d_550_3122" x="209.565" y="201.459" width="329.779" height="328.887" filterUnits="userSpaceOnUse" color-interpolation-filters="sRGB">
<feFlood flood-opacity="0" result="BackgroundImageFix"/>
<feColorMatrix in="SourceAlpha" type="matrix" values="0 0 0 0 0 0 0 0 0 0 0 0 0 0 0 0 0 0 127 0" result="hardAlpha"/>
<feOffset dy="10"/>
<feGaussianBlur stdDeviation="15"/>
<feComposite in2="hardAlpha" operator="out"/>
<feColorMatrix type="matrix" values="0 0 0 0 1 0 0 0 0 1 0 0 0 0 1 0 0 0 1 0"/>
<feBlend mode="normal" in2="BackgroundImageFix" result="effect1_dropShadow_550_3122"/>
<feBlend mode="normal" in="SourceGraphic" in2="effect1_dropShadow_550_3122" result="shape"/>
</filter>
<linearGradient id="paint0_linear_550_3122" x1="169.669" y1="409.509" x2="316.992" y2="494.563" gradientUnits="userSpaceOnUse">
<stop stop-color="#1595E7"/>
<stop offset="0.5" stop-color="#52B384"/>
<stop offset="1" stop-color="#F7B457"/>
</linearGradient>
<linearGradient id="paint1_linear_550_3122" x1="222.623" y1="379.037" x2="369.944" y2="464.092" gradientUnits="userSpaceOnUse">
<stop stop-color="#429BCA"/>
<stop offset="0.5" stop-color="#52B384"/>
<stop offset="1" stop-color="#CAAE74"/>
</linearGradient>
<linearGradient id="paint2_linear_550_3122" x1="275.576" y1="348.563" x2="422.898" y2="433.62" gradientUnits="userSpaceOnUse">
<stop stop-color="#6FA1AD"/>
<stop offset="0.5" stop-color="#52B384"/>
<stop offset="1" stop-color="#9DA891"/>
</linearGradient>
<linearGradient id="paint3_linear_550_3122" x1="474.805" y1="403.751" x2="327.483" y2="318.695" gradientUnits="userSpaceOnUse">
<stop stop-color="#6FA1AD"/>
<stop offset="0.5" stop-color="#52B384"/>
<stop offset="1" stop-color="#9DA891"/>
</linearGradient>
<linearGradient id="paint4_linear_550_3122" x1="527.759" y1="373.278" x2="380.435" y2="288.224" gradientUnits="userSpaceOnUse">
<stop stop-color="#429BCA"/>
<stop offset="0.5" stop-color="#52B384"/>
<stop offset="1" stop-color="#CAAE74"/>
</linearGradient>
<linearGradient id="paint5_linear_550_3122" x1="580.425" y1="342.971" x2="433.106" y2="257.912" gradientUnits="userSpaceOnUse">
<stop stop-color="#1595E7"/>
<stop offset="0.5" stop-color="#52B384"/>
<stop offset="1" stop-color="#F7B457"/>
</linearGradient>
<linearGradient id="paint6_linear_550_3122" x1="28.1863" y1="300.668" x2="312.574" y2="300.668" gradientUnits="userSpaceOnUse">
<stop stop-color="#9F0D47"/>
<stop offset="1" stop-color="#190941"/>
</linearGradient>
<linearGradient id="paint7_linear_550_3122" x1="721.91" y1="451.812" x2="437.522" y2="451.812" gradientUnits="userSpaceOnUse">
<stop stop-color="#9F0D47"/>
<stop offset="1" stop-color="#190941"/>
</linearGradient>
<linearGradient id="paint8_linear_550_3122" x1="721.91" y1="290.261" x2="418.799" y2="290.261" gradientUnits="userSpaceOnUse">
<stop stop-color="#E02D2D"/>
<stop offset="1" stop-color="#FFF873"/>
</linearGradient>
<linearGradient id="paint9_linear_550_3122" x1="28.1838" y1="462.278" x2="331.505" y2="462.278" gradientUnits="userSpaceOnUse">
<stop stop-color="#E02D2D"/>
<stop offset="1" stop-color="#FFF873"/>
</linearGradient>
<clipPath id="clip0_550_3122">
<rect width="750" height="750" fill="white"/>
</clipPath>
</defs>
</svg>
