<svg width="750" height="750" viewBox="0 0 750 750" fill="none" xmlns="http://www.w3.org/2000/svg">
<g clip-path="url(#clip0_105_395)">
<g opacity="0.9" filter="url(#filter0_d_105_395)">
<path d="M374.973 374.561L67.9467 197.299V551.823L374.973 729.084V374.561Z" fill="url(#paint0_linear_105_395)"/>
<path d="M67.9465 197.3L374.973 374.562L682 197.3L374.973 20.0376L67.9465 197.3Z" fill="url(#paint1_linear_105_395)"/>
<path d="M374.972 729.084L681.999 551.823V197.299L374.972 374.561V729.084Z" fill="url(#paint2_linear_105_395)"/>
</g>
<path d="M374.952 26.4632L676.8 200.735V549.282L374.952 723.554L73.1035 549.282V200.736L374.952 26.4632Z" stroke="black" stroke-opacity="0.3" stroke-width="10"/>
<path d="M182 521.773C182 495.056 186.275 472.257 194.824 453.377C203.374 434.141 218.691 412.945 240.778 389.79C262.507 366.635 277.469 346.865 285.662 330.478C294.212 314.092 298.486 296.993 298.486 279.182C298.486 263.151 295.815 252.108 290.471 246.052C285.484 239.64 278.003 236.434 268.029 236.434C247.724 236.434 237.572 248.724 237.572 273.304V313.379H182V277.044C182 246.765 189.481 223.61 204.442 207.58C219.404 191.193 241.134 183 269.632 183C298.13 183 319.86 191.193 334.822 207.58C349.783 223.61 357.264 246.765 357.264 277.044C357.264 299.843 351.743 322.107 340.699 343.837C330.013 365.567 311.311 390.503 284.594 418.645C267.138 437.169 255.383 452.308 249.327 464.064C243.271 475.463 240.243 487.753 240.243 500.933V508.948H351.921V562.383H182V521.773Z" fill="#FFF6E6"/>
<path d="M480.371 567.726C451.517 567.726 429.609 559.711 414.647 543.681C400.042 527.65 392.739 504.674 392.739 474.751V444.293H448.311V477.422C448.311 502.002 458.463 514.292 478.768 514.292C488.743 514.292 496.224 511.264 501.211 505.208C506.554 498.796 509.226 487.753 509.226 472.079V441.621C509.226 424.522 506.198 412.411 500.142 405.286C494.086 397.805 484.29 394.065 470.753 394.065H450.983V340.631H472.356C484.112 340.631 492.839 337.603 498.539 331.547C504.595 325.491 507.623 315.339 507.623 301.09V273.838C507.623 261.014 504.951 251.574 499.608 245.518C494.264 239.462 487.14 236.434 478.234 236.434C459.354 236.434 449.914 248.012 449.914 271.166V295.746H394.342V275.975C394.342 246.052 401.645 223.076 416.25 207.045C431.212 191.015 452.586 183 480.371 183C508.513 183 529.887 191.015 544.492 207.045C559.098 222.719 566.4 245.518 566.4 275.441V288.8C566.4 309.105 563.016 325.491 556.248 337.959C549.48 350.071 538.971 358.798 524.722 364.142V365.211C540.04 370.91 551.083 380.172 557.851 392.996C564.619 405.82 568.003 422.207 568.003 442.156V475.285C568.003 505.208 560.523 528.185 545.561 544.215C530.956 559.889 509.226 567.726 480.371 567.726Z" fill="#FFF6E6"/>
<path d="M281.451 328.281L281.432 328.317L281.414 328.354C273.525 344.132 258.93 363.505 237.327 386.525C215.052 409.88 199.344 431.518 190.49 451.433C181.598 471.076 177.25 494.575 177.25 521.773V562.383V567.133H182H351.921H356.671V562.383V508.948V504.198H351.921H244.993V500.933C244.993 488.513 247.838 476.99 253.522 466.292L253.536 466.266L253.55 466.239C259.292 455.093 270.671 440.346 288.045 421.908C314.904 393.616 333.96 368.293 344.948 345.962C356.297 323.621 362.014 300.632 362.014 277.044C362.014 246.036 354.351 221.555 338.312 204.358C322.211 186.736 299.051 178.25 269.632 178.25C240.213 178.25 217.053 186.736 200.952 204.358C184.913 221.555 177.25 246.036 177.25 277.044V313.379V318.129H182H237.572H242.322V313.379V273.304C242.322 261.549 244.768 253.616 248.848 248.677C252.785 243.911 258.873 241.184 268.029 241.184C276.908 241.184 282.84 243.977 286.722 248.969L286.812 249.085L286.91 249.195C291.024 253.858 293.736 263.333 293.736 279.182C293.736 296.199 289.66 312.547 281.451 328.281ZM411.136 546.88L411.155 546.901L411.175 546.922C427.295 564.193 450.637 572.476 480.371 572.476C510.066 572.476 533.25 564.393 549.034 547.456C565.076 530.268 572.753 505.966 572.753 475.285V442.156C572.753 421.71 569.291 404.495 562.052 390.779C556.074 379.454 547.053 370.756 535.204 364.643C546.074 358.896 554.525 350.779 560.394 340.276L560.409 340.251L560.422 340.225C567.696 326.826 571.15 309.576 571.15 288.8V275.441C571.15 244.807 563.675 220.676 547.985 203.826C532.231 186.548 509.417 178.25 480.371 178.25C451.643 178.25 428.865 186.569 412.778 203.804L412.758 203.825L412.739 203.846C397.077 221.036 389.592 245.321 389.592 275.975V295.746V300.496H394.342H449.914H454.664V295.746V271.166C454.664 260.113 456.937 252.704 460.675 248.119C464.263 243.719 469.811 241.184 478.234 241.184C485.934 241.184 491.703 243.739 496.046 248.661C500.284 253.463 502.873 261.526 502.873 273.838V301.09C502.873 314.87 499.909 323.459 495.18 328.188L495.129 328.239L495.08 328.292C490.597 333.054 483.355 335.881 472.356 335.881H450.983H446.233V340.631V394.065V398.815H450.983H470.753C483.468 398.815 491.621 402.309 496.45 408.275L496.486 408.319L496.523 408.363C501.449 414.158 504.476 424.822 504.476 441.621V472.079C504.476 487.493 501.792 497.09 497.562 502.167L497.553 502.178L497.544 502.188C493.695 506.862 487.741 509.542 478.768 509.542C469.613 509.542 463.524 506.815 459.587 502.049C455.507 497.11 453.061 489.177 453.061 477.422V444.293V439.543H448.311H392.739H387.989V444.293V474.751C387.989 505.405 395.474 529.69 411.136 546.88Z" stroke="#261236" stroke-opacity="0.5" stroke-width="9.5"/>
</g>
<defs>
<filter id="filter0_d_105_395" x="14.4576" y="-33.4513" width="721.031" height="816.025" filterUnits="userSpaceOnUse" color-interpolation-filters="sRGB">
<feFlood flood-opacity="0" result="BackgroundImageFix"/>
<feColorMatrix in="SourceAlpha" type="matrix" values="0 0 0 0 0 0 0 0 0 0 0 0 0 0 0 0 0 0 127 0" result="hardAlpha"/>
<feOffset/>
<feGaussianBlur stdDeviation="26.7445"/>
<feComposite in2="hardAlpha" operator="out"/>
<feColorMatrix type="matrix" values="0 0 0 0 0.760157 0 0 0 0 0.278431 0 0 0 0 0.929412 0 0 0 0.5 0"/>
<feBlend mode="normal" in2="BackgroundImageFix" result="effect1_dropShadow_105_395"/>
<feBlend mode="normal" in="SourceGraphic" in2="effect1_dropShadow_105_395" result="shape"/>
</filter>
<linearGradient id="paint0_linear_105_395" x1="67.9465" y1="551.823" x2="415.418" y2="354.858" gradientUnits="userSpaceOnUse">
<stop stop-color="#E9DCFF"/>
<stop offset="0.25" stop-color="#BD95FF"/>
<stop offset="0.5" stop-color="#A17AE0"/>
<stop offset="0.75" stop-color="#6A499D"/>
<stop offset="1" stop-color="#604B81"/>
</linearGradient>
<linearGradient id="paint1_linear_105_395" x1="-24.8261" y1="453.314" x2="78.8089" y2="-162.815" gradientUnits="userSpaceOnUse">
<stop stop-color="#491D90"/>
<stop offset="0.25" stop-color="#A17AE0"/>
<stop offset="0.5" stop-color="#AD84EF"/>
<stop offset="0.75" stop-color="#FFB5F3"/>
<stop offset="1" stop-color="#DCC7FF"/>
</linearGradient>
<linearGradient id="paint2_linear_105_395" x1="156.302" y1="685.121" x2="779.459" y2="333.655" gradientUnits="userSpaceOnUse">
<stop stop-color="#815CBF"/>
<stop offset="0.25" stop-color="#BD95FF"/>
<stop offset="0.505208" stop-color="#CAAAFF"/>
<stop offset="0.78125" stop-color="#BD95FF"/>
<stop offset="1" stop-color="#FFB5F3"/>
</linearGradient>
<clipPath id="clip0_105_395">
<rect width="750" height="750" fill="white"/>
</clipPath>
</defs>
</svg>
