<svg width="750" height="750" viewBox="0 0 750 750" fill="none" xmlns="http://www.w3.org/2000/svg">
<g clip-path="url(#clip0_1851_193)">
<g opacity="0.9" filter="url(#filter0_d_1851_193)">
<path d="M375 374.5L68.0001 197.25V551.751L375 729V374.5Z" fill="url(#paint0_linear_1851_193)"/>
<path d="M68 197.25L375 374.501L682 197.25L375 20L68 197.25Z" fill="url(#paint1_linear_1851_193)"/>
<path d="M374.999 729L681.999 551.751V197.25L374.999 374.5V729Z" fill="url(#paint2_linear_1851_193)"/>
</g>
<path d="M676.801 200.734V549.281L374.952 723.553L73.1035 549.281V200.734L374.952 26.4629L676.801 200.734Z" stroke="black" stroke-opacity="0.3" stroke-width="10"/>
<mask id="path-5-outside-1_1851_193" maskUnits="userSpaceOnUse" x="171" y="176" width="409" height="404" fill="black">
<rect fill="white" x="171" y="176" width="409" height="404"/>
<path d="M181.394 524.39C181.394 497.673 185.669 474.874 194.218 455.994C202.768 436.758 218.085 415.562 240.172 392.408C261.901 369.253 276.863 349.482 285.056 333.096C293.606 316.709 297.88 299.61 297.88 281.799C297.88 265.769 295.209 254.726 289.865 248.67C284.878 242.258 277.397 239.052 267.423 239.052C247.118 239.052 236.965 251.341 236.965 275.921V315.997H181.394V279.662C181.394 249.382 188.875 226.227 203.836 210.197C218.798 193.811 240.528 185.617 269.026 185.617C297.524 185.617 319.254 193.811 334.216 210.197C349.177 226.227 356.658 249.382 356.658 279.662C356.658 302.46 351.136 324.724 340.093 346.454C329.407 368.184 310.705 393.12 283.988 421.262C266.532 439.786 254.777 454.926 248.721 466.681C242.665 478.08 239.637 490.37 239.637 503.551V511.566H351.315V565H181.394V524.39ZM482.437 570.343C453.939 570.343 432.209 562.328 417.247 546.298C402.286 529.912 394.805 506.579 394.805 476.299V446.91H450.377V480.574C450.377 504.798 460.529 516.909 480.834 516.909C501.139 516.909 511.291 504.798 511.291 480.574V396.682C511.291 372.103 501.139 359.813 480.834 359.813C460.529 359.813 450.377 372.103 450.377 396.682V399.888H394.805L405.492 190.961H560.451V244.395H457.857L453.048 333.63H454.117C465.16 315.462 482.081 306.379 504.879 306.379C526.253 306.379 542.461 313.681 553.504 328.287C564.548 342.892 570.069 364.088 570.069 391.873V476.299C570.069 506.579 562.588 529.912 547.627 546.298C532.665 562.328 510.935 570.343 482.437 570.343Z"/>
</mask>
<path d="M181.394 524.39C181.394 497.673 185.669 474.874 194.218 455.994C202.768 436.758 218.085 415.562 240.172 392.408C261.901 369.253 276.863 349.482 285.056 333.096C293.606 316.709 297.88 299.61 297.88 281.799C297.88 265.769 295.209 254.726 289.865 248.67C284.878 242.258 277.397 239.052 267.423 239.052C247.118 239.052 236.965 251.341 236.965 275.921V315.997H181.394V279.662C181.394 249.382 188.875 226.227 203.836 210.197C218.798 193.811 240.528 185.617 269.026 185.617C297.524 185.617 319.254 193.811 334.216 210.197C349.177 226.227 356.658 249.382 356.658 279.662C356.658 302.46 351.136 324.724 340.093 346.454C329.407 368.184 310.705 393.12 283.988 421.262C266.532 439.786 254.777 454.926 248.721 466.681C242.665 478.08 239.637 490.37 239.637 503.551V511.566H351.315V565H181.394V524.39ZM482.437 570.343C453.939 570.343 432.209 562.328 417.247 546.298C402.286 529.912 394.805 506.579 394.805 476.299V446.91H450.377V480.574C450.377 504.798 460.529 516.909 480.834 516.909C501.139 516.909 511.291 504.798 511.291 480.574V396.682C511.291 372.103 501.139 359.813 480.834 359.813C460.529 359.813 450.377 372.103 450.377 396.682V399.888H394.805L405.492 190.961H560.451V244.395H457.857L453.048 333.63H454.117C465.16 315.462 482.081 306.379 504.879 306.379C526.253 306.379 542.461 313.681 553.504 328.287C564.548 342.892 570.069 364.088 570.069 391.873V476.299C570.069 506.579 562.588 529.912 547.627 546.298C532.665 562.328 510.935 570.343 482.437 570.343Z" fill="#FFF6E6"/>
<path d="M194.218 455.994L202.872 459.913L202.886 459.883L202.899 459.853L194.218 455.994ZM240.172 392.408L247.046 398.965L247.072 398.937L247.099 398.909L240.172 392.408ZM285.056 333.096L276.634 328.701L276.596 328.774L276.559 328.847L285.056 333.096ZM289.865 248.67L282.366 254.502L282.547 254.734L282.742 254.955L289.865 248.67ZM236.965 315.997V325.497H246.465V315.997H236.965ZM181.394 315.997H171.894V325.497H181.394V315.997ZM203.836 210.197L210.781 216.679L210.817 216.641L210.852 216.603L203.836 210.197ZM334.216 210.197L327.2 216.603L327.235 216.641L327.271 216.679L334.216 210.197ZM340.093 346.454L331.624 342.15L331.596 342.206L331.569 342.262L340.093 346.454ZM283.988 421.262L277.098 414.721L277.086 414.734L277.074 414.747L283.988 421.262ZM248.721 466.681L257.111 471.138L257.139 471.085L257.166 471.032L248.721 466.681ZM239.637 511.566H230.137V521.066H239.637V511.566ZM351.315 511.566H360.815V502.066H351.315V511.566ZM351.315 565V574.5H360.815V565H351.315ZM181.394 565H171.894V574.5H181.394V565ZM181.394 524.39H190.894C190.894 498.649 195.017 477.261 202.872 459.913L194.218 455.994L185.564 452.075C176.321 472.488 171.894 496.697 171.894 524.39H181.394ZM194.218 455.994L202.899 459.853C210.838 441.99 225.362 421.697 247.046 398.965L240.172 392.408L233.297 385.851C210.809 409.427 194.697 431.526 185.537 452.136L194.218 455.994ZM240.172 392.408L247.099 398.909C269.069 375.497 284.755 354.942 293.553 337.344L285.056 333.096L276.559 328.847C268.971 344.023 254.733 363.008 233.244 385.907L240.172 392.408ZM285.056 333.096L293.479 337.49C302.708 319.8 307.38 301.199 307.38 281.799H297.88H288.38C288.38 298.022 284.503 313.619 276.634 328.701L285.056 333.096ZM297.88 281.799H307.38C307.38 265.406 304.791 251.226 296.989 242.384L289.865 248.67L282.742 254.955C285.627 258.225 288.38 266.131 288.38 281.799H297.88ZM289.865 248.67L297.364 242.837C290.167 233.583 279.588 229.552 267.423 229.552V239.052V248.552C275.206 248.552 279.59 250.932 282.366 254.502L289.865 248.67ZM267.423 239.052V229.552C255.277 229.552 244.611 233.315 237.256 242.219C230.187 250.775 227.465 262.561 227.465 275.921H236.965H246.465C246.465 264.701 248.82 258.053 251.904 254.319C254.701 250.933 259.264 248.552 267.423 248.552V239.052ZM236.965 275.921H227.465V315.997H236.965H246.465V275.921H236.965ZM236.965 315.997V306.497H181.394V315.997V325.497H236.965V315.997ZM181.394 315.997H190.894V279.662H181.394H171.894V315.997H181.394ZM181.394 279.662H190.894C190.894 250.863 197.999 230.374 210.781 216.679L203.836 210.197L196.891 203.715C179.75 222.081 171.894 247.901 171.894 279.662H181.394ZM203.836 210.197L210.852 216.603C223.534 202.713 242.391 195.117 269.026 195.117V185.617V176.117C238.664 176.117 214.062 184.908 196.821 203.792L203.836 210.197ZM269.026 185.617V195.117C295.661 195.117 314.518 202.713 327.2 216.603L334.216 210.197L341.231 203.792C323.99 184.908 299.388 176.117 269.026 176.117V185.617ZM334.216 210.197L327.271 216.679C340.052 230.374 347.158 250.863 347.158 279.662H356.658H366.158C366.158 247.901 358.302 222.081 341.161 203.715L334.216 210.197ZM356.658 279.662H347.158C347.158 300.862 342.038 321.659 331.624 342.15L340.093 346.454L348.563 350.758C360.235 327.789 366.158 304.058 366.158 279.662H356.658ZM340.093 346.454L331.569 342.262C321.481 362.772 303.501 386.91 277.098 414.721L283.988 421.262L290.877 427.803C317.908 399.331 337.332 373.596 348.618 350.647L340.093 346.454ZM283.988 421.262L277.074 414.747C259.461 433.437 246.958 449.359 240.276 462.331L248.721 466.681L257.166 471.032C262.596 460.492 273.603 446.135 290.902 427.777L283.988 421.262ZM248.721 466.681L240.331 462.224C233.531 475.026 230.137 488.85 230.137 503.551H239.637H249.137C249.137 491.89 251.8 481.135 257.111 471.138L248.721 466.681ZM239.637 503.551H230.137V511.566H239.637H249.137V503.551H239.637ZM239.637 511.566V521.066H351.315V511.566V502.066H239.637V511.566ZM351.315 511.566H341.815V565H351.315H360.815V511.566H351.315ZM351.315 565V555.5H181.394V565V574.5H351.315V565ZM181.394 565H190.894V524.39H181.394H171.894V565H181.394ZM417.247 546.298L410.232 552.704L410.267 552.742L410.302 552.78L417.247 546.298ZM394.805 446.91V437.41H385.305V446.91H394.805ZM450.377 446.91H459.877V437.41H450.377V446.91ZM450.377 399.888V409.388H459.877V399.888H450.377ZM394.805 399.888L385.317 399.403L384.807 409.388H394.805V399.888ZM405.492 190.961V181.461H396.465L396.004 190.476L405.492 190.961ZM560.451 190.961H569.951V181.461H560.451V190.961ZM560.451 244.395V253.895H569.951V244.395H560.451ZM457.857 244.395V234.895H448.855L448.371 243.884L457.857 244.395ZM453.048 333.63L443.562 333.119L443.022 343.13H453.048V333.63ZM454.117 333.63V343.13H459.46L462.235 338.564L454.117 333.63ZM553.504 328.287L545.927 334.016L545.927 334.016L553.504 328.287ZM547.627 546.298L554.572 552.78L554.607 552.742L554.642 552.704L547.627 546.298ZM482.437 570.343V560.843C455.74 560.843 436.859 553.388 424.192 539.816L417.247 546.298L410.302 552.78C427.559 571.269 452.137 579.843 482.437 579.843V570.343ZM417.247 546.298L424.263 539.892C411.404 525.809 404.305 505.082 404.305 476.299H394.805H385.305C385.305 508.076 393.167 534.014 410.232 552.704L417.247 546.298ZM394.805 476.299H404.305V446.91H394.805H385.305V476.299H394.805ZM394.805 446.91V456.41H450.377V446.91V437.41H394.805V446.91ZM450.377 446.91H440.877V480.574H450.377H459.877V446.91H450.377ZM450.377 480.574H440.877C440.877 493.782 443.609 505.457 450.71 513.928C458.081 522.721 468.734 526.409 480.834 526.409V516.909V507.409C472.629 507.409 468.054 505.042 465.271 501.723C462.22 498.082 459.877 491.59 459.877 480.574H450.377ZM480.834 516.909V526.409C492.934 526.409 503.587 522.721 510.958 513.928C518.059 505.457 520.791 493.782 520.791 480.574H511.291H501.791C501.791 491.59 499.448 498.082 496.397 501.723C493.614 505.042 489.039 507.409 480.834 507.409V516.909ZM511.291 480.574H520.791V396.682H511.291H501.791V480.574H511.291ZM511.291 396.682H520.791C520.791 383.323 518.07 371.536 511.001 362.98C503.646 354.076 492.98 350.313 480.834 350.313V359.813V369.313C488.993 369.313 493.556 371.695 496.353 375.081C499.437 378.814 501.791 385.462 501.791 396.682H511.291ZM480.834 359.813V350.313C468.688 350.313 458.022 354.076 450.667 362.98C443.598 371.536 440.877 383.323 440.877 396.682H450.377H459.877C459.877 385.462 462.231 378.814 465.315 375.081C468.112 371.695 472.675 369.313 480.834 369.313V359.813ZM450.377 396.682H440.877V399.888H450.377H459.877V396.682H450.377ZM450.377 399.888V390.388H394.805V399.888V409.388H450.377V399.888ZM394.805 399.888L404.293 400.374L414.979 191.446L405.492 190.961L396.004 190.476L385.317 399.403L394.805 399.888ZM405.492 190.961V200.461H560.451V190.961V181.461H405.492V190.961ZM560.451 190.961H550.951V244.395H560.451H569.951V190.961H560.451ZM560.451 244.395V234.895H457.857V244.395V253.895H560.451V244.395ZM457.857 244.395L448.371 243.884L443.562 333.119L453.048 333.63L462.534 334.141L467.344 244.906L457.857 244.395ZM453.048 333.63V343.13H454.117V333.63V324.13H453.048V333.63ZM454.117 333.63L462.235 338.564C471.409 323.471 485.108 315.879 504.879 315.879V306.379V296.879C479.053 296.879 458.911 307.454 445.999 328.696L454.117 333.63ZM504.879 306.379V315.879C523.84 315.879 536.994 322.202 545.927 334.016L553.504 328.287L561.082 322.557C547.929 305.161 528.666 296.879 504.879 296.879V306.379ZM553.504 328.287L545.927 334.016C555.225 346.314 560.569 365.142 560.569 391.873H570.069H579.569C579.569 363.033 573.87 339.47 561.082 322.557L553.504 328.287ZM570.069 391.873H560.569V476.299H570.069H579.569V391.873H570.069ZM570.069 476.299H560.569C560.569 505.082 553.47 525.809 540.611 539.892L547.627 546.298L554.642 552.704C571.707 534.014 579.569 508.076 579.569 476.299H570.069ZM547.627 546.298L540.682 539.816C528.015 553.388 509.134 560.843 482.437 560.843V570.343V579.843C512.737 579.843 537.315 571.269 554.572 552.78L547.627 546.298Z" fill="#261236" fill-opacity="0.5" mask="url(#path-5-outside-1_1851_193)"/>
</g>
<defs>
<filter id="filter0_d_1851_193" x="25.6702" y="-22.3298" width="698.66" height="793.66" filterUnits="userSpaceOnUse" color-interpolation-filters="sRGB">
<feFlood flood-opacity="0" result="BackgroundImageFix"/>
<feColorMatrix in="SourceAlpha" type="matrix" values="0 0 0 0 0 0 0 0 0 0 0 0 0 0 0 0 0 0 127 0" result="hardAlpha"/>
<feOffset/>
<feGaussianBlur stdDeviation="21.1649"/>
<feComposite in2="hardAlpha" operator="out"/>
<feColorMatrix type="matrix" values="0 0 0 0 0.278431 0 0 0 0 0.811765 0 0 0 0 0.929412 0 0 0 0.5 0"/>
<feBlend mode="normal" in2="BackgroundImageFix" result="effect1_dropShadow_1851_193"/>
<feBlend mode="normal" in="SourceGraphic" in2="effect1_dropShadow_1851_193" result="shape"/>
</filter>
<linearGradient id="paint0_linear_1851_193" x1="68" y1="551.751" x2="415.445" y2="354.804" gradientUnits="userSpaceOnUse">
<stop stop-color="#FFEB7B"/>
<stop offset="0.25" stop-color="#FFEB54"/>
<stop offset="0.5" stop-color="#F9BE3F"/>
<stop offset="0.75" stop-color="#E2BE30"/>
<stop offset="1" stop-color="#BE6C1A"/>
</linearGradient>
<linearGradient id="paint1_linear_1851_193" x1="-24.7645" y1="453.248" x2="78.8657" y2="-162.84" gradientUnits="userSpaceOnUse">
<stop stop-color="#CEA51D"/>
<stop offset="0.25" stop-color="#EBD35B"/>
<stop offset="0.5" stop-color="#FEEC76"/>
<stop offset="0.75" stop-color="#FFD596"/>
<stop offset="1" stop-color="#FFF99E"/>
</linearGradient>
<linearGradient id="paint2_linear_1851_193" x1="156.348" y1="685.04" x2="779.456" y2="333.608" gradientUnits="userSpaceOnUse">
<stop stop-color="#DED054"/>
<stop offset="0.25" stop-color="#FFF25F"/>
<stop offset="0.505208" stop-color="#FFFD84"/>
<stop offset="0.78125" stop-color="#FFCA70"/>
<stop offset="1" stop-color="#FFFDC8"/>
</linearGradient>
<clipPath id="clip0_1851_193">
<rect width="750" height="750" fill="white"/>
</clipPath>
</defs>
</svg>
