<svg width="1176" height="370" viewBox="0 0 1176 370" fill="none" xmlns="http://www.w3.org/2000/svg">
<g clip-path="url(#clip0_103_352)">
<path d="M78.8454 54.4013L84.393 33.7073H191.328L137.709 232.792H13.836C9.81845 226.447 6.95586 219.441 5.38071 212.098H121.817L164.289 54.4014L78.8454 54.4013ZM184.809 332.293C193.48 332.282 201.907 329.419 208.789 324.147C215.672 318.875 220.628 311.485 222.892 303.119L261.093 161.519C262.483 156.379 265.528 151.84 269.756 148.601C273.984 145.362 279.161 143.603 284.488 143.597H351.489L357.036 122.903H280.254C271.583 122.913 263.156 125.776 256.273 131.048C249.391 136.32 244.435 143.71 242.17 152.076L203.97 293.677C202.579 298.816 199.534 303.356 195.306 306.595C191.078 309.834 185.901 311.592 180.574 311.599H83.519L77.9713 332.293H184.809ZM214.54 140.291L176.34 281.891H91.4828L85.1298 305.59H180.574C184.58 305.585 188.472 304.262 191.651 301.827C194.83 299.392 197.119 295.979 198.165 292.115L236.365 150.514C238.975 140.872 244.686 132.357 252.618 126.281C260.549 120.205 270.261 116.906 280.254 116.894H358.647L365 93.1953H276.019C262.017 93.1953 248.405 97.8095 237.29 106.323C226.176 114.837 218.18 126.776 214.54 140.291V140.291ZM230.132 4H92.3568L86.0039 27.6982H199.172L142.317 238.801H18.1327C24.0808 246.221 31.626 252.205 40.207 256.308C48.788 260.411 58.184 262.527 67.6963 262.5H160.512L230.132 4ZM284.488 149.606C280.483 149.611 276.59 150.933 273.411 153.368C270.232 155.803 267.943 159.216 266.897 163.081L228.697 304.681C226.087 314.323 220.376 322.838 212.445 328.914C204.513 334.991 194.802 338.289 184.809 338.302H76.3604L70.0075 362H189.043C203.046 362 216.658 357.386 227.772 348.872C238.886 340.358 246.882 328.419 250.522 314.904L288.722 173.304H343.525L349.878 149.606L284.488 149.606ZM117.21 206.089L156.445 60.4105H77.2344L70.8816 84.1087H125.484L99.0145 182.391H6.19816V182.391C4.11339 190.107 3.50407 198.147 4.40212 206.089L117.21 206.089Z" fill="#FFF6E6"/>
<path d="M398.539 327.544C398.539 302.244 402.587 280.655 410.683 262.776C418.779 244.56 433.284 224.489 454.199 202.562C474.776 180.635 488.944 161.913 496.703 146.396C504.799 130.879 508.847 114.687 508.847 97.82C508.847 82.64 506.317 72.1827 501.257 66.448C496.534 60.376 489.45 57.34 480.005 57.34C460.777 57.34 451.163 68.978 451.163 92.254V130.204H398.539V95.796C398.539 67.1227 405.623 45.196 419.791 30.016C433.959 14.4987 454.536 6.74 481.523 6.74C508.509 6.74 529.087 14.4987 543.255 30.016C557.423 45.196 564.507 67.1227 564.507 95.796C564.507 117.385 559.278 138.469 548.821 159.046C538.701 179.623 520.991 203.237 495.691 229.886C479.161 247.427 468.029 261.764 462.295 272.896C456.56 283.691 453.693 295.329 453.693 307.81V315.4H559.447V366H398.539V327.544ZM682.602 371.06C655.278 371.06 634.364 363.301 619.858 347.784C605.353 332.267 598.1 310.34 598.1 282.004V95.796C598.1 67.46 605.353 45.5333 619.858 30.016C634.364 14.4987 655.278 6.74 682.602 6.74C709.926 6.74 730.841 14.4987 745.346 30.016C759.852 45.5333 767.104 67.46 767.104 95.796V282.004C767.104 310.34 759.852 332.267 745.346 347.784C730.841 363.301 709.926 371.06 682.602 371.06ZM682.602 320.46C701.83 320.46 711.444 308.822 711.444 285.546V92.254C711.444 68.978 701.83 57.34 682.602 57.34C663.374 57.34 653.76 68.978 653.76 92.254V285.546C653.76 308.822 663.374 320.46 682.602 320.46ZM803.734 327.544C803.734 302.244 807.782 280.655 815.878 262.776C823.974 244.56 838.479 224.489 859.394 202.562C879.971 180.635 894.139 161.913 901.898 146.396C909.994 130.879 914.042 114.687 914.042 97.82C914.042 82.64 911.512 72.1827 906.452 66.448C901.729 60.376 894.645 57.34 885.2 57.34C865.972 57.34 856.358 68.978 856.358 92.254V130.204H803.734V95.796C803.734 67.1227 810.818 45.196 824.986 30.016C839.154 14.4987 859.731 6.74 886.718 6.74C913.705 6.74 934.282 14.4987 948.45 30.016C962.618 45.196 969.702 67.1227 969.702 95.796C969.702 117.385 964.473 138.469 954.016 159.046C943.896 179.623 926.186 203.237 900.886 229.886C884.357 247.427 873.225 261.764 867.49 272.896C861.755 283.691 858.888 295.329 858.888 307.81V315.4H964.642V366H803.734V327.544ZM1006.33 327.544C1006.33 302.244 1010.38 280.655 1018.48 262.776C1026.57 244.56 1041.08 224.489 1061.99 202.562C1082.57 180.635 1096.74 161.913 1104.5 146.396C1112.59 130.879 1116.64 114.687 1116.64 97.82C1116.64 82.64 1114.11 72.1827 1109.05 66.448C1104.33 60.376 1097.24 57.34 1087.8 57.34C1068.57 57.34 1058.96 68.978 1058.96 92.254V130.204H1006.33V95.796C1006.33 67.1227 1013.42 45.196 1027.58 30.016C1041.75 14.4987 1062.33 6.74 1089.32 6.74C1116.3 6.74 1136.88 14.4987 1151.05 30.016C1165.22 45.196 1172.3 67.1227 1172.3 95.796C1172.3 117.385 1167.07 138.469 1156.61 159.046C1146.49 179.623 1128.78 203.237 1103.48 229.886C1086.95 247.427 1075.82 261.764 1070.09 272.896C1064.35 283.691 1061.49 295.329 1061.49 307.81V315.4H1167.24V366H1006.33V327.544Z" fill="#FFF6E6"/>
</g>
<defs>
<clipPath id="clip0_103_352">
<rect width="1176" height="370" fill="white"/>
</clipPath>
</defs>
</svg>
