<svg width="750" height="750" viewBox="0 0 750 750" fill="none" xmlns="http://www.w3.org/2000/svg">
<g clip-path="url(#clip0_1101_65)">
<g opacity="0.9" filter="url(#filter0_d_1101_65)">
<path d="M374.973 375.523L67.9467 198.261V552.785L374.973 730.047V375.523Z" fill="url(#paint0_linear_1101_65)"/>
<path d="M67.9465 198.262L374.973 375.524L682 198.262L374.973 21L67.9465 198.262Z" fill="url(#paint1_linear_1101_65)"/>
<path d="M374.972 730.047L681.999 552.785V198.261L374.972 375.523V730.047Z" fill="url(#paint2_linear_1101_65)"/>
</g>
<path d="M374.952 26.463L676.8 200.735V549.282L374.952 723.553L73.1035 549.282V200.736L374.952 26.463Z" stroke="black" stroke-opacity="0.3" stroke-width="10"/>
<path d="M494.727 497.138H382.515V443.704L489.383 190.96H553.504V443.704H581.29V497.138H553.504V565H494.727V497.138ZM494.727 443.704V297.829H493.658L435.949 443.704H494.727Z" fill="#FFF6E6"/>
<path d="M181.394 524.39C181.394 497.673 185.669 474.874 194.218 455.994C202.768 436.758 218.086 415.562 240.172 392.407C261.902 369.253 276.863 349.482 285.056 333.095C293.606 316.709 297.881 299.61 297.881 281.799C297.881 265.768 295.209 254.725 289.865 248.67C284.878 242.257 277.397 239.051 267.423 239.051C247.118 239.051 236.966 251.341 236.966 275.921V315.997H181.394V279.661C181.394 249.382 188.875 226.227 203.836 210.197C218.798 193.81 240.528 185.617 269.026 185.617C297.524 185.617 319.254 193.81 334.216 210.197C349.177 226.227 356.658 249.382 356.658 279.661C356.658 302.46 351.137 324.724 340.094 346.454C329.407 368.184 310.705 393.12 283.988 421.262C266.532 439.786 254.777 454.925 248.721 466.681C242.665 478.08 239.637 490.37 239.637 503.551V511.566H351.315V565H181.394V524.39Z" fill="#FFF6E6"/>
<path fill-rule="evenodd" clip-rule="evenodd" d="M373.015 506.638V441.778L483.086 181.46H563.004V434.204H590.79V506.638H563.004V574.5H485.227V506.638H373.015ZM494.727 497.138V565H553.504V497.138H581.29V443.704H553.504V190.96H489.383L382.515 443.704V497.138H494.727ZM493.658 297.829L435.949 443.704H494.727V297.829H493.658ZM485.227 344.966L449.924 434.204H485.227V344.966Z" fill="#261236" fill-opacity="0.5"/>
<path fill-rule="evenodd" clip-rule="evenodd" d="M276.596 328.774L276.634 328.701C284.503 313.618 288.381 298.021 288.381 281.799C288.381 266.131 285.627 258.225 282.742 254.955L282.547 254.734L282.367 254.502C279.59 250.932 275.206 248.551 267.423 248.551C259.264 248.551 254.701 250.933 251.904 254.319C248.82 258.053 246.466 264.701 246.466 275.921V325.497H171.894V279.661C171.894 247.923 179.739 222.116 196.856 203.753C214.095 184.896 238.685 176.117 269.026 176.117C299.367 176.117 323.957 184.896 341.196 203.753C358.313 222.116 366.158 247.923 366.158 279.661C366.158 304.038 360.245 327.75 348.591 350.701C337.303 373.634 317.892 399.346 290.888 427.791C273.598 446.142 262.595 460.494 257.166 471.031L257.139 471.085L257.111 471.138C252.026 480.709 249.369 490.975 249.152 502.066H360.815V574.5H171.894V524.39C171.894 496.71 176.316 472.511 185.551 452.105C194.71 431.512 210.808 409.432 233.272 385.877C254.746 362.992 268.975 344.016 276.559 328.847L276.596 328.774ZM240.172 392.407C218.086 415.562 202.768 436.758 194.218 455.994C185.669 474.874 181.394 497.673 181.394 524.39V565H351.315V511.566H239.637V503.551C239.637 503.054 239.642 502.559 239.65 502.066C239.87 489.446 242.893 477.651 248.721 466.681C254.777 454.925 266.532 439.786 283.988 421.262C310.705 393.12 329.407 368.184 340.094 346.454C351.137 324.724 356.658 302.46 356.658 279.661C356.658 249.382 349.177 226.227 334.216 210.197C319.254 193.81 297.524 185.617 269.026 185.617C240.528 185.617 218.798 193.81 203.836 210.197C188.875 226.227 181.394 249.382 181.394 279.661V315.997H236.966V275.921C236.966 251.341 247.118 239.051 267.423 239.051C277.397 239.051 284.878 242.257 289.865 248.67C295.209 254.725 297.881 265.768 297.881 281.799C297.881 299.61 293.606 316.709 285.056 333.095C276.863 349.482 261.902 369.253 240.172 392.407Z" fill="#261236" fill-opacity="0.5"/>
</g>
<defs>
<filter id="filter0_d_1101_65" x="14.4576" y="-32.4889" width="721.031" height="816.025" filterUnits="userSpaceOnUse" color-interpolation-filters="sRGB">
<feFlood flood-opacity="0" result="BackgroundImageFix"/>
<feColorMatrix in="SourceAlpha" type="matrix" values="0 0 0 0 0 0 0 0 0 0 0 0 0 0 0 0 0 0 127 0" result="hardAlpha"/>
<feOffset/>
<feGaussianBlur stdDeviation="26.7445"/>
<feComposite in2="hardAlpha" operator="out"/>
<feColorMatrix type="matrix" values="0 0 0 0 0.278431 0 0 0 0 0.811765 0 0 0 0 0.929412 0 0 0 0.5 0"/>
<feBlend mode="normal" in2="BackgroundImageFix" result="effect1_dropShadow_1101_65"/>
<feBlend mode="normal" in="SourceGraphic" in2="effect1_dropShadow_1101_65" result="shape"/>
</filter>
<linearGradient id="paint0_linear_1101_65" x1="67.9465" y1="552.785" x2="415.418" y2="355.82" gradientUnits="userSpaceOnUse">
<stop stop-color="#FF7BB3"/>
<stop offset="0.25" stop-color="#FF54A6"/>
<stop offset="0.5" stop-color="#F93F98"/>
<stop offset="0.75" stop-color="#E23070"/>
<stop offset="1" stop-color="#BE1A5F"/>
</linearGradient>
<linearGradient id="paint1_linear_1101_65" x1="-24.8261" y1="454.277" x2="78.8089" y2="-161.852" gradientUnits="userSpaceOnUse">
<stop stop-color="#CE1D48"/>
<stop offset="0.25" stop-color="#EB5B7E"/>
<stop offset="0.5" stop-color="#FE7697"/>
<stop offset="0.75" stop-color="#FF96A9"/>
<stop offset="1" stop-color="#FF9EE4"/>
</linearGradient>
<linearGradient id="paint2_linear_1101_65" x1="156.302" y1="686.083" x2="779.459" y2="334.617" gradientUnits="userSpaceOnUse">
<stop stop-color="#DE5496"/>
<stop offset="0.25" stop-color="#FF5FA2"/>
<stop offset="0.505208" stop-color="#FF84B1"/>
<stop offset="0.78125" stop-color="#FF70C6"/>
<stop offset="1" stop-color="#FFC8E6"/>
</linearGradient>
<clipPath id="clip0_1101_65">
<rect width="750" height="750" fill="white"/>
</clipPath>
</defs>
</svg>
