<svg width="750" height="750" viewBox="0 0 750 750" fill="none" xmlns="http://www.w3.org/2000/svg">
<g clip-path="url(#clip0_557_3494)">
<path d="M375.5 411.463C395.633 411.463 411.955 395.137 411.955 374.998C411.955 354.859 395.633 338.533 375.5 338.533C355.367 338.533 339.046 354.859 339.046 374.998C339.046 395.137 355.367 411.463 375.5 411.463Z" fill="#61DAFB"/>
<path d="M375.5 449.709C483.532 449.709 571.109 416.261 571.109 375C571.109 333.74 483.532 300.292 375.5 300.292C267.468 300.292 179.891 333.74 179.891 375C179.891 416.261 267.468 449.709 375.5 449.709Z" stroke="#61DAFB" stroke-width="14.5652"/>
<path d="M310.82 412.355C364.836 505.94 437.583 565.082 473.305 544.452C509.027 523.821 494.197 431.231 440.181 337.646C386.165 244.061 313.418 184.919 277.696 205.549C241.974 226.179 256.804 318.769 310.82 412.355Z" stroke="#61DAFB" stroke-width="14.5652"/>
<path d="M310.82 337.649C256.804 431.235 241.974 523.825 277.696 544.455C313.418 565.085 386.165 505.944 440.181 412.358C494.197 318.773 509.027 226.183 473.305 205.552C437.583 184.922 364.836 244.064 310.82 337.649Z" stroke="#61DAFB" stroke-width="14.5652"/>
</g>
<path d="M375 54.8733L651.999 214.928V535.073L375 695.127L98 535.073V214.928L375 54.8733Z" stroke="#61DAFB" stroke-width="50"/>
<defs>
<clipPath id="clip0_557_3494">
<rect width="409" height="364" fill="white" transform="translate(171 193)"/>
</clipPath>
</defs>
</svg>
