<svg width="750" height="750" viewBox="0 0 750 750" fill="none" xmlns="http://www.w3.org/2000/svg">
<g clip-path="url(#clip0_1939_552)">
<path d="M733 375L554 65H196L17 375L196 685H554L733 375Z" fill="#182C36"/>
<path d="M76.5672 384.762L134.253 385.046C134.217 385.449 134.199 385.852 134.199 386.256H76.5005C76.5005 385.756 76.523 385.253 76.5672 384.762Z" fill="#ED7BFC"/>
<path d="M381.811 316.2C386.039 316.221 390.303 316.262 394.486 316.323L390.883 329.813C387.506 329.764 384.061 329.73 380.641 329.714L381.811 316.2ZM369.14 316.202L370.367 329.715C366.953 329.732 363.504 329.766 360.115 329.817L356.472 316.327C360.661 316.265 364.924 316.223 369.14 316.202ZM407.122 316.57C411.329 316.674 415.567 316.799 419.719 316.943L411.269 330.314C407.923 330.197 404.504 330.096 401.108 330.013L407.122 316.57ZM343.822 316.577L349.909 330.018C346.507 330.103 343.084 330.205 339.735 330.321L331.242 316.953C335.388 316.808 339.621 316.682 343.822 316.577ZM432.232 317.44C436.373 317.626 440.55 317.835 444.648 318.062L431.384 331.216C428.079 331.034 424.709 330.865 421.369 330.715L432.232 317.44ZM318.725 317.453L329.643 330.725C326.305 330.876 322.936 331.045 319.63 331.229L306.31 318.078C310.409 317.85 314.585 317.64 318.725 317.453ZM456.951 318.809C461.009 319.077 465.097 319.369 469.099 319.677L451.083 332.518C447.857 332.269 444.563 332.034 441.29 331.818L456.951 318.809ZM294.018 318.827L309.722 331.833C306.463 332.049 303.171 332.285 299.938 332.535L281.868 319.699C285.88 319.388 289.968 319.095 294.018 318.827ZM481.109 320.669C485.062 321.018 489.036 321.392 492.922 321.781L470.282 334.213C467.149 333.9 463.946 333.598 460.761 333.317L481.109 320.669ZM269.886 320.691L290.291 333.334C287.12 333.615 283.931 333.916 280.811 334.228L258.139 321.799C262.005 321.412 265.956 321.039 269.886 320.691ZM504.518 323.009C508.322 323.435 512.142 323.886 515.873 324.351L488.786 336.285C485.776 335.91 482.695 335.546 479.627 335.203L504.518 323.009ZM246.592 323.024L271.506 335.215C268.447 335.558 265.378 335.921 262.385 336.294L235.276 324.363C238.989 323.9 242.796 323.45 246.592 323.024ZM526.968 325.805C530.6 326.305 534.241 326.831 537.788 327.368L506.469 338.72C503.606 338.286 500.669 337.862 497.739 337.459L526.968 325.805ZM224.219 325.813L253.455 337.465C250.53 337.868 247.601 338.291 244.749 338.723L213.422 327.373C216.959 326.837 220.592 326.312 224.219 325.813ZM548.308 329.036C551.746 329.606 555.18 330.202 558.513 330.806L523.207 341.496C520.513 341.008 517.74 340.527 514.962 340.066L548.308 329.036ZM202.926 329.037L236.266 340.068C233.504 340.526 230.736 341.007 228.038 341.496L192.733 330.805C196.072 330.2 199.501 329.605 202.926 329.037ZM182.872 332.672L220.067 343.005C217.468 343.518 214.882 344.051 212.378 344.59L173.345 334.636C176.447 333.969 179.652 333.308 182.872 332.672ZM568.389 332.675C571.599 333.309 574.802 333.97 577.911 334.639L538.885 344.594C536.369 344.053 533.778 343.519 531.184 343.006L568.389 332.675ZM164.186 336.691L204.971 346.252C202.568 346.814 200.18 347.398 197.873 347.985L155.402 338.836C158.256 338.109 161.212 337.387 164.186 336.691ZM587.077 336.696C590.061 337.395 593.014 338.116 595.855 338.84L553.385 347.989C551.088 347.404 548.699 346.82 546.284 346.255L587.077 336.696ZM147.01 341.067L191.093 349.787C188.89 350.398 186.719 351.027 184.64 351.655L139.027 343.378C141.599 342.6 144.285 341.822 147.01 341.067ZM604.242 341.069C606.958 341.822 609.641 342.599 612.218 343.378L566.606 351.656C564.524 351.027 562.356 350.399 560.162 349.79L604.242 341.069ZM619.77 345.765C622.211 346.571 624.605 347.399 626.886 348.224L578.447 355.568C576.607 354.902 574.676 354.235 572.705 353.584L619.77 345.765ZM131.463 345.768L178.534 353.585C176.56 354.237 174.624 354.906 172.778 355.574L124.339 348.231C126.624 347.403 129.022 346.575 131.463 345.768ZM633.548 350.75C635.681 351.599 637.766 352.47 639.745 353.34L588.83 359.698C587.231 358.996 585.549 358.293 583.826 357.608L633.548 350.75ZM117.659 350.765L167.39 357.618C165.66 358.307 163.973 359.012 162.374 359.716L111.448 353.362C113.429 352.491 115.518 351.617 117.659 350.765ZM645.469 355.99C647.288 356.878 649.049 357.788 650.705 358.693L597.664 364.014C596.33 363.284 594.911 362.551 593.444 361.835L645.469 355.99ZM105.708 356.022L157.75 361.859C156.275 362.581 154.849 363.318 153.515 364.049L100.461 358.736C102.115 357.83 103.881 356.916 105.708 356.022ZM655.443 361.446C656.939 362.371 658.367 363.315 659.687 364.251L604.902 368.492C603.839 367.738 602.688 366.978 601.483 366.232L655.443 361.446ZM95.7107 361.501L149.683 366.28C148.486 367.022 147.335 367.785 146.266 368.545L91.4649 364.316C92.7928 363.371 94.2212 362.425 95.7107 361.501ZM663.415 367.096C664.564 368.045 665.642 369.013 666.619 369.974L610.49 373.106C609.702 372.331 608.833 371.55 607.906 370.785L663.415 367.096ZM87.7489 367.162L143.273 370.837C142.35 371.604 141.483 372.385 140.699 373.159L84.5568 370.041C85.5288 369.081 86.6032 368.112 87.7489 367.162ZM669.297 372.884C670.095 373.85 670.816 374.836 671.441 375.813L614.378 377.815C613.873 377.025 613.291 376.229 612.647 375.449L669.297 372.884ZM81.8926 372.95L138.551 375.504C137.91 376.284 137.332 377.079 136.832 377.868L79.759 375.883C80.3797 374.905 81.0971 373.918 81.8926 372.95ZM673.051 378.764C673.497 379.747 673.859 380.744 674.126 381.727L616.544 382.586C616.328 381.793 616.036 380.988 615.675 380.194L673.051 378.764ZM78.1597 378.834L135.543 380.248C135.186 381.042 134.897 381.849 134.683 382.643L77.0985 381.794C77.3624 380.812 77.7192 379.816 78.1597 378.834Z" fill="#ED7BFC"/>
<path d="M674.675 384.762C674.72 385.26 674.742 385.763 674.742 386.256H617.043C617.043 385.852 617.025 385.449 616.989 385.046L674.675 384.762Z" fill="#ED7BFC"/>
<path d="M224.767 128.009L253.856 177.825C254.187 177.592 254.527 177.376 254.877 177.173L226.028 127.205C225.595 127.455 225.171 127.726 224.767 128.009Z" fill="#ED7BFC"/>
<path d="M329.132 418.87C330.855 421.823 332.607 424.79 334.338 427.69L324.457 437.554C322.313 433.963 320.145 430.291 318.014 426.64L329.132 418.87ZM305.453 404.631L318.957 401.042C320.608 404.002 322.303 407.006 323.995 409.971L311.679 415.665C309.589 412.003 307.494 408.29 305.453 404.631ZM339.624 436.445C341.394 439.344 343.191 442.254 344.964 445.094L337.61 459.097C335.41 455.573 333.182 451.966 330.989 448.375L339.624 436.445ZM293.38 382.469L309.204 383.14C310.778 386.099 312.401 389.115 314.029 392.103L299.345 393.551C297.335 389.861 295.328 386.132 293.38 382.469ZM350.362 453.64C352.162 456.458 353.993 459.292 355.804 462.063L351.044 480.127C348.799 476.691 346.529 473.178 344.298 469.686L350.362 453.64ZM281.889 360.315L299.938 365.275C301.432 368.229 302.97 371.232 304.508 374.198L287.555 371.379C285.647 367.7 283.741 363.979 281.889 360.315ZM361.278 470.341C363.101 473.067 364.952 475.803 366.781 478.472L364.668 500.495C362.4 497.182 360.104 493.789 357.842 490.408L361.278 470.341ZM271.071 338.337L291.223 347.568C292.623 350.493 294.064 353.462 295.507 356.392L276.391 349.295C274.599 345.654 272.809 341.967 271.071 338.337ZM372.312 486.453C374.148 489.071 376.01 491.695 377.848 494.252L378.402 520.075C376.122 516.903 373.811 513.648 371.533 510.4L372.312 486.453ZM261.026 316.737L283.126 330.157C284.415 333.015 285.749 335.927 287.092 338.814L265.94 327.464C264.277 323.887 262.623 320.278 261.026 316.737ZM383.378 501.85C385.209 504.334 387.065 506.82 388.895 509.24L392.103 538.665C389.835 535.666 387.534 532.584 385.263 529.502L383.378 501.85ZM251.815 295.655L275.702 313.166C276.876 315.945 278.095 318.784 279.328 321.606L256.313 306.124C254.784 302.624 253.27 299.102 251.815 295.655ZM394.388 516.407C396.202 518.743 398.037 521.074 399.844 523.337L405.673 556.136C403.435 553.333 401.159 550.442 398.91 547.547L394.388 516.407ZM243.495 275.224L268.988 296.679C270.04 299.365 271.138 302.113 272.251 304.847L247.542 285.354C246.161 281.963 244.799 278.555 243.495 275.224ZM405.257 530.019C407.045 532.194 408.848 534.355 410.618 536.444L419.013 572.366C416.823 569.78 414.591 567.105 412.377 564.413L405.257 530.019ZM236.122 255.591L263.033 280.82C263.959 283.401 264.927 286.039 265.911 288.66L239.688 265.302C238.467 262.052 237.268 258.784 236.122 255.591ZM229.746 236.885L257.883 265.711C258.668 268.149 259.5 270.655 260.354 273.162L232.809 246.118C231.749 243.011 230.719 239.905 229.746 236.885ZM415.914 542.597C417.655 544.588 419.413 546.565 421.14 548.473L432.031 587.248C429.898 584.89 427.724 582.446 425.57 579.984L415.914 542.597ZM224.412 219.246L253.57 251.452C254.215 253.744 254.904 256.104 255.619 258.466L226.946 227.925C226.062 225.001 225.209 222.081 224.412 219.246ZM426.278 554.05C427.975 555.858 429.675 557.636 431.33 559.333L444.642 600.688C442.595 598.589 440.493 596.392 438.396 594.158L426.278 554.05ZM220.158 202.794L250.133 238.156C250.628 240.271 251.169 242.466 251.741 244.68L222.147 210.862C221.44 208.125 220.77 205.41 220.158 202.794ZM436.278 564.301C437.903 565.897 439.53 567.46 441.116 568.948L456.754 612.589C454.791 610.747 452.776 608.812 450.765 606.836L436.278 564.301ZM445.835 573.267C447.384 574.648 448.928 575.987 450.425 577.247L468.284 622.869C466.429 621.306 464.515 619.647 462.596 617.936L445.835 573.267ZM217.016 187.646L247.596 225.924C247.94 227.857 248.328 229.869 248.75 231.904L218.446 195.048C217.924 192.53 217.442 190.04 217.016 187.646ZM454.881 580.886C456.335 582.035 457.786 583.141 459.193 584.174L479.144 631.447C477.401 630.168 475.604 628.798 473.803 627.375L454.881 580.886ZM215.015 173.918L245.98 214.844C246.17 216.58 246.403 218.394 246.672 220.237L215.871 180.595C215.538 178.315 215.251 176.068 215.015 173.918ZM463.35 587.102C464.704 588.014 466.049 588.877 467.348 589.667L489.26 638.262C487.648 637.281 485.98 636.21 484.301 635.079L463.35 587.102ZM214.175 161.715L245.303 205.005C245.337 206.526 245.412 208.129 245.524 209.768L214.449 167.617C214.309 165.587 214.217 163.601 214.175 161.715ZM471.179 591.865C472.427 592.536 473.66 593.152 474.844 593.696L498.565 643.262C497.094 642.587 495.562 641.822 494.013 640.989L471.179 591.865ZM214.509 151.135L245.573 196.479C245.449 197.785 245.364 199.163 245.32 200.571L214.195 156.219C214.25 154.467 214.356 152.757 214.509 151.135ZM478.332 595.151C479.458 595.571 480.57 595.934 481.635 596.229L506.986 646.404C505.666 646.038 504.289 645.589 502.892 645.068L478.332 595.151ZM216.014 142.289L246.785 189.35C246.506 190.417 246.263 191.558 246.061 192.741L215.117 146.493C215.366 145.026 215.668 143.611 216.014 142.289ZM484.742 596.925C485.74 597.092 486.72 597.199 487.657 597.241L514.454 647.659C513.296 647.607 512.082 647.475 510.846 647.268L484.742 596.925ZM218.674 135.213L248.93 183.648C248.497 184.475 248.097 185.373 247.742 186.318L217.201 138.528C217.641 137.355 218.137 136.24 218.674 135.213ZM490.365 597.175C491.233 597.09 492.076 596.941 492.872 596.731L520.919 647.029C519.933 647.288 518.889 647.474 517.815 647.579L490.365 597.175ZM222.462 129.954L251.99 179.399C251.409 179.981 250.856 180.635 250.346 181.341L220.43 132.352C221.06 131.48 221.744 130.674 222.462 129.954Z" fill="#ED7BFC"/>
<path d="M523.821 645.986C524.275 645.776 524.722 645.545 525.149 645.298L496.3 595.329C495.949 595.531 495.591 595.716 495.225 595.887L523.821 645.986Z" fill="#ED7BFC"/>
<path d="M523.822 126.477L495.226 176.576C495.592 176.746 495.95 176.932 496.3 177.135L525.149 127.166C524.716 126.916 524.27 126.684 523.822 126.477Z" fill="#ED7BFC"/>
<path d="M324.112 362.289C322.416 365.258 320.722 368.259 319.077 371.208L305.593 367.583C307.631 363.93 309.727 360.217 311.824 356.546L324.112 362.289ZM324.603 334.664L334.464 344.564C332.726 347.473 330.972 350.443 329.25 353.391L318.161 345.573C320.287 341.931 322.455 338.261 324.603 334.664ZM314.137 380.163C312.512 383.146 310.89 386.157 309.317 389.113L293.513 389.745C295.464 386.078 297.475 382.345 299.488 378.65L314.137 380.163ZM337.76 313.127L345.091 327.166C343.315 330.009 341.515 332.923 339.742 335.826L331.145 323.834C333.336 320.248 335.561 316.646 337.76 313.127ZM304.615 398.06C303.074 401.028 301.536 404.031 300.041 406.985L282.018 411.895C283.87 408.232 285.778 404.51 287.687 400.831L304.615 398.06ZM351.201 292.098L355.93 310.209C354.118 312.98 352.286 315.814 350.487 318.629L344.452 302.537C346.683 299.046 348.954 295.534 351.201 292.098ZM295.609 415.864C294.16 418.806 292.717 421.777 291.319 424.695L271.191 433.877C272.925 430.257 274.716 426.571 276.513 422.922L295.609 415.864ZM364.825 271.741L366.906 293.808C365.073 296.483 363.223 299.216 361.406 301.93L357.995 281.827C360.252 278.454 362.55 275.061 364.825 271.741ZM287.173 433.476C285.823 436.375 284.483 439.3 283.187 442.17L261.101 455.56C262.707 452.001 264.371 448.372 266.045 444.774L287.173 433.476ZM378.508 252.241L377.936 278.09C376.106 280.636 374.251 283.247 372.422 285.854L371.675 261.861C373.942 258.631 376.24 255.395 378.508 252.241ZM279.372 450.758C278.136 453.586 276.911 456.436 275.731 459.23L251.852 476.722C253.315 473.258 254.834 469.724 256.367 466.216L279.372 450.758ZM392.16 233.724L388.939 263.166C387.119 265.571 385.27 268.048 383.443 270.526L385.343 242.854C387.609 239.779 389.903 236.707 392.16 233.724ZM272.27 467.571C271.154 470.31 270.053 473.065 268.997 475.762L243.507 497.209C244.815 493.869 246.18 490.453 247.563 487.057L272.27 467.571ZM405.694 216.302L399.86 249.108C398.06 251.362 396.229 253.687 394.418 256.018L398.945 224.872C401.191 221.981 403.461 219.097 405.694 216.302ZM265.917 483.79C264.927 486.426 263.957 489.069 263.033 491.645L236.121 516.877C237.265 513.687 238.466 510.416 239.691 507.153L265.917 483.79ZM419.011 200.101L410.617 236.021C408.844 238.113 407.044 240.271 405.266 242.434L412.383 208.045C414.588 205.363 416.818 202.69 419.011 200.101ZM432.023 185.226L421.127 224.007C419.408 225.906 417.653 227.879 415.909 229.873L425.558 192.495C427.719 190.024 429.894 187.579 432.023 185.226ZM260.352 499.308C259.499 501.812 258.666 504.323 257.877 506.772L229.742 535.592C230.717 532.565 231.747 529.461 232.802 526.364L260.352 499.308ZM444.631 171.787L431.319 213.142C429.657 214.847 427.958 216.623 426.269 218.423L438.382 178.322C440.472 176.094 442.575 173.895 444.631 171.787ZM255.615 514.011C254.898 516.384 254.208 518.745 253.566 521.027L224.408 553.233C225.202 550.411 226.054 547.492 226.94 544.559L255.615 514.011ZM456.752 159.877L441.114 203.517C439.531 205.004 437.901 206.57 436.27 208.172L450.759 165.634C452.776 163.653 454.792 161.715 456.752 159.877ZM251.738 527.796C251.168 530.001 250.628 532.192 250.132 534.31L220.157 569.673C220.771 567.052 221.439 564.339 222.145 561.61L251.738 527.796ZM248.752 540.556C248.33 542.588 247.942 544.594 247.599 546.521L217.02 584.799C217.445 582.41 217.925 579.923 218.448 577.406L248.752 540.556ZM468.299 149.583L450.439 195.204C448.938 196.469 447.39 197.811 445.838 199.194L462.604 154.522C464.523 152.81 466.44 151.148 468.299 149.583ZM246.676 552.199C246.408 554.033 246.176 555.842 245.985 557.578L215.021 598.492C215.257 596.343 215.545 594.102 215.876 591.831L246.676 552.199ZM479.188 140.985L459.227 188.265C457.819 189.298 456.364 190.406 454.903 191.56L473.834 145.064C475.642 143.637 477.443 142.265 479.188 140.985ZM245.528 562.642C245.415 564.27 245.34 565.866 245.305 567.386L214.177 610.661C214.22 608.774 214.314 606.794 214.454 604.774L245.528 562.642ZM489.336 134.157L467.41 182.759C466.11 183.549 464.759 184.415 463.396 185.332L484.362 137.344C486.05 136.209 487.724 135.136 489.336 134.157ZM245.317 571.803C245.36 573.219 245.443 574.596 245.564 575.893L214.499 621.219C214.348 619.607 214.245 617.898 214.192 616.14L245.317 571.803ZM498.666 129.156L474.928 178.729C473.735 179.275 472.5 179.891 471.258 180.556L494.106 131.426C495.65 130.597 497.184 129.834 498.666 129.156ZM246.048 579.641C246.247 580.827 246.489 581.97 246.766 583.04L215.989 630.083C215.645 628.757 215.346 627.339 215.099 625.869L246.048 579.641ZM507.078 126.036L481.708 176.215C480.645 176.507 479.535 176.867 478.41 177.283L502.989 127.361C504.385 126.843 505.761 126.397 507.078 126.036ZM247.716 586.079C248.07 587.027 248.469 587.929 248.9 588.762L218.635 637.178C218.101 636.149 217.608 635.031 217.17 633.857L247.716 586.079ZM514.537 124.802L487.719 175.221C486.786 175.26 485.808 175.363 484.813 175.528L510.93 125.183C512.166 124.978 513.379 124.85 514.537 124.802ZM250.312 591.074C250.819 591.784 251.37 592.439 251.949 593.023L222.414 642.461C221.696 641.738 221.014 640.926 220.386 640.048L250.312 591.074ZM520.986 125.453L492.929 175.747C492.134 175.535 491.291 175.383 490.424 175.294L517.892 124.892C518.962 125.002 520.003 125.19 520.986 125.453Z" fill="#ED7BFC"/>
<path d="M224.769 644.454C225.177 644.742 225.601 645.013 226.029 645.259L254.878 595.291C254.528 595.089 254.188 594.871 253.858 594.639L224.769 644.454Z" fill="#ED7BFC"/>
<path d="M375.622 426.522C397.874 426.522 415.913 408.483 415.913 386.231C415.913 363.979 397.874 345.939 375.622 345.939C353.369 345.939 335.33 363.979 335.33 386.231C335.33 408.483 353.369 426.522 375.622 426.522Z" fill="#ED7BFC"/>
<path d="M375.621 456.994C295.673 456.994 220.504 449.699 163.959 436.453C107.13 423.141 75.8322 405.314 75.8322 386.256V385.588H134.867V386.256C134.867 401.021 159.796 414.991 205.062 425.595C250.613 436.265 311.186 442.142 375.621 442.142C440.056 442.142 500.63 436.265 546.181 425.595C591.447 414.991 616.376 401.02 616.376 386.256V385.588H675.411V386.256C675.411 405.314 644.114 423.141 587.284 436.453C530.739 449.699 455.569 456.994 375.621 456.994Z" fill="#ED7BFC"/>
<path d="M674.743 386.256C674.743 404.972 643.629 422.568 587.133 435.803C530.636 449.037 455.519 456.326 375.621 456.326C295.724 456.326 220.607 449.037 164.111 435.803C107.614 422.568 76.5008 404.972 76.5008 386.256H134.2C134.2 401.362 159.312 415.564 204.91 426.246C250.509 436.927 311.136 442.81 375.621 442.81C440.107 442.81 500.734 436.927 546.333 426.246C591.931 415.564 617.044 401.362 617.044 386.256H674.743ZM676.079 384.92H615.708V386.256C615.708 393.257 609.794 400.151 598.13 406.747C586.127 413.535 568.597 419.658 546.028 424.945C500.526 435.604 440.008 441.474 375.621 441.474C311.235 441.474 250.717 435.604 205.215 424.945C182.646 419.658 165.116 413.535 153.113 406.747C141.45 400.151 135.536 393.257 135.536 386.256V384.92H75.1648V386.256C75.1648 396.088 83.0031 405.505 98.4621 414.248C113.582 422.799 135.567 430.489 163.807 437.104C220.4 450.361 295.624 457.662 375.621 457.662C455.619 457.662 530.844 450.361 587.437 437.104C615.677 430.489 637.662 422.799 652.782 414.248C668.241 405.505 676.079 396.088 676.079 386.256L676.079 384.92Z" fill="#0E1720"/>
<path d="M495.387 595.084L495.966 594.75C508.752 587.368 508.386 558.793 494.937 514.289C481.402 469.507 456.205 414.111 423.987 358.308C391.769 302.505 356.394 252.986 324.378 218.872C291.043 183.355 272.408 175.9 262.645 175.9C259.84 175.9 257.339 176.523 255.211 177.751L254.633 178.085L225.116 126.959L225.694 126.626C228.56 124.971 231.911 124.131 235.652 124.131C253.423 124.131 280.248 142.706 313.229 177.847C352.972 220.192 396.874 281.644 436.85 350.881C476.822 420.117 508.09 488.864 524.893 544.458C541.778 600.329 541.988 636.347 525.483 645.876L524.904 646.21L495.387 595.084Z" fill="#ED7BFC"/>
<path d="M235.652 124.8C253.089 124.8 279.86 143.268 312.742 178.304C352.452 220.614 396.322 282.022 436.271 351.216C476.22 420.409 507.466 489.106 524.253 544.651C541.04 600.196 541.358 635.939 525.149 645.298L496.3 595.329C509.382 587.776 509.125 558.927 495.576 514.096C482.027 469.266 456.808 413.82 424.565 357.974C392.322 302.127 356.915 252.565 324.865 218.415C298.323 190.136 276.718 175.232 262.645 175.232C259.724 175.232 257.126 175.875 254.877 177.173L226.028 127.205C228.815 125.596 232.031 124.8 235.652 124.8ZM235.652 123.464C231.792 123.464 228.329 124.333 225.36 126.048L224.203 126.716L224.871 127.873L253.72 177.841L254.388 178.998L255.545 178.33C257.57 177.161 259.959 176.568 262.645 176.568C269.388 176.568 278.025 180.185 288.318 187.317C298.808 194.586 310.776 205.357 323.89 219.33C355.873 253.407 391.216 302.882 423.408 358.642C455.602 414.402 480.777 469.748 494.297 514.483C501.003 536.672 504.466 554.914 504.588 568.703C504.708 582.103 501.694 590.671 495.632 594.172L494.475 594.84L495.143 595.997L523.992 645.966L524.66 647.123L525.817 646.455C534.332 641.539 538.568 630.042 538.41 612.282C538.256 594.913 533.923 572.029 525.532 544.265C508.716 488.624 477.427 419.827 437.428 350.548C397.429 281.267 353.494 219.772 313.716 177.39C280.606 142.111 253.612 123.464 235.652 123.464Z" fill="#0E1720"/>
<path d="M235.652 648.332C231.91 648.331 228.56 647.492 225.694 645.837L225.116 645.503L254.633 594.377L255.212 594.712C257.34 595.94 259.841 596.563 262.645 596.563C272.409 596.562 291.045 589.106 324.379 553.59C356.393 519.479 391.769 469.959 423.988 414.155C456.206 358.351 481.404 302.955 494.938 258.173C508.387 213.67 508.753 185.095 495.966 177.713L495.388 177.379L524.905 126.253L525.484 126.587C541.988 136.116 541.779 172.134 524.893 228.005C508.093 283.596 476.826 352.343 436.851 421.581C396.876 490.818 352.974 552.27 313.23 594.616C280.25 629.757 253.424 648.332 235.655 648.332H235.652Z" fill="#ED7BFC"/>
<path d="M525.15 127.166C541.358 136.524 541.04 172.268 524.253 227.812C507.467 283.357 476.221 352.054 436.272 421.247C396.323 490.441 352.453 551.849 312.743 594.16C279.858 629.198 253.089 647.664 235.652 647.664C232.033 647.664 228.814 646.867 226.028 645.259L254.878 595.29C257.127 596.589 259.723 597.231 262.645 597.231C276.719 597.231 298.326 582.325 324.865 554.047C356.915 519.899 392.323 470.335 424.566 414.489C456.809 358.643 482.028 303.198 495.577 258.367C509.126 213.536 509.382 184.688 496.3 177.135L525.15 127.166ZM524.661 125.341L523.993 126.498L495.143 176.467L494.475 177.624L495.632 178.292C501.695 181.792 504.708 190.361 504.589 203.76C504.466 217.549 501.004 235.791 494.298 257.98C480.778 302.716 455.602 358.061 423.409 413.821C391.216 469.582 355.873 519.057 323.891 553.133C310.778 567.105 298.81 577.876 288.32 585.145C278.026 592.278 269.388 595.895 262.645 595.895C259.959 595.895 257.571 595.302 255.546 594.133L254.389 593.465L253.721 594.622L224.871 644.591L224.203 645.748L225.36 646.416C228.33 648.131 231.793 649 235.652 649C253.613 649 280.607 630.353 313.717 595.074C353.495 552.691 397.43 491.195 437.429 421.915C477.428 352.635 508.717 283.839 525.532 228.199C533.923 200.435 538.256 177.55 538.411 160.181C538.569 142.422 534.332 130.925 525.818 126.009L524.661 125.341Z" fill="#0E1720"/>
<mask id="mask0_1939_552" style="mask-type:luminance" maskUnits="userSpaceOnUse" x="395" y="438" width="33" height="21">
<path d="M426.598 438.875C420.168 439.198 413.617 439.461 407.123 439.658L406.027 440.291C402.611 445.813 399.107 451.355 395.61 456.763L396.754 458.825C403.254 458.719 409.883 458.56 416.456 458.35L417.548 457.72C421.019 452.129 424.471 446.469 427.81 440.896L426.598 438.875Z" fill="white"/>
</mask>
<g mask="url(#mask0_1939_552)">
<path d="M495.387 595.084L495.966 594.75C508.752 587.368 508.386 558.793 494.937 514.289C481.402 469.507 456.205 414.111 423.987 358.308C391.769 302.505 356.394 252.986 324.378 218.872C291.043 183.355 272.408 175.9 262.645 175.9C259.84 175.9 257.339 176.523 255.211 177.751L254.632 178.085L225.115 126.959L225.694 126.626C228.56 124.971 231.911 124.131 235.651 124.131C253.423 124.131 280.248 142.706 313.229 177.847C352.972 220.192 396.874 281.644 436.85 350.881C476.822 420.117 508.09 488.864 524.892 544.458C541.778 600.329 541.987 636.347 525.483 645.876L524.904 646.21L495.387 595.084Z" fill="#ED7BFC"/>
<path d="M235.652 124.8C253.089 124.8 279.86 143.268 312.742 178.304C352.452 220.614 396.322 282.022 436.271 351.216C476.22 420.409 507.466 489.106 524.253 544.651C541.04 600.196 541.358 635.939 525.149 645.298L496.3 595.329C509.382 587.776 509.125 558.927 495.576 514.096C482.027 469.266 456.808 413.82 424.565 357.974C392.322 302.127 356.915 252.565 324.865 218.415C298.323 190.136 276.718 175.232 262.645 175.232C259.724 175.232 257.126 175.875 254.877 177.173L226.028 127.205C228.815 125.596 232.031 124.8 235.652 124.8ZM235.652 123.464C231.792 123.464 228.329 124.333 225.36 126.048L224.203 126.716L224.871 127.873L253.72 177.841L254.388 178.998L255.545 178.33C257.57 177.161 259.959 176.568 262.645 176.568C269.388 176.568 278.025 180.185 288.318 187.317C298.808 194.586 310.776 205.357 323.89 219.33C355.873 253.407 391.216 302.882 423.408 358.642C455.602 414.402 480.777 469.748 494.297 514.483C501.003 536.672 504.466 554.914 504.588 568.703C504.708 582.103 501.694 590.671 495.632 594.172L494.475 594.84L495.143 595.997L523.992 645.966L524.66 647.123L525.817 646.455C534.332 641.539 538.568 630.042 538.41 612.282C538.256 594.913 533.923 572.029 525.532 544.265C508.716 488.624 477.427 419.827 437.428 350.548C397.429 281.267 353.494 219.772 313.716 177.39C280.606 142.111 253.612 123.464 235.652 123.464Z" fill="#0E1720"/>
<path d="M235.652 648.332C231.91 648.331 228.56 647.492 225.694 645.837L225.116 645.503L254.633 594.377L255.212 594.712C257.34 595.94 259.841 596.563 262.645 596.563C272.409 596.562 291.045 589.106 324.379 553.59C356.393 519.479 391.769 469.959 423.988 414.155C456.206 358.351 481.403 302.955 494.938 258.173C508.387 213.67 508.752 185.095 495.966 177.713L495.388 177.379L524.905 126.253L525.484 126.587C541.988 136.116 541.779 172.134 524.893 228.005C508.092 283.596 476.825 352.343 436.851 421.581C396.876 490.818 352.973 552.27 313.23 594.616C280.249 629.757 253.424 648.332 235.654 648.332H235.652Z" fill="#ED7BFC"/>
<path d="M525.15 127.166C541.358 136.524 541.04 172.268 524.253 227.812C507.467 283.357 476.22 352.054 436.272 421.247C396.323 490.441 352.452 551.849 312.743 594.16C279.858 629.198 253.089 647.664 235.652 647.664C232.033 647.664 228.814 646.867 226.028 645.259L254.878 595.29C257.127 596.589 259.723 597.231 262.645 597.231C276.718 597.231 298.326 582.325 324.865 554.047C356.915 519.899 392.323 470.335 424.566 414.489C456.809 358.643 482.028 303.198 495.577 258.367C509.125 213.536 509.382 184.688 496.3 177.135L525.15 127.166ZM524.66 125.341L523.992 126.498L495.143 176.467L494.475 177.624L495.632 178.292C501.695 181.792 504.708 190.361 504.589 203.76C504.466 217.549 501.004 235.791 494.298 257.98C480.777 302.716 455.602 358.061 423.409 413.821C391.216 469.582 355.873 519.057 323.891 553.133C310.778 567.105 298.81 577.876 288.32 585.145C278.026 592.278 269.388 595.895 262.645 595.895C259.959 595.895 257.571 595.302 255.546 594.133L254.389 593.465L253.721 594.622L224.871 644.591L224.203 645.748L225.36 646.416C228.33 648.131 231.792 649 235.652 649C253.612 649 280.607 630.353 313.717 595.074C353.495 552.691 397.43 491.195 437.429 421.915C477.428 352.635 508.717 283.839 525.532 228.199C533.923 200.435 538.256 177.55 538.411 160.181C538.569 142.422 534.332 130.925 525.818 126.009L524.66 125.341Z" fill="#0E1720"/>
<path d="M375.621 456.994C295.673 456.994 220.504 449.699 163.959 436.453C107.129 423.141 75.832 405.314 75.832 386.256V385.588H134.867V386.256C134.867 401.021 159.796 414.991 205.062 425.595C250.613 436.265 311.186 442.142 375.621 442.142C440.056 442.142 500.63 436.265 546.18 425.595C591.447 414.991 616.376 401.02 616.376 386.256V385.588H675.411V386.256C675.411 405.314 644.113 423.141 587.284 436.453C530.738 449.699 455.568 456.994 375.621 456.994Z" fill="#ED7BFC"/>
<path d="M674.743 386.256C674.743 404.972 643.629 422.568 587.132 435.803C530.636 449.037 455.519 456.326 375.621 456.326C295.724 456.326 220.607 449.037 164.111 435.803C107.614 422.568 76.5007 404.972 76.5007 386.256H134.2C134.2 401.362 159.311 415.564 204.91 426.246C250.509 436.927 311.135 442.81 375.621 442.81C440.107 442.81 500.734 436.927 546.333 426.246C591.931 415.564 617.044 401.362 617.044 386.256H674.743ZM676.079 384.92H615.708V386.256C615.708 393.257 609.794 400.151 598.13 406.747C586.127 413.535 568.597 419.658 546.028 424.945C500.526 435.604 440.008 441.474 375.621 441.474C311.235 441.474 250.717 435.604 205.215 424.945C182.646 419.658 165.116 413.535 153.113 406.747C141.449 400.151 135.536 393.257 135.536 386.256V384.92H75.1647V386.256C75.1647 396.088 83.003 405.505 98.462 414.248C113.581 422.799 135.567 430.489 163.806 437.104C220.399 450.361 295.623 457.662 375.621 457.662C455.619 457.662 530.844 450.361 587.437 437.104C615.677 430.489 637.662 422.799 652.782 414.248C668.241 405.505 676.079 396.088 676.079 386.256L676.079 384.92Z" fill="#0E1720"/>
</g>
<mask id="path-25-outside-1_1939_552" maskUnits="userSpaceOnUse" x="187" y="197" width="379" height="376" fill="black">
<rect fill="white" x="187" y="197" width="379" height="376"/>
<path d="M192.136 523.544C192.136 498.244 196.184 476.655 204.28 458.776C212.376 440.56 226.882 420.489 247.796 398.562C268.374 376.635 282.542 357.913 290.3 342.396C298.396 326.879 302.444 310.687 302.444 293.82C302.444 278.64 299.914 268.183 294.854 262.448C290.132 256.376 283.048 253.34 273.602 253.34C254.374 253.34 244.76 264.978 244.76 288.254V326.204H192.136V291.796C192.136 263.123 199.22 241.196 213.388 226.016C227.556 210.499 248.134 202.74 275.12 202.74C302.107 202.74 322.684 210.499 336.852 226.016C351.02 241.196 358.104 263.123 358.104 291.796C358.104 313.385 352.876 334.469 342.418 355.046C332.298 375.623 314.588 399.237 289.288 425.886C272.759 443.427 261.627 457.764 255.892 468.896C250.158 479.691 247.29 491.329 247.29 503.81V511.4H353.044V562H192.136V523.544ZM477.212 567.06C450.225 567.06 429.648 559.47 415.48 544.29C401.312 528.773 394.228 506.677 394.228 478.004V450.174H446.852V482.052C446.852 504.991 456.466 516.46 475.694 516.46C494.922 516.46 504.536 504.991 504.536 482.052V402.61C504.536 379.334 494.922 367.696 475.694 367.696C456.466 367.696 446.852 379.334 446.852 402.61V405.646H394.228L404.348 207.8H551.088V258.4H453.936L449.382 342.902H450.394C460.851 325.698 476.875 317.096 498.464 317.096C518.704 317.096 534.053 324.011 544.51 337.842C554.967 351.673 560.196 371.744 560.196 398.056V478.004C560.196 506.677 553.112 528.773 538.944 544.29C524.776 559.47 504.199 567.06 477.212 567.06Z"/>
</mask>
<path d="M192.136 523.544C192.136 498.244 196.184 476.655 204.28 458.776C212.376 440.56 226.882 420.489 247.796 398.562C268.374 376.635 282.542 357.913 290.3 342.396C298.396 326.879 302.444 310.687 302.444 293.82C302.444 278.64 299.914 268.183 294.854 262.448C290.132 256.376 283.048 253.34 273.602 253.34C254.374 253.34 244.76 264.978 244.76 288.254V326.204H192.136V291.796C192.136 263.123 199.22 241.196 213.388 226.016C227.556 210.499 248.134 202.74 275.12 202.74C302.107 202.74 322.684 210.499 336.852 226.016C351.02 241.196 358.104 263.123 358.104 291.796C358.104 313.385 352.876 334.469 342.418 355.046C332.298 375.623 314.588 399.237 289.288 425.886C272.759 443.427 261.627 457.764 255.892 468.896C250.158 479.691 247.29 491.329 247.29 503.81V511.4H353.044V562H192.136V523.544ZM477.212 567.06C450.225 567.06 429.648 559.47 415.48 544.29C401.312 528.773 394.228 506.677 394.228 478.004V450.174H446.852V482.052C446.852 504.991 456.466 516.46 475.694 516.46C494.922 516.46 504.536 504.991 504.536 482.052V402.61C504.536 379.334 494.922 367.696 475.694 367.696C456.466 367.696 446.852 379.334 446.852 402.61V405.646H394.228L404.348 207.8H551.088V258.4H453.936L449.382 342.902H450.394C460.851 325.698 476.875 317.096 498.464 317.096C518.704 317.096 534.053 324.011 544.51 337.842C554.967 351.673 560.196 371.744 560.196 398.056V478.004C560.196 506.677 553.112 528.773 538.944 544.29C524.776 559.47 504.199 567.06 477.212 567.06Z" fill="#FFF6E6"/>
<path d="M204.28 458.776L208.835 460.839L208.842 460.823L208.849 460.807L204.28 458.776ZM247.796 398.562L251.414 402.013L251.428 401.998L251.442 401.984L247.796 398.562ZM290.3 342.396L285.867 340.083L285.847 340.121L285.828 340.16L290.3 342.396ZM294.854 262.448L290.908 265.518L291.003 265.64L291.105 265.756L294.854 262.448ZM244.76 326.204V331.204H249.76V326.204H244.76ZM192.136 326.204H187.136V331.204H192.136V326.204ZM213.388 226.016L217.044 229.428L217.062 229.408L217.081 229.387L213.388 226.016ZM336.852 226.016L333.16 229.387L333.178 229.408L333.197 229.428L336.852 226.016ZM342.418 355.046L337.961 352.781L337.946 352.81L337.932 352.839L342.418 355.046ZM289.288 425.886L285.662 422.443L285.656 422.45L285.649 422.457L289.288 425.886ZM255.892 468.896L260.308 471.242L260.323 471.214L260.337 471.186L255.892 468.896ZM247.29 511.4H242.29V516.4H247.29V511.4ZM353.044 511.4H358.044V506.4H353.044V511.4ZM353.044 562V567H358.044V562H353.044ZM192.136 562H187.136V567H192.136V562ZM192.136 523.544H197.136C197.136 498.758 201.104 477.911 208.835 460.839L204.28 458.776L199.726 456.713C191.264 475.399 187.136 497.73 187.136 523.544H192.136ZM204.28 458.776L208.849 460.807C216.624 443.314 230.712 423.718 251.414 402.013L247.796 398.562L244.178 395.111C223.052 417.26 208.129 437.806 199.711 456.745L204.28 458.776ZM247.796 398.562L251.442 401.984C272.146 379.922 286.695 360.787 294.772 344.632L290.3 342.396L285.828 340.16C278.388 355.04 264.601 373.349 244.15 395.14L247.796 398.562ZM290.3 342.396L294.733 344.709C303.187 328.505 307.444 311.523 307.444 293.82H302.444H297.444C297.444 309.85 293.605 325.252 285.867 340.083L290.3 342.396ZM302.444 293.82H307.444C307.444 278.449 304.957 266.341 298.604 259.14L294.854 262.448L291.105 265.756C294.871 270.024 297.444 278.831 297.444 293.82H302.444ZM294.854 262.448L298.801 259.378C292.915 251.811 284.201 248.34 273.602 248.34V253.34V258.34C281.894 258.34 287.348 260.941 290.908 265.518L294.854 262.448ZM273.602 253.34V248.34C262.939 248.34 254.123 251.613 248.116 258.884C242.261 265.972 239.76 276.053 239.76 288.254H244.76H249.76C249.76 277.179 252.067 269.803 255.826 265.253C259.433 260.886 265.037 258.34 273.602 258.34V253.34ZM244.76 288.254H239.76V326.204H244.76H249.76V288.254H244.76ZM244.76 326.204V321.204H192.136V326.204V331.204H244.76V326.204ZM192.136 326.204H197.136V291.796H192.136H187.136V326.204H192.136ZM192.136 291.796H197.136C197.136 263.902 204.023 243.378 217.044 229.428L213.388 226.016L209.733 222.604C194.418 239.014 187.136 262.343 187.136 291.796H192.136ZM213.388 226.016L217.081 229.387C230.049 215.184 249.114 207.74 275.12 207.74V202.74V197.74C247.153 197.74 225.064 205.813 209.696 222.645L213.388 226.016ZM275.12 202.74V207.74C301.126 207.74 320.192 215.184 333.16 229.387L336.852 226.016L340.545 222.645C325.177 205.813 303.088 197.74 275.12 197.74V202.74ZM336.852 226.016L333.197 229.428C346.218 243.378 353.104 263.902 353.104 291.796H358.104H363.104C363.104 262.343 355.823 239.014 340.508 222.604L336.852 226.016ZM358.104 291.796H353.104C353.104 312.544 348.087 332.856 337.961 352.781L342.418 355.046L346.876 357.311C357.665 336.082 363.104 314.227 363.104 291.796H358.104ZM342.418 355.046L337.932 352.839C328.127 372.775 310.797 395.968 285.662 422.443L289.288 425.886L292.914 429.329C318.38 402.505 336.47 378.472 346.905 357.253L342.418 355.046ZM289.288 425.886L285.649 422.457C269.038 440.086 257.512 454.834 251.447 466.606L255.892 468.896L260.337 471.186C265.742 460.694 276.481 446.769 292.927 429.315L289.288 425.886ZM255.892 468.896L251.477 466.55C245.35 478.083 242.29 490.529 242.29 503.81H247.29H252.29C252.29 492.129 254.965 481.298 260.308 471.242L255.892 468.896ZM247.29 503.81H242.29V511.4H247.29H252.29V503.81H247.29ZM247.29 511.4V516.4H353.044V511.4V506.4H247.29V511.4ZM353.044 511.4H348.044V562H353.044H358.044V511.4H353.044ZM353.044 562V557H192.136V562V567H353.044V562ZM192.136 562H197.136V523.544H192.136H187.136V562H192.136ZM415.48 544.29L411.788 547.661L411.806 547.682L411.825 547.702L415.48 544.29ZM394.228 450.174V445.174H389.228V450.174H394.228ZM446.852 450.174H451.852V445.174H446.852V450.174ZM446.852 405.646V410.646H451.852V405.646H446.852ZM394.228 405.646L389.235 405.391L388.966 410.646H394.228V405.646ZM404.348 207.8V202.8H399.597L399.355 207.545L404.348 207.8ZM551.088 207.8H556.088V202.8H551.088V207.8ZM551.088 258.4V263.4H556.088V258.4H551.088ZM453.936 258.4V253.4H449.198L448.943 258.131L453.936 258.4ZM449.382 342.902L444.389 342.633L444.105 347.902H449.382V342.902ZM450.394 342.902V347.902H453.206L454.667 345.499L450.394 342.902ZM544.51 337.842L540.522 340.858L540.522 340.858L544.51 337.842ZM538.944 544.29L542.599 547.702L542.618 547.682L542.636 547.661L538.944 544.29ZM477.212 567.06V562.06C451.174 562.06 432.096 554.764 419.135 540.878L415.48 544.29L411.825 547.702C427.2 564.176 449.277 572.06 477.212 572.06V567.06ZM415.48 544.29L419.172 540.919C406.111 526.614 399.228 505.89 399.228 478.004H394.228H389.228C389.228 507.465 396.513 530.932 411.788 547.661L415.48 544.29ZM394.228 478.004H399.228V450.174H394.228H389.228V478.004H394.228ZM394.228 450.174V455.174H446.852V450.174V445.174H394.228V450.174ZM446.852 450.174H441.852V482.052H446.852H451.852V450.174H446.852ZM446.852 482.052H441.852C441.852 494.098 444.358 504.064 450.231 511.07C456.245 518.245 465.055 521.46 475.694 521.46V516.46V511.46C467.105 511.46 461.494 508.94 457.894 504.646C454.153 500.183 451.852 492.945 451.852 482.052H446.852ZM475.694 516.46V521.46C486.333 521.46 495.143 518.245 501.157 511.07C507.03 504.064 509.536 494.098 509.536 482.052H504.536H499.536C499.536 492.945 497.235 500.183 493.494 504.646C489.894 508.94 484.283 511.46 475.694 511.46V516.46ZM504.536 482.052H509.536V402.61H504.536H499.536V482.052H504.536ZM504.536 402.61H509.536C509.536 390.409 507.036 380.328 501.18 373.24C495.174 365.969 486.357 362.696 475.694 362.696V367.696V372.696C484.259 372.696 489.863 375.242 493.471 379.609C497.229 384.159 499.536 391.535 499.536 402.61H504.536ZM475.694 367.696V362.696C465.031 362.696 456.214 365.969 450.208 373.24C444.352 380.328 441.852 390.409 441.852 402.61H446.852H451.852C451.852 391.535 454.159 384.159 457.917 379.609C461.525 375.242 467.129 372.696 475.694 372.696V367.696ZM446.852 402.61H441.852V405.646H446.852H451.852V402.61H446.852ZM446.852 405.646V400.646H394.228V405.646V410.646H446.852V405.646ZM394.228 405.646L399.221 405.901L409.341 208.055L404.348 207.8L399.355 207.545L389.235 405.391L394.228 405.646ZM404.348 207.8V212.8H551.088V207.8V202.8H404.348V207.8ZM551.088 207.8H546.088V258.4H551.088H556.088V207.8H551.088ZM551.088 258.4V253.4H453.936V258.4V263.4H551.088V258.4ZM453.936 258.4L448.943 258.131L444.389 342.633L449.382 342.902L454.375 343.171L458.929 258.669L453.936 258.4ZM449.382 342.902V347.902H450.394V342.902V337.902H449.382V342.902ZM450.394 342.902L454.667 345.499C464.14 329.913 478.468 322.096 498.464 322.096V317.096V312.096C475.281 312.096 457.562 321.483 446.121 340.305L450.394 342.902ZM498.464 317.096V322.096C517.434 322.096 531.175 328.496 540.522 340.858L544.51 337.842L548.498 334.826C536.93 319.527 519.974 312.096 498.464 312.096V317.096ZM544.51 337.842L540.522 340.858C550.061 353.474 555.196 372.299 555.196 398.056H560.196H565.196C565.196 371.189 559.874 349.872 548.498 334.826L544.51 337.842ZM560.196 398.056H555.196V478.004H560.196H565.196V398.056H560.196ZM560.196 478.004H555.196C555.196 505.89 548.313 526.614 535.252 540.919L538.944 544.29L542.636 547.661C557.911 530.932 565.196 507.465 565.196 478.004H560.196ZM538.944 544.29L535.289 540.878C522.328 554.764 503.25 562.06 477.212 562.06V567.06V572.06C505.147 572.06 527.224 564.176 542.599 547.702L538.944 544.29Z" fill="#182C36" mask="url(#path-25-outside-1_1939_552)"/>
</g>
<defs>
<clipPath id="clip0_1939_552">
<rect width="750" height="750" fill="white"/>
</clipPath>
</defs>
</svg>
