<svg width="600" height="600" viewBox="0 0 600 600" fill="none" xmlns="http://www.w3.org/2000/svg">
<rect width="600" height="600" fill="#242B21"/>
<path d="M55.031 369.894C50.4128 369.894 46.9491 368.575 44.6399 365.936C42.3308 363.406 41.1762 360.218 41.1762 356.369V345.978C41.1762 343.009 41.4511 340.425 42.0009 338.226C42.6607 336.027 43.4304 334.047 44.31 332.288C45.1897 330.529 46.1793 328.989 47.2789 327.67C48.3785 326.24 49.4231 324.921 50.4128 323.711C52.2821 321.512 53.5466 319.643 54.2063 318.103C54.976 316.454 55.3609 314.75 55.3609 312.99C55.3609 308.812 53.4366 305.788 49.5881 303.919C45.7395 301.939 40.0766 300.95 32.5994 300.95H19.7342V290.724H32.5994C40.0766 290.724 45.7395 289.789 49.5881 287.92C53.4366 285.94 55.3609 282.862 55.3609 278.683C55.3609 276.924 54.976 275.274 54.2063 273.735C53.5466 272.086 52.2821 270.161 50.4128 267.962C49.4231 266.753 48.3785 265.488 47.2789 264.169C46.1793 262.739 45.1897 261.2 44.31 259.55C43.4304 257.791 42.6607 255.812 42.0009 253.613C41.4511 251.303 41.1762 248.664 41.1762 245.696V235.304C41.1762 231.456 42.3308 228.267 44.6399 225.738C46.9491 223.099 50.4128 221.779 55.031 221.779H84.0602V232.006H52.557V244.706C52.557 249.214 53.2167 252.678 54.5362 255.097C55.8557 257.516 57.3951 259.88 59.1545 262.189C61.0238 264.608 62.7831 267.137 64.4325 269.777C66.0819 272.306 66.9066 275.329 66.9066 278.848C66.9066 283.466 65.2572 287.205 61.9584 290.064C58.7696 292.923 54.3713 294.737 48.7634 295.507V296.167C54.3713 296.936 58.7696 298.751 61.9584 301.61C65.2572 304.469 66.9066 308.207 66.9066 312.825C66.9066 316.344 66.0819 319.423 64.4325 322.062C62.7831 324.591 61.0238 327.065 59.1545 329.484C57.3951 331.793 55.8557 334.157 54.5362 336.577C53.2167 338.996 52.557 342.459 52.557 346.968V359.668H84.0602V369.894H55.031ZM171.413 333.278H170.753C165.255 343.834 156.514 349.112 144.528 349.112C134.082 349.112 125.89 345.208 119.952 337.401C114.124 329.594 111.211 318.653 111.211 304.578C111.211 290.504 114.124 279.563 119.952 271.756C125.89 263.949 134.082 260.045 144.528 260.045C156.514 260.045 165.255 265.323 170.753 275.879H171.413V225.078H184.608V347.133H171.413V333.278ZM149.641 337.401C152.61 337.401 155.414 337.016 158.053 336.247C160.692 335.477 163.001 334.377 164.98 332.948C166.96 331.408 168.499 329.594 169.599 327.505C170.808 325.306 171.413 322.777 171.413 319.918V289.239C171.413 286.38 170.808 283.906 169.599 281.817C168.499 279.618 166.96 277.804 164.98 276.374C163.001 274.835 160.692 273.68 158.053 272.91C155.414 272.141 152.61 271.756 149.641 271.756C141.944 271.756 135.951 274.12 131.663 278.848C127.484 283.466 125.395 289.624 125.395 297.321V311.836C125.395 319.533 127.484 325.746 131.663 330.474C135.951 335.092 141.944 337.401 149.641 337.401ZM251.179 349.112C245.021 349.112 239.468 348.067 234.52 345.978C229.682 343.889 225.503 340.92 221.985 337.071C218.576 333.113 215.937 328.44 214.068 323.052C212.198 317.554 211.264 311.451 211.264 304.743C211.264 297.926 212.198 291.768 214.068 286.27C216.047 280.772 218.741 276.099 222.15 272.251C225.558 268.292 229.627 265.268 234.355 263.179C239.193 261.09 244.526 260.045 250.354 260.045C256.072 260.045 261.24 261.09 265.858 263.179C270.586 265.268 274.6 268.182 277.899 271.921C281.198 275.549 283.727 279.893 285.486 284.951C287.245 290.009 288.125 295.562 288.125 301.61V307.877H225.118V311.836C225.118 315.574 225.723 319.038 226.933 322.227C228.142 325.416 229.847 328.165 232.046 330.474C234.355 332.783 237.104 334.597 240.293 335.917C243.592 337.126 247.22 337.731 251.179 337.731C256.897 337.731 261.845 336.412 266.023 333.773C270.202 331.134 273.39 327.505 275.59 322.887L285.321 329.484C282.792 335.202 278.558 339.93 272.621 343.669C266.793 347.298 259.646 349.112 251.179 349.112ZM250.354 270.931C246.725 270.931 243.372 271.591 240.293 272.91C237.214 274.23 234.52 276.044 232.211 278.353C230.012 280.662 228.252 283.411 226.933 286.6C225.723 289.679 225.118 293.088 225.118 296.826V297.981H273.94V296.167C273.94 292.428 273.335 289.019 272.126 285.94C271.026 282.862 269.432 280.223 267.343 278.023C265.363 275.714 262.889 273.955 259.92 272.745C257.062 271.536 253.873 270.931 250.354 270.931ZM340.181 347.133L309.667 262.024H323.027L335.233 297.651L348.428 336.082H349.088L362.283 297.651L374.488 262.024H387.518L357.005 347.133H340.181ZM448.481 349.112C439.574 349.112 431.877 347.627 425.39 344.658C419.012 341.58 413.569 337.511 409.061 332.453L417.967 324.701C422.036 328.989 426.489 332.288 431.327 334.597C436.166 336.906 441.993 338.061 448.811 338.061C455.408 338.061 460.796 336.906 464.975 334.597C469.263 332.178 471.407 328.44 471.407 323.381C471.407 321.182 470.968 319.368 470.088 317.938C469.318 316.399 468.219 315.19 466.789 314.31C465.36 313.43 463.765 312.77 462.006 312.331C460.247 311.781 458.377 311.341 456.398 311.011L443.038 309.032C440.069 308.592 436.825 307.987 433.307 307.217C429.898 306.448 426.764 305.238 423.905 303.589C421.046 301.83 418.627 299.52 416.648 296.661C414.779 293.803 413.844 290.064 413.844 285.446C413.844 281.157 414.669 277.474 416.318 274.395C418.077 271.206 420.496 268.567 423.575 266.478C426.654 264.279 430.283 262.684 434.461 261.695C438.64 260.595 443.203 260.045 448.151 260.045C455.848 260.045 462.501 261.255 468.109 263.674C473.827 266.093 478.72 269.447 482.788 273.735L474.211 281.817C473.222 280.607 471.957 279.398 470.418 278.188C468.988 276.869 467.174 275.714 464.975 274.725C462.886 273.625 460.412 272.745 457.553 272.086C454.694 271.426 451.395 271.096 447.656 271.096C440.949 271.096 435.781 272.251 432.152 274.56C428.633 276.869 426.874 280.223 426.874 284.621C426.874 286.82 427.259 288.689 428.029 290.229C428.908 291.658 430.063 292.813 431.492 293.693C432.922 294.572 434.516 295.287 436.276 295.837C438.145 296.277 440.014 296.661 441.883 296.991L455.243 298.971C458.322 299.41 461.566 300.015 464.975 300.785C468.384 301.555 471.517 302.819 474.376 304.578C477.235 306.228 479.599 308.482 481.469 311.341C483.448 314.2 484.438 317.938 484.438 322.557C484.438 331.024 481.139 337.566 474.541 342.184C468.054 346.803 459.367 349.112 448.481 349.112ZM543.256 221.779C547.874 221.779 551.338 223.099 553.647 225.738C555.956 228.267 557.111 231.456 557.111 235.304V245.696C557.111 248.664 556.781 251.303 556.121 253.613C555.572 255.812 554.857 257.791 553.977 259.55C553.097 261.2 552.108 262.739 551.008 264.169C549.909 265.488 548.864 266.753 547.874 267.962C546.005 270.161 544.686 272.086 543.916 273.735C543.256 275.274 542.926 276.924 542.926 278.683C542.926 282.862 544.851 285.94 548.699 287.92C552.548 289.789 558.211 290.724 565.688 290.724H578.553V300.95H565.688C558.211 300.95 552.548 301.939 548.699 303.919C544.851 305.788 542.926 308.812 542.926 312.99C542.926 314.75 543.256 316.454 543.916 318.103C544.686 319.643 546.005 321.512 547.874 323.711C548.864 324.921 549.909 326.24 551.008 327.67C552.108 328.989 553.097 330.529 553.977 332.288C554.857 334.047 555.572 336.027 556.121 338.226C556.781 340.425 557.111 343.009 557.111 345.978V356.369C557.111 360.218 555.956 363.406 553.647 365.936C551.338 368.575 547.874 369.894 543.256 369.894H514.227V359.668H545.73V346.968C545.73 342.459 545.07 338.996 543.751 336.577C542.431 334.157 540.892 331.793 539.133 329.484C537.263 327.065 535.504 324.591 533.855 322.062C532.205 319.423 531.381 316.344 531.381 312.825C531.381 308.207 532.975 304.469 536.164 301.61C539.463 298.751 543.916 296.936 549.524 296.167V295.507C543.916 294.737 539.463 292.923 536.164 290.064C532.975 287.205 531.381 283.466 531.381 278.848C531.381 275.329 532.205 272.306 533.855 269.777C535.504 267.137 537.263 264.608 539.133 262.189C540.892 259.88 542.431 257.516 543.751 255.097C545.07 252.678 545.73 249.214 545.73 244.706V232.006H514.227V221.779H543.256Z" fill="#76FF6A"/>
<path d="M50.6541 192.954C47.4873 192.954 45.0924 192.063 43.4694 190.282C41.8464 188.461 41.0349 185.868 41.0349 182.503V180.128H47.2102V182.978C47.2102 185.67 48.3384 187.016 50.5947 187.016C51.7031 187.016 52.5344 186.699 53.0886 186.066C53.6824 185.393 53.9792 184.324 53.9792 182.86C53.9792 181.118 53.5834 179.594 52.7917 178.287C52 176.942 50.5353 175.338 48.3977 173.478C45.7059 171.103 43.8256 168.965 42.7568 167.065C41.688 165.125 41.1536 162.948 41.1536 160.533C41.1536 157.248 41.9849 154.714 43.6475 152.933C45.3101 151.112 47.7248 150.202 50.8916 150.202C54.0188 150.202 56.3741 151.112 57.9576 152.933C59.5805 154.714 60.392 157.288 60.392 160.652V162.374H54.2168V160.237C54.2168 158.812 53.9397 157.782 53.3855 157.149C52.8313 156.476 52.0198 156.14 50.951 156.14C48.7738 156.14 47.6852 157.466 47.6852 160.118C47.6852 161.622 48.0811 163.027 48.8728 164.334C49.704 165.64 51.1885 167.223 53.3261 169.084C56.0575 171.459 57.9378 173.616 58.967 175.556C59.9962 177.496 60.5108 179.772 60.5108 182.385C60.5108 185.789 59.6597 188.401 57.9576 190.222C56.295 192.043 53.8605 192.954 50.6541 192.954ZM69.3623 156.733H62.5338V150.796H82.7223V156.733H75.8938V192.36H69.3623V156.733ZM88.2064 150.796H97.0536L103.823 192.36H97.2912L96.1036 184.106V184.225H88.6814L87.4938 192.36H81.4373L88.2064 150.796ZM95.3317 178.584L92.4222 158.04H92.3034L89.4533 178.584H95.3317ZM109.373 156.733H102.544V150.796H122.733V156.733H115.904V192.36H109.373V156.733ZM125.895 150.796H143.708V156.733H132.427V167.718H141.393V173.656H132.427V186.422H143.708V192.36H125.895V150.796ZM166.417 192.954C163.21 192.954 160.756 192.043 159.054 190.222C157.352 188.401 156.501 185.828 156.501 182.503V160.652C156.501 157.327 157.352 154.754 159.054 152.933C160.756 151.112 163.21 150.202 166.417 150.202C169.623 150.202 172.077 151.112 173.779 152.933C175.482 154.754 176.333 157.327 176.333 160.652V182.503C176.333 185.828 175.482 188.401 173.779 190.222C172.077 192.043 169.623 192.954 166.417 192.954ZM166.417 187.016C168.673 187.016 169.801 185.65 169.801 182.919V160.237C169.801 157.505 168.673 156.14 166.417 156.14C164.16 156.14 163.032 157.505 163.032 160.237V182.919C163.032 185.65 164.16 187.016 166.417 187.016ZM180.75 150.796H198.029V156.733H187.281V168.312H195.713V174.25H187.281V192.36H180.75V150.796Z" fill="white"/>
<path d="M228.747 151.236H561.263V192.8H228.747V151.236Z" fill="url(#paint0_linear_1338_576)" fill-opacity="0.2"/>
<path d="M40 402H561V442H40V402Z" fill="url(#paint1_linear_1338_576)" fill-opacity="0.2"/>
<defs>
<linearGradient id="paint0_linear_1338_576" x1="561.263" y1="192.8" x2="199.058" y2="192.8" gradientUnits="userSpaceOnUse">
<stop stop-color="#D9D9D9"/>
<stop offset="1" stop-color="#737373"/>
</linearGradient>
<linearGradient id="paint1_linear_1338_576" x1="600.026" y1="402" x2="40" y2="402" gradientUnits="userSpaceOnUse">
<stop stop-color="#D9D9D9"/>
<stop offset="1" stop-color="#737373"/>
</linearGradient>
</defs>
</svg>
