<svg width="750" height="750" viewBox="0 0 750 750" fill="none" xmlns="http://www.w3.org/2000/svg">
<g clip-path="url(#clip0_557_3509)">
<path d="M607.324 -0.369629L64.9976 316.435V437.239L207.5 519.5L148 734L687.867 434.239V316.435L539.998 228.043L607.324 -0.369629Z" fill="#383336" stroke="black" stroke-width="0.826087"/>
<mask id="mask0_557_3509" style="mask-type:luminance" maskUnits="userSpaceOnUse" x="51" y="51" width="647" height="647">
<path d="M51.9999 51.2393V697.239H698V51.2393H51.9999ZM169.455 380.65L184.944 371.706L339.068 478.577L169.455 380.65ZM565.152 378.811L411.18 272.043L580.623 369.874L565.148 378.811H565.152Z" fill="white"/>
</mask>
<g mask="url(#mask0_557_3509)">
<path d="M318.406 255.848L337.232 190.308L323.431 198.276L185.196 679.653L195.585 685.653L208.674 678.097L328.284 261.551L318.406 255.848Z" fill="url(#paint0_linear_557_3509)"/>
<path d="M243.006 647.394L239.26 660.443L252.486 652.805L375.808 223.348L365.827 217.589L380.903 165.094L367.247 172.981L232.719 641.454L243.006 647.394Z" fill="url(#paint1_linear_557_3509)"/>
<path d="M290.426 609.135L282.93 635.229L296.303 627.506L423.221 185.519L413.137 179.699L424.577 139.881L411.06 147.682L280.239 603.255L290.426 609.135Z" fill="url(#paint2_linear_557_3509)"/>
<path d="M337.108 570.925L325.738 610.512L339.252 602.708L470.13 146.95L459.943 141.073L467.385 115.164L454.013 122.883L327.027 565.105L337.108 570.925Z" fill="url(#paint3_linear_557_3509)"/>
<path d="M384.543 532.616L369.409 585.298L383.069 577.412L517.65 108.751L507.363 102.814L511.056 89.9497L497.829 97.5874L374.561 526.856L384.543 532.616Z" fill="url(#paint4_linear_557_3509)"/>
<path d="M431.672 494.676L412.846 560.216L426.648 552.248L564.882 70.8715L554.493 64.8743L541.408 72.4267L421.794 488.977L431.672 494.676Z" fill="url(#paint5_linear_557_3509)"/>
</g>
<path d="M323.43 198.276L88.5016 333.912V427.389L278.943 317.436L323.43 198.276Z" fill="url(#paint6_linear_557_3509)"/>
<path d="M426.647 552.248L661.58 416.612V323.135L471.135 433.088L426.647 552.248Z" fill="url(#paint7_linear_557_3509)"/>
<path d="M661.58 323.135L434.204 191.86L411.18 272.047L661.58 416.612V323.135Z" fill="url(#paint8_linear_557_3509)"/>
<path d="M88.5016 427.389L316.041 558.763L339.068 478.577L88.5016 333.912V427.389Z" fill="url(#paint9_linear_557_3509)"/>
</g>
<defs>
<linearGradient id="paint0_linear_557_3509" x1="205.378" y1="402.747" x2="327.081" y2="473.009" gradientUnits="userSpaceOnUse">
<stop stop-color="#1595E7"/>
<stop offset="0.5" stop-color="#52B384"/>
<stop offset="1" stop-color="#F7B457"/>
</linearGradient>
<linearGradient id="paint1_linear_557_3509" x1="249.124" y1="377.575" x2="370.824" y2="447.837" gradientUnits="userSpaceOnUse">
<stop stop-color="#429BCA"/>
<stop offset="0.5" stop-color="#52B384"/>
<stop offset="1" stop-color="#CAAE74"/>
</linearGradient>
<linearGradient id="paint2_linear_557_3509" x1="292.867" y1="352.4" x2="414.568" y2="422.665" gradientUnits="userSpaceOnUse">
<stop stop-color="#6FA1AD"/>
<stop offset="0.5" stop-color="#52B384"/>
<stop offset="1" stop-color="#9DA891"/>
</linearGradient>
<linearGradient id="paint3_linear_557_3509" x1="457.448" y1="397.99" x2="335.747" y2="327.727" gradientUnits="userSpaceOnUse">
<stop stop-color="#6FA1AD"/>
<stop offset="0.5" stop-color="#52B384"/>
<stop offset="1" stop-color="#9DA891"/>
</linearGradient>
<linearGradient id="paint4_linear_557_3509" x1="501.192" y1="372.817" x2="379.49" y2="302.554" gradientUnits="userSpaceOnUse">
<stop stop-color="#429BCA"/>
<stop offset="0.5" stop-color="#52B384"/>
<stop offset="1" stop-color="#CAAE74"/>
</linearGradient>
<linearGradient id="paint5_linear_557_3509" x1="544.699" y1="347.78" x2="423" y2="277.514" gradientUnits="userSpaceOnUse">
<stop stop-color="#1595E7"/>
<stop offset="0.5" stop-color="#52B384"/>
<stop offset="1" stop-color="#F7B457"/>
</linearGradient>
<linearGradient id="paint6_linear_557_3509" x1="88.5016" y1="312.834" x2="323.43" y2="312.834" gradientUnits="userSpaceOnUse">
<stop stop-color="#9F0D47"/>
<stop offset="1" stop-color="#190941"/>
</linearGradient>
<linearGradient id="paint7_linear_557_3509" x1="661.578" y1="437.693" x2="426.649" y2="437.693" gradientUnits="userSpaceOnUse">
<stop stop-color="#9F0D47"/>
<stop offset="1" stop-color="#190941"/>
</linearGradient>
<linearGradient id="paint8_linear_557_3509" x1="661.578" y1="304.237" x2="411.182" y2="304.237" gradientUnits="userSpaceOnUse">
<stop stop-color="#E02D2D"/>
<stop offset="1" stop-color="#FFF873"/>
</linearGradient>
<linearGradient id="paint9_linear_557_3509" x1="88.4995" y1="446.338" x2="339.069" y2="446.338" gradientUnits="userSpaceOnUse">
<stop stop-color="#E02D2D"/>
<stop offset="1" stop-color="#FFF873"/>
</linearGradient>
<clipPath id="clip0_557_3509">
<rect width="750" height="750" fill="white"/>
</clipPath>
</defs>
</svg>
