<svg width="600" height="600" viewBox="0 0 600 600" fill="none" xmlns="http://www.w3.org/2000/svg">
<g clip-path="url(#clip0_1317_734)">
<mask id="mask0_1317_734" style="mask-type:alpha" maskUnits="userSpaceOnUse" x="0" y="0" width="600" height="600">
<path fill-rule="evenodd" clip-rule="evenodd" d="M600 0H0V600H600V0ZM357 38H244V75H357V38Z" fill="#D9D9D9"/>
</mask>
<g mask="url(#mask0_1317_734)">
<path d="M212 51.1899H299.51" stroke="#95F5E8" stroke-width="2.87" stroke-miterlimit="10"/>
<path d="M387.99 51.3199L299.51 51.1899" stroke="#95F5E8" stroke-width="2.87" stroke-miterlimit="10"/>
<path d="M212 549.85H299.51" stroke="#95F5E8" stroke-width="2.87" stroke-miterlimit="10"/>
<path d="M387.99 549.98L299.51 549.85" stroke="#95F5E8" stroke-width="2.87" stroke-miterlimit="10"/>
<path d="M212 57.8899H300.21" stroke="#95F5E8" stroke-width="1.91" stroke-miterlimit="10"/>
<path d="M387.99 57.8899H299.93" stroke="#95F5E8" stroke-width="1.91" stroke-miterlimit="10"/>
<path d="M212 543.16H300.21" stroke="#95F5E8" stroke-width="1.91" stroke-miterlimit="10"/>
<path d="M387.99 543.16H299.93" stroke="#95F5E8" stroke-width="1.91" stroke-miterlimit="10"/>
<path d="M212 64.5801H300.21" stroke="#FCEB7B" stroke-width="1.91" stroke-miterlimit="10"/>
<path d="M387.99 64.5801H300.21" stroke="#FCEB7B" stroke-width="1.91" stroke-miterlimit="10"/>
<path d="M212 536.47H300.21" stroke="#FCEB7B" stroke-width="1.91" stroke-miterlimit="10"/>
<path d="M387.99 536.47H300.21" stroke="#FCEB7B" stroke-width="1.91" stroke-miterlimit="10"/>
<path d="M48.4098 336.65L27.5498 300.52L48.3298 264.53L142.92 100.71L163.78 64.5801H212.26" stroke="#FCEB7B" stroke-width="1.91" stroke-miterlimit="10"/>
<path d="M212.34 536.47H163.77L142.99 500.48" stroke="#FCEB7B" stroke-width="1.91" stroke-miterlimit="10"/>
<path d="M551.58 264.4L572.44 300.53L551.67 336.52L457.08 500.34L436.22 536.47H387.76" stroke="#FCEB7B" stroke-width="1.91" stroke-miterlimit="10"/>
<path d="M387.52 64.5801H436.22L457 100.57" stroke="#FCEB7B" stroke-width="1.91" stroke-miterlimit="10"/>
<path d="M212.34 543.16H159.91L19.8198 300.52L159.91 57.8899H212.26" stroke="#95F5E8" stroke-width="1.91" stroke-miterlimit="10"/>
<path d="M387.75 543.16H440.09L580.17 300.52L440.09 57.8899H387.53" stroke="#95F5E8" stroke-width="1.91" stroke-miterlimit="10"/>
<path d="M212.26 51.1899H156.05L124.37 106.06" stroke="#95F5E8" stroke-width="2.87" stroke-miterlimit="10"/>
<path d="M43.55 245.78L11.98 300.46L43.66 355.33L124.25 495.18L155.82 549.86H212.33" stroke="#95F5E8" stroke-width="2.87" stroke-miterlimit="10"/>
<path d="M387.75 549.98H443.73L475.41 495.11" stroke="#95F5E8" stroke-width="2.87" stroke-miterlimit="10"/>
<path d="M556.22 355.39L587.79 300.71L556.11 245.84L475.51 105.99L443.94 51.3101H387.51" stroke="#95F5E8" stroke-width="2.87" stroke-miterlimit="10"/>
<mask id="mask1_1317_734" style="mask-type:luminance" maskUnits="userSpaceOnUse" x="-571" y="-51" width="1171" height="651">
<path d="M600 0H0V600H600V0Z" fill="black"/>
</mask>
<g mask="url(#mask1_1317_734)">
<path d="M146.711 300.713L176.007 300.857C175.989 301.061 175.98 301.266 175.98 301.471H146.677C146.677 301.217 146.688 300.962 146.711 300.713Z" fill="#FCEB7B"/>
<path d="M301.732 265.893C303.88 265.903 306.045 265.924 308.169 265.955L306.34 272.806C304.625 272.781 302.875 272.764 301.138 272.756L301.732 265.893ZM295.297 265.894L295.92 272.756C294.186 272.765 292.435 272.782 290.714 272.808L288.863 265.957C290.991 265.926 293.156 265.904 295.297 265.894ZM314.587 266.081C316.723 266.133 318.876 266.197 320.984 266.27L316.693 273.06C314.993 273.001 313.257 272.95 311.533 272.908L314.587 266.081ZM282.439 266.084L285.53 272.91C283.803 272.953 282.064 273.005 280.363 273.064L276.05 266.275C278.156 266.201 280.306 266.137 282.439 266.084ZM327.339 266.523C329.442 266.617 331.563 266.723 333.645 266.838L326.909 273.519C325.23 273.426 323.519 273.34 321.822 273.264L327.339 266.523ZM269.693 266.529L275.238 273.269C273.543 273.346 271.832 273.432 270.153 273.525L263.388 266.846C265.47 266.731 267.591 266.624 269.693 266.529ZM339.893 267.217C341.954 267.354 344.03 267.502 346.062 267.659L336.913 274.18C335.275 274.054 333.601 273.934 331.939 273.824L339.893 267.217ZM257.145 267.227L265.121 273.832C263.466 273.942 261.794 274.061 260.152 274.188L250.975 267.669C253.013 267.512 255.089 267.363 257.145 267.227ZM352.162 268.162C354.169 268.34 356.188 268.529 358.161 268.727L346.663 275.041C345.072 274.882 343.445 274.729 341.828 274.586L352.162 268.162ZM244.89 268.173L255.253 274.594C253.642 274.737 252.023 274.89 250.438 275.048L238.924 268.736C240.887 268.539 242.894 268.35 244.89 268.173ZM364.05 269.351C365.982 269.567 367.922 269.796 369.817 270.032L356.06 276.093C354.532 275.903 352.967 275.718 351.409 275.543L364.05 269.351ZM233.06 269.358L245.713 275.549C244.159 275.724 242.6 275.908 241.08 276.098L227.313 270.038C229.198 269.803 231.132 269.574 233.06 269.358ZM375.452 270.771C377.297 271.025 379.146 271.292 380.947 271.564L365.041 277.329C363.587 277.109 362.096 276.894 360.608 276.689L375.452 270.771ZM221.697 270.775L236.545 276.692C235.06 276.897 233.572 277.112 232.124 277.331L216.214 271.567C218.01 271.295 219.855 271.028 221.697 270.775ZM386.29 272.411C388.036 272.701 389.779 273.003 391.473 273.31L373.542 278.739C372.174 278.492 370.765 278.247 369.355 278.013L386.29 272.411ZM210.883 272.412L227.816 278.014C226.413 278.247 225.007 278.491 223.637 278.739L205.707 273.31C207.402 273.003 209.144 272.701 210.883 272.412ZM200.699 274.258L219.588 279.506C218.269 279.766 216.955 280.037 215.684 280.311L195.86 275.256C197.436 274.917 199.063 274.581 200.699 274.258ZM396.488 274.26C398.118 274.582 399.745 274.917 401.324 275.257L381.504 280.313C380.226 280.038 378.911 279.767 377.593 279.506L396.488 274.26ZM191.209 276.299L211.922 281.155C210.702 281.44 209.489 281.737 208.317 282.035L186.748 277.389C188.197 277.019 189.698 276.653 191.209 276.299ZM405.979 276.302C407.494 276.657 408.994 277.023 410.437 277.39L388.868 282.037C387.701 281.74 386.488 281.444 385.262 281.156L405.979 276.302ZM182.486 278.521L204.874 282.95C203.755 283.261 202.652 283.58 201.596 283.899L178.432 279.695C179.738 279.3 181.102 278.905 182.486 278.521ZM414.696 278.523C416.076 278.905 417.439 279.3 418.747 279.695L395.582 283.899C394.525 283.58 393.424 283.261 392.31 282.952L414.696 278.523ZM422.582 280.907C423.822 281.317 425.038 281.737 426.197 282.156L401.596 285.886C400.662 285.548 399.681 285.209 398.68 284.878L422.582 280.907ZM174.59 280.909L198.495 284.879C197.493 285.21 196.51 285.55 195.572 285.889L170.972 282.16C172.133 281.739 173.35 281.319 174.59 280.909ZM429.58 283.439C430.663 283.87 431.722 284.313 432.727 284.754L406.869 287.984C406.057 287.627 405.203 287.27 404.328 286.922L429.58 283.439ZM167.579 283.447L192.836 286.927C191.958 287.277 191.101 287.635 190.289 287.992L164.425 284.766C165.431 284.323 166.492 283.879 167.579 283.447ZM435.634 286.1C436.558 286.551 437.452 287.013 438.293 287.473L411.356 290.175C410.678 289.805 409.957 289.433 409.212 289.069L435.634 286.1ZM161.51 286.117L187.94 289.081C187.191 289.448 186.467 289.822 185.789 290.193L158.845 287.495C159.686 287.035 160.582 286.571 161.51 286.117ZM440.699 288.871C441.459 289.341 442.184 289.821 442.855 290.296L415.031 292.45C414.492 292.067 413.907 291.681 413.295 291.302L440.699 288.871ZM156.433 288.899L183.843 291.326C183.235 291.703 182.651 292.09 182.108 292.477L154.277 290.329C154.951 289.849 155.676 289.368 156.433 288.899ZM444.748 291.741C445.332 292.223 445.879 292.714 446.375 293.202L417.87 294.793C417.47 294.399 417.028 294.003 416.557 293.614L444.748 291.741ZM152.389 291.774L180.588 293.641C180.119 294.03 179.679 294.427 179.281 294.82L150.768 293.237C151.262 292.749 151.808 292.257 152.389 291.774ZM447.736 294.68C448.14 295.171 448.507 295.672 448.824 296.168L419.844 297.185C419.588 296.783 419.292 296.379 418.965 295.983L447.736 294.68ZM149.415 294.714L178.19 296.011C177.865 296.407 177.571 296.811 177.317 297.212L148.332 296.203C148.647 295.706 149.011 295.205 149.415 294.714ZM449.642 297.667C449.868 298.166 450.052 298.672 450.188 299.171L420.944 299.608C420.834 299.205 420.686 298.796 420.503 298.393L449.642 297.667ZM147.519 297.702L176.662 298.42C176.481 298.824 176.334 299.233 176.225 299.637L146.98 299.205C147.114 298.706 147.296 298.201 147.519 297.702Z" fill="#FCEB7B"/>
<path d="M450.466 300.713C450.489 300.965 450.501 301.221 450.501 301.471H421.198C421.198 301.266 421.188 301.061 421.17 300.857L450.466 300.713Z" fill="#FCEB7B"/>
<path d="M221.976 170.318L236.749 195.617C236.917 195.499 237.089 195.389 237.267 195.286L222.616 169.909C222.396 170.036 222.18 170.174 221.976 170.318Z" fill="#FCEB7B"/>
<path d="M274.979 318.034C275.854 319.534 276.744 321.041 277.623 322.514L272.604 327.524C271.515 325.7 270.415 323.835 269.332 321.98L274.979 318.034ZM262.953 310.803L269.811 308.981C270.65 310.484 271.511 312.009 272.37 313.515L266.115 316.407C265.054 314.547 263.99 312.662 262.953 310.803ZM280.307 326.96C281.206 328.433 282.119 329.91 283.019 331.353L279.284 338.464C278.167 336.675 277.036 334.843 275.922 333.019L280.307 326.96ZM256.822 299.548L264.858 299.889C265.658 301.391 266.482 302.923 267.308 304.44L259.851 305.176C258.83 303.302 257.811 301.408 256.822 299.548ZM285.761 335.693C286.675 337.124 287.605 338.563 288.524 339.971L286.107 349.145C284.967 347.4 283.814 345.616 282.681 343.842L285.761 335.693ZM250.986 288.297L260.152 290.816C260.911 292.316 261.692 293.841 262.473 295.347L253.863 293.916C252.894 292.048 251.926 290.157 250.986 288.297ZM291.304 344.175C292.23 345.559 293.171 346.948 294.099 348.304L293.026 359.489C291.874 357.806 290.708 356.083 289.559 354.366L291.304 344.175ZM245.492 277.135L255.726 281.823C256.437 283.309 257.169 284.816 257.902 286.304L248.194 282.7C247.283 280.851 246.374 278.978 245.492 277.135ZM296.908 352.358C297.841 353.687 298.786 355.02 299.72 356.318L300.001 369.432C298.843 367.822 297.67 366.169 296.512 364.519L296.908 352.358ZM240.39 266.165L251.614 272.981C252.269 274.432 252.946 275.911 253.628 277.377L242.886 271.613C242.041 269.796 241.202 267.964 240.39 266.165ZM302.528 360.177C303.458 361.438 304.401 362.701 305.33 363.93L306.959 378.874C305.808 377.351 304.639 375.785 303.485 374.22L302.528 360.177ZM235.712 255.459L247.844 264.352C248.44 265.763 249.059 267.205 249.685 268.638L237.997 260.775C237.22 258.998 236.452 257.209 235.712 255.459ZM308.12 367.57C309.041 368.756 309.973 369.94 310.891 371.089L313.851 387.747C312.714 386.323 311.558 384.855 310.416 383.384L308.12 367.57ZM231.487 245.083L244.434 255.978C244.968 257.343 245.526 258.738 246.091 260.127L233.542 250.227C232.841 248.505 232.149 246.774 231.487 245.083ZM313.64 374.483C314.548 375.588 315.464 376.685 316.362 377.746L320.626 395.989C319.514 394.676 318.38 393.317 317.256 391.95L313.64 374.483ZM227.743 235.111L241.41 247.924C241.88 249.235 242.372 250.575 242.871 251.906L229.553 240.043C228.934 238.393 228.324 236.733 227.743 235.111ZM224.504 225.611L238.794 240.251C239.193 241.489 239.615 242.762 240.049 244.035L226.06 230.3C225.522 228.722 224.999 227.145 224.504 225.611ZM319.052 380.871C319.936 381.882 320.829 382.886 321.706 383.855L327.237 403.547C326.154 402.35 325.05 401.109 323.956 399.858L319.052 380.871ZM221.795 216.653L236.604 233.009C236.931 234.173 237.281 235.372 237.644 236.572L223.082 221.061C222.633 219.576 222.2 218.093 221.795 216.653ZM324.315 386.687C325.177 387.606 326.041 388.508 326.881 389.37L333.642 410.373C332.602 409.307 331.535 408.191 330.47 407.056L324.315 386.687ZM219.635 208.298L234.858 226.257C235.109 227.331 235.384 228.446 235.675 229.57L220.645 212.395C220.286 211.005 219.946 209.627 219.635 208.298ZM329.394 391.893C330.219 392.704 331.046 393.498 331.851 394.254L339.793 416.417C338.796 415.481 337.773 414.499 336.752 413.495L329.394 391.893ZM334.248 396.447C335.034 397.148 335.819 397.828 336.579 398.468L345.649 421.638C344.706 420.844 343.735 420.001 342.76 419.132L334.248 396.447ZM218.039 200.605L233.57 220.045C233.745 221.026 233.942 222.048 234.156 223.082L218.765 204.364C218.5 203.085 218.256 201.82 218.039 200.605ZM338.842 400.316C339.58 400.9 340.317 401.461 341.032 401.986L351.164 425.994C350.279 425.345 349.366 424.649 348.452 423.926L338.842 400.316ZM217.023 193.633L232.749 214.418C232.846 215.299 232.964 216.221 233.1 217.156L217.458 197.024C217.289 195.866 217.143 194.725 217.023 193.633ZM343.143 403.473C343.831 403.936 344.514 404.374 345.173 404.776L356.302 429.455C355.483 428.957 354.636 428.413 353.783 427.839L343.143 403.473ZM216.597 187.435L232.405 209.421C232.423 210.193 232.461 211.007 232.518 211.84L216.735 190.433C216.665 189.402 216.618 188.393 216.597 187.435ZM347.119 405.892C347.753 406.233 348.379 406.546 348.98 406.822L361.027 431.995C360.28 431.652 359.502 431.263 358.715 430.84L347.119 405.892ZM216.766 182.062L232.542 205.091C232.479 205.754 232.436 206.454 232.414 207.169L216.607 184.644C216.634 183.755 216.688 182.886 216.766 182.062ZM350.752 407.561C351.324 407.774 351.888 407.958 352.429 408.108L365.304 433.59C364.634 433.405 363.934 433.176 363.225 432.912L350.752 407.561ZM217.53 177.57L233.158 201.47C233.016 202.012 232.893 202.592 232.79 203.192L217.075 179.705C217.201 178.96 217.355 178.241 217.53 177.57ZM354.007 408.462C354.514 408.547 355.012 408.601 355.487 408.622L369.097 434.228C368.508 434.201 367.892 434.134 367.264 434.029L354.007 408.462ZM218.881 173.976L234.247 198.574C234.027 198.994 233.824 199.451 233.644 199.93L218.133 175.659C218.357 175.064 218.609 174.498 218.881 173.976ZM356.863 408.589C357.304 408.546 357.732 408.47 358.136 408.363L372.38 433.907C371.879 434.039 371.349 434.134 370.804 434.187L356.863 408.589ZM220.805 171.305L235.801 196.416C235.506 196.712 235.225 197.044 234.966 197.403L219.773 172.523C220.093 172.08 220.44 171.671 220.805 171.305Z" fill="#FCEB7B"/>
<path d="M373.854 433.378C374.084 433.272 374.311 433.154 374.528 433.029L359.876 407.651C359.699 407.754 359.517 407.848 359.331 407.935L373.854 433.378Z" fill="#FCEB7B"/>
<path d="M373.854 169.539L359.331 194.983C359.517 195.069 359.699 195.164 359.877 195.267L374.528 169.889C374.308 169.762 374.081 169.645 373.854 169.539Z" fill="#FCEB7B"/>
<path d="M272.429 289.299C271.568 290.807 270.708 292.331 269.872 293.829L263.024 291.988C264.059 290.133 265.124 288.247 266.188 286.382L272.429 289.299ZM272.679 275.269L277.686 280.297C276.804 281.775 275.913 283.283 275.039 284.78L269.407 280.81C270.487 278.96 271.588 277.096 272.679 275.269ZM267.363 298.377C266.538 299.892 265.714 301.421 264.915 302.922L256.889 303.243C257.88 301.381 258.901 299.485 259.924 297.609L267.363 298.377ZM279.36 264.332L283.084 271.462C282.182 272.906 281.268 274.385 280.367 275.86L276.001 269.769C277.113 267.948 278.244 266.119 279.36 264.332ZM262.527 307.466C261.745 308.973 260.964 310.498 260.205 311.999L251.051 314.492C251.992 312.632 252.961 310.742 253.93 308.873L262.527 307.466ZM286.186 253.652L288.588 262.85C287.668 264.257 286.738 265.696 285.824 267.126L282.759 258.954C283.892 257.18 285.045 255.397 286.186 253.652ZM257.954 316.508C257.218 318.002 256.485 319.511 255.775 320.993L245.552 325.656C246.433 323.817 247.343 321.946 248.255 320.092L257.954 316.508ZM293.106 243.313L294.163 254.52C293.232 255.879 292.292 257.267 291.369 258.645L289.637 248.436C290.783 246.723 291.95 244.999 293.106 243.313ZM253.669 325.452C252.984 326.925 252.303 328.41 251.645 329.867L240.428 336.668C241.244 334.86 242.089 333.017 242.939 331.19L253.669 325.452ZM300.055 233.41L299.764 246.538C298.835 247.831 297.893 249.157 296.964 250.481L296.585 238.296C297.736 236.656 298.903 235.012 300.055 233.41ZM249.707 334.229C249.08 335.665 248.457 337.113 247.858 338.532L235.731 347.415C236.474 345.656 237.245 343.861 238.024 342.08L249.707 334.229ZM306.988 224.006L305.352 238.958C304.428 240.18 303.489 241.438 302.561 242.696L303.526 228.643C304.677 227.081 305.842 225.521 306.988 224.006ZM246.101 342.768C245.534 344.159 244.975 345.558 244.438 346.928L231.493 357.82C232.157 356.124 232.85 354.389 233.553 352.664L246.101 342.768ZM313.861 215.158L310.899 231.819C309.984 232.963 309.054 234.144 308.135 235.328L310.434 219.511C311.574 218.042 312.728 216.578 313.861 215.158ZM242.874 351.005C242.371 352.344 241.878 353.686 241.409 354.994L227.742 367.808C228.323 366.189 228.933 364.527 229.555 362.87L242.874 351.005ZM320.625 206.93L316.361 225.173C315.461 226.235 314.547 227.331 313.644 228.429L317.259 210.964C318.378 209.602 319.511 208.245 320.625 206.93ZM327.233 199.376L321.699 219.071C320.826 220.035 319.935 221.037 319.049 222.05L323.95 203.067C325.047 201.812 326.152 200.571 327.233 199.376ZM240.048 358.886C239.614 360.157 239.191 361.433 238.791 362.677L224.502 377.313C224.997 375.776 225.52 374.199 226.056 372.626L240.048 358.886ZM333.636 192.551L326.876 213.553C326.031 214.419 325.168 215.321 324.311 216.235L330.462 195.869C331.524 194.738 332.592 193.621 333.636 192.551ZM237.642 366.353C237.278 367.558 236.928 368.757 236.602 369.916L221.793 386.272C222.196 384.839 222.629 383.357 223.079 381.867L237.642 366.353ZM339.792 186.502L331.85 208.665C331.046 209.42 330.218 210.215 329.39 211.029L336.748 189.426C337.773 188.42 338.797 187.436 339.792 186.502ZM235.673 373.354C235.384 374.474 235.109 375.587 234.858 376.662L219.634 394.622C219.946 393.29 220.286 391.913 220.644 390.527L235.673 373.354ZM234.156 379.834C233.942 380.866 233.745 381.885 233.571 382.863L218.041 402.303C218.257 401.09 218.501 399.827 218.766 398.549L234.156 379.834ZM345.656 181.274L336.586 204.443C335.823 205.086 335.037 205.767 334.249 206.469L342.764 183.782C343.739 182.913 344.712 182.069 345.656 181.274ZM233.102 385.747C232.966 386.679 232.848 387.598 232.751 388.479L217.026 409.258C217.146 408.167 217.292 407.028 217.46 405.875L233.102 385.747ZM351.186 176.907L341.049 200.919C340.334 201.444 339.595 202.007 338.853 202.593L348.467 178.979C349.385 178.254 350.3 177.557 351.186 176.907ZM232.519 391.051C232.462 391.878 232.424 392.688 232.406 393.46L216.597 415.438C216.619 414.48 216.667 413.474 216.738 412.448L232.519 391.051ZM356.34 173.44L345.205 198.123C344.544 198.524 343.858 198.964 343.166 199.43L353.814 175.058C354.671 174.482 355.521 173.937 356.34 173.44ZM232.412 395.703C232.434 396.423 232.476 397.122 232.538 397.781L216.761 420.8C216.684 419.981 216.632 419.113 216.605 418.22L232.412 395.703ZM361.078 170.9L349.023 196.076C348.417 196.354 347.789 196.666 347.159 197.004L358.762 172.053C359.547 171.632 360.326 171.244 361.078 170.9ZM232.783 399.684C232.884 400.286 233.007 400.867 233.148 401.41L217.517 425.301C217.343 424.628 217.191 423.908 217.065 423.161L232.783 399.684ZM365.351 169.315L352.466 194.8C351.926 194.948 351.362 195.131 350.791 195.342L363.274 169.988C363.983 169.725 364.681 169.499 365.351 169.315ZM233.631 402.953C233.81 403.435 234.013 403.893 234.232 404.316L218.862 428.905C218.59 428.382 218.34 427.814 218.117 427.218L233.631 402.953ZM369.138 168.689L355.519 194.295C355.045 194.314 354.548 194.367 354.043 194.45L367.307 168.882C367.934 168.778 368.55 168.713 369.138 168.689ZM234.949 405.49C235.206 405.851 235.486 406.184 235.78 406.48L220.781 431.588C220.416 431.22 220.069 430.808 219.751 430.363L234.949 405.49ZM372.414 169.019L358.165 194.562C357.761 194.454 357.333 194.377 356.893 194.332L370.843 168.735C371.386 168.79 371.915 168.886 372.414 169.019Z" fill="#FCEB7B"/>
<path d="M221.977 432.6C222.184 432.746 222.399 432.884 222.616 433.009L237.268 407.632C237.09 407.529 236.918 407.418 236.75 407.301L221.977 432.6Z" fill="#FCEB7B"/>
<path d="M298.589 321.921C309.89 321.921 319.051 312.759 319.051 301.458C319.051 290.157 309.89 280.996 298.589 280.996C287.288 280.996 278.126 290.157 278.126 301.458C278.126 312.759 287.288 321.921 298.589 321.921Z" fill="#95F5E8"/>
<path d="M298.589 337.396C257.986 337.396 219.811 333.692 191.094 326.965C162.232 320.204 146.337 311.15 146.337 301.471V301.132H176.319V301.471C176.319 308.969 188.98 316.065 211.968 321.45C235.102 326.869 265.865 329.853 298.589 329.853C331.313 329.853 362.076 326.869 385.209 321.45C408.198 316.065 420.859 308.969 420.859 301.471V301.132H450.84V301.471C450.84 311.15 434.946 320.204 406.084 326.965C377.367 333.692 339.191 337.396 298.589 337.396Z" fill="#95F5E8"/>
<path d="M450.501 301.471C450.501 310.976 434.7 319.913 406.007 326.634C377.315 333.355 339.166 337.057 298.589 337.057C258.012 337.057 219.863 333.355 191.171 326.634C162.478 319.913 146.677 310.976 146.677 301.471H175.98C175.98 309.143 188.733 316.355 211.891 321.78C235.049 327.205 265.839 330.193 298.589 330.193C331.339 330.193 362.129 327.205 385.287 321.78C408.444 316.355 421.198 309.143 421.198 301.471H450.501ZM451.18 300.792H420.52V301.471C420.52 305.026 417.516 308.528 411.593 311.878C405.497 315.325 396.594 318.435 385.132 321.12C362.023 326.533 331.289 329.514 298.589 329.514C265.889 329.514 235.155 326.533 212.046 321.12C200.584 318.435 191.681 315.325 185.586 311.878C179.662 308.528 176.659 305.026 176.659 301.471V300.792H145.999V301.471C145.999 306.464 149.979 311.247 157.83 315.687C165.509 320.03 176.674 323.935 191.016 327.295C219.758 334.027 257.961 337.735 298.589 337.735C339.217 337.735 377.42 334.027 406.162 327.295C420.504 323.935 431.669 320.03 439.348 315.687C447.199 311.247 451.18 306.464 451.18 301.471L451.18 300.792Z" fill="#182C36"/>
<path d="M359.414 407.526L359.708 407.357C366.201 403.608 366.016 389.096 359.185 366.494C352.312 343.751 339.515 315.618 323.152 287.277C306.79 258.937 288.825 233.788 272.565 216.463C255.636 198.425 246.171 194.639 241.213 194.639C239.788 194.639 238.518 194.956 237.438 195.579L237.144 195.749L222.153 169.784L222.447 169.615C223.903 168.774 225.604 168.348 227.504 168.348C236.529 168.348 250.153 177.781 266.903 195.628C287.087 217.133 309.383 248.342 329.685 283.505C349.986 318.668 365.865 353.581 374.399 381.815C382.974 410.19 383.08 428.482 374.698 433.322L374.404 433.491L359.414 407.526Z" fill="#95F5E8"/>
<path d="M227.504 168.687C236.359 168.687 249.955 178.067 266.655 195.86C286.822 217.348 309.102 248.535 329.391 283.675C349.679 318.816 365.548 353.705 374.073 381.914C382.599 410.123 382.76 428.276 374.528 433.028L359.877 407.651C366.521 403.815 366.39 389.164 359.509 366.396C352.629 343.629 339.821 315.47 323.446 287.107C307.071 258.745 289.089 233.574 272.812 216.231C259.332 201.869 248.36 194.3 241.213 194.3C239.729 194.3 238.41 194.627 237.268 195.286L222.616 169.909C224.032 169.092 225.665 168.687 227.504 168.687ZM227.504 168.009C225.544 168.009 223.785 168.45 222.277 169.321L221.689 169.66L222.029 170.248L236.68 195.625L237.019 196.213L237.607 195.873C238.636 195.28 239.849 194.979 241.213 194.979C244.637 194.979 249.024 196.815 254.251 200.438C259.579 204.129 265.657 209.599 272.317 216.695C288.56 234.002 306.509 259.129 322.858 287.447C339.208 315.765 351.994 343.873 358.86 366.592C362.266 377.861 364.024 387.126 364.086 394.129C364.147 400.934 362.617 405.286 359.538 407.063L358.95 407.403L359.289 407.99L373.941 433.367L374.28 433.955L374.868 433.616C379.192 431.119 381.344 425.28 381.263 416.261C381.185 407.44 378.984 395.818 374.723 381.717C366.183 353.46 350.292 318.521 329.978 283.336C309.664 248.151 287.351 216.92 267.15 195.396C250.334 177.479 236.625 168.009 227.504 168.009Z" fill="#182C36"/>
<path d="M227.504 434.569C225.604 434.569 223.902 434.143 222.447 433.302L222.153 433.133L237.144 407.168L237.438 407.338C238.519 407.961 239.789 408.278 241.213 408.278C246.172 408.277 255.636 404.491 272.565 386.453C288.824 369.13 306.79 343.981 323.153 315.64C339.515 287.299 352.312 259.166 359.185 236.423C366.016 213.821 366.201 199.309 359.708 195.56L359.414 195.39L374.405 169.426L374.699 169.595C383.08 174.435 382.974 192.727 374.399 221.102C365.866 249.334 349.987 284.248 329.685 319.411C309.384 354.574 287.087 385.783 266.903 407.289C250.153 425.136 236.53 434.569 227.505 434.569H227.504Z" fill="#95F5E8"/>
<path d="M374.529 169.889C382.76 174.642 382.599 192.794 374.073 221.004C365.548 249.212 349.679 284.101 329.391 319.242C309.102 354.382 286.822 385.569 266.655 407.057C249.954 424.852 236.359 434.23 227.504 434.23C225.666 434.23 224.031 433.826 222.616 433.009L237.268 407.631C238.41 408.291 239.728 408.617 241.213 408.617C248.36 408.617 259.334 401.047 272.812 386.686C289.089 369.343 307.071 344.172 323.446 315.809C339.821 287.447 352.629 259.289 359.51 236.521C366.391 213.753 366.521 199.102 359.877 195.266L374.529 169.889ZM374.28 168.962L373.941 169.55L359.289 194.927L358.95 195.515L359.538 195.854C362.617 197.632 364.147 201.983 364.087 208.788C364.024 215.791 362.266 225.056 358.86 236.325C351.994 259.044 339.208 287.152 322.858 315.47C306.509 343.789 288.559 368.915 272.317 386.221C265.657 393.317 259.579 398.787 254.252 402.479C249.024 406.102 244.637 407.939 241.213 407.939C239.849 407.939 238.636 407.638 237.607 407.044L237.02 406.705L236.68 407.292L222.029 432.669L221.689 433.257L222.277 433.596C223.785 434.467 225.544 434.908 227.504 434.908C236.625 434.908 250.335 425.438 267.15 407.522C287.352 385.997 309.665 354.766 329.979 319.581C350.292 284.396 366.183 249.457 374.723 221.2C378.984 207.1 381.185 195.477 381.263 186.656C381.344 177.637 379.192 171.798 374.868 169.302L374.28 168.962Z" fill="#182C36"/>
<mask id="mask2_1317_734" style="mask-type:luminance" maskUnits="userSpaceOnUse" x="308" y="328" width="18" height="11">
<path d="M324.478 328.194C321.212 328.358 317.885 328.492 314.587 328.592L314.031 328.913C312.296 331.717 310.516 334.532 308.74 337.279L309.321 338.326C312.623 338.272 315.989 338.191 319.327 338.085L319.882 337.765C321.644 334.925 323.398 332.051 325.093 329.221L324.478 328.194Z" fill="white"/>
</mask>
<g mask="url(#mask2_1317_734)">
<path d="M359.414 407.526L359.708 407.357C366.201 403.608 366.016 389.095 359.185 366.494C352.312 343.75 339.515 315.617 323.152 287.277C306.79 258.937 288.825 233.788 272.565 216.463C255.636 198.425 246.171 194.639 241.213 194.639C239.788 194.639 238.518 194.955 237.438 195.579L237.144 195.749L222.153 169.784L222.447 169.614C223.903 168.774 225.604 168.348 227.504 168.348C236.529 168.348 250.153 177.781 266.903 195.628C287.087 217.133 309.383 248.342 329.685 283.505C349.986 318.667 365.865 353.581 374.399 381.815C382.974 410.19 383.08 428.482 374.698 433.322L374.404 433.491L359.414 407.526Z" fill="#95F5E8"/>
<path d="M227.504 168.687C236.359 168.687 249.955 178.067 266.655 195.86C286.822 217.347 309.102 248.534 329.391 283.675C349.679 318.816 365.548 353.704 374.073 381.913C382.599 410.123 382.76 428.275 374.528 433.028L359.877 407.651C366.521 403.815 366.39 389.163 359.509 366.396C352.629 343.628 339.821 315.469 323.446 287.107C307.071 258.745 289.089 233.574 272.812 216.231C259.332 201.869 248.36 194.3 241.213 194.3C239.729 194.3 238.41 194.626 237.268 195.286L222.616 169.908C224.032 169.091 225.665 168.687 227.504 168.687ZM227.504 168.009C225.544 168.009 223.785 168.45 222.277 169.321L221.689 169.66L222.029 170.248L236.68 195.625L237.019 196.212L237.607 195.873C238.636 195.28 239.849 194.978 241.213 194.978C244.637 194.978 249.024 196.815 254.251 200.437C259.579 204.129 265.657 209.599 272.317 216.695C288.56 234.002 306.509 259.128 322.858 287.446C339.208 315.765 351.994 343.873 358.86 366.592C362.266 377.861 364.024 387.126 364.086 394.129C364.147 400.934 362.617 405.285 359.538 407.063L358.95 407.402L359.289 407.99L373.941 433.367L374.28 433.955L374.868 433.616C379.192 431.119 381.344 425.28 381.263 416.261C381.185 407.44 378.984 395.818 374.723 381.717C366.183 353.459 350.292 318.52 329.978 283.336C309.664 248.151 287.351 216.92 267.15 195.396C250.334 177.479 236.625 168.009 227.504 168.009Z" fill="#182C36"/>
<path d="M227.504 434.569C225.604 434.569 223.902 434.142 222.447 433.302L222.153 433.133L237.144 407.168L237.438 407.337C238.519 407.961 239.789 408.278 241.213 408.277C246.172 408.277 255.636 404.49 272.565 386.453C288.824 369.129 306.79 343.98 323.153 315.639C339.515 287.299 352.312 259.165 359.185 236.422C366.016 213.821 366.201 199.309 359.708 195.56L359.414 195.39L374.405 169.425L374.699 169.595C383.08 174.434 382.974 192.726 374.399 221.101C365.866 249.334 349.987 284.247 329.685 319.411C309.384 354.574 287.087 385.783 266.903 407.289C250.153 425.135 236.53 434.569 227.505 434.569H227.504Z" fill="#95F5E8"/>
<path d="M374.529 169.889C382.76 174.642 382.599 192.794 374.073 221.003C365.548 249.212 349.679 284.101 329.391 319.241C309.102 354.382 286.822 385.569 266.655 407.057C249.954 424.852 236.359 434.23 227.504 434.23C225.666 434.23 224.031 433.825 222.616 433.008L237.268 407.631C238.41 408.291 239.728 408.617 241.213 408.617C248.36 408.617 259.334 401.046 272.812 386.686C289.089 369.343 307.071 344.171 323.446 315.809C339.821 287.447 352.629 259.289 359.51 236.521C366.391 213.753 366.521 199.102 359.877 195.266L374.529 169.889ZM374.28 168.962L373.941 169.55L359.289 194.927L358.95 195.514L359.538 195.854C362.617 197.631 364.147 201.983 364.087 208.788C364.024 215.791 362.266 225.055 358.86 236.324C351.994 259.044 339.208 287.152 322.858 315.47C306.509 343.789 288.559 368.915 272.317 386.221C265.657 393.317 259.579 398.787 254.252 402.479C249.024 406.101 244.637 407.938 241.213 407.938C239.849 407.938 238.636 407.637 237.607 407.044L237.02 406.704L236.68 407.292L222.029 432.669L221.689 433.257L222.277 433.596C223.785 434.467 225.544 434.908 227.504 434.908C236.625 434.908 250.335 425.438 267.15 407.521C287.352 385.997 309.665 354.765 329.979 319.581C350.292 284.396 366.183 249.457 374.723 221.2C378.984 207.099 381.185 195.477 381.263 186.656C381.344 177.637 379.192 171.798 374.868 169.301L374.28 168.962Z" fill="#182C36"/>
<path d="M298.589 337.396C257.986 337.396 219.811 333.691 191.094 326.964C162.232 320.203 146.337 311.15 146.337 301.471V301.132H176.319V301.471C176.319 308.969 188.98 316.064 211.968 321.45C235.102 326.869 265.865 329.853 298.589 329.853C331.313 329.853 362.076 326.869 385.209 321.45C408.198 316.064 420.859 308.969 420.859 301.471V301.132H450.84V301.471C450.84 311.15 434.946 320.203 406.084 326.964C377.367 333.691 339.191 337.396 298.589 337.396Z" fill="#95F5E8"/>
<path d="M450.501 301.471C450.501 310.976 434.7 319.912 406.007 326.634C377.315 333.355 339.166 337.057 298.589 337.057C258.012 337.057 219.863 333.355 191.171 326.634C162.478 319.912 146.677 310.976 146.677 301.471H175.98C175.98 309.143 188.733 316.355 211.891 321.78C235.049 327.205 265.839 330.192 298.589 330.192C331.339 330.192 362.129 327.205 385.287 321.78C408.444 316.355 421.198 309.143 421.198 301.471H450.501ZM451.18 300.792H420.52V301.471C420.52 305.026 417.516 308.527 411.593 311.877C405.497 315.325 396.594 318.434 385.132 321.119C362.023 326.533 331.289 329.514 298.589 329.514C265.889 329.514 235.155 326.533 212.046 321.119C200.584 318.434 191.681 315.325 185.586 311.877C179.662 308.527 176.659 305.026 176.659 301.471V300.792H145.999V301.471C145.999 306.464 149.979 311.247 157.83 315.687C165.509 320.029 176.674 323.935 191.016 327.294C219.758 334.027 257.961 337.735 298.589 337.735C339.217 337.735 377.42 334.027 406.162 327.294C420.504 323.935 431.669 320.029 439.348 315.687C447.199 311.247 451.18 306.464 451.18 301.471L451.18 300.792Z" fill="#182C36"/>
</g>
<path d="M326.06 327.87C327.88 324.83 329.68 321.77 331.47 318.67C352.19 282.78 368.4 247.15 377.1 218.34C385.8 189.55 385.97 171.02 377.59 166.16L362.64 192.05C369.42 195.98 369.28 210.95 362.26 234.19C355.23 257.44 342.15 286.2 325.43 315.17C322.87 319.6 320.27 323.95 317.65 328.21C320.48 328.12 323.28 328 326.06 327.86V327.87Z" fill="#95F5E8"/>
<path d="M311.4 338.12C298.78 357.61 285.79 374.71 273.71 387.57C256.33 406.09 246.56 409.97 241.42 409.97C239.91 409.97 238.56 409.63 237.4 408.97L222.45 434.86C223.88 435.68 225.55 436.1 227.42 436.1C236.53 436.1 250.36 426.5 267.39 408.35C284.22 390.42 302.49 365.87 319.91 337.92C317.08 338 314.24 338.07 311.39 338.12H311.4Z" fill="#95F5E8"/>
</g>
<path d="M469.22 440.28L450.93 471.95H421.82V519.04H390.35V424.87L421.82 407.18V440.28H469.22Z" fill="#182C36" stroke="#182C36" stroke-width="6.6" stroke-miterlimit="10"/>
<path d="M326.94 409.34L299.81 456.55L327.09 472.22L336.23 456.32H352.74L325.59 503.31L352.84 519.04L386.42 460.93V424.87H353.85L326.94 409.34Z" fill="#182C36" stroke="#182C36" stroke-width="6.6" stroke-miterlimit="10"/>
<path d="M295.21 457.79L296.88 454.87L314.13 424.87H230.45V456.32H285.52V471.66H254.25V486.94L244.52 503.96L271.84 519.57L285.72 495.3V472.05H299.16L304.32 463.03L298.13 459.47L295.21 457.79Z" fill="#182C36" stroke="#182C36" stroke-width="6.6" stroke-miterlimit="10"/>
<path d="M179.31 471.66H147.84V407.18L179.31 424.87V471.66ZM195.05 424.87V472.03L176.23 503.49L203.24 519.63L226.51 480.71V424.86L195.04 407.17V424.86L195.05 424.87Z" fill="#182C36" stroke="#182C36" stroke-width="6.6" stroke-miterlimit="10"/>
<path d="M437.23 119.78H414.12V97.5701H486.59V119.78H463.48V176.09H437.23V119.78Z" fill="#182C36" stroke="#182C36" stroke-width="6.6" stroke-miterlimit="10"/>
<path d="M376.1 177.77C370.64 177.77 365.46 176.8 360.56 174.85C355.66 172.91 351.34 170.14 347.6 166.55C343.86 162.96 340.89 158.66 338.68 153.65C336.47 148.64 335.37 143.11 335.37 137.05V136.83C335.37 131 336.44 125.58 338.57 120.57C340.7 115.56 343.65 111.22 347.43 107.56C351.21 103.9 355.64 101.04 360.72 98.9799C365.8 96.9199 371.26 95.8899 377.1 95.8899C381.44 95.8899 385.42 96.3899 389.05 97.3999C392.68 98.4099 395.97 99.8099 398.92 101.61C401.87 103.4 404.49 105.56 406.77 108.06C409.05 110.57 411.01 113.31 412.66 116.3L391.01 128.97C389.51 126.13 387.66 123.83 385.46 122.07C383.25 120.31 380.36 119.43 376.77 119.43C374.53 119.43 372.51 119.88 370.71 120.78C368.92 121.68 367.38 122.91 366.11 124.48C364.84 126.05 363.85 127.88 363.14 129.98C362.43 132.07 362.07 134.28 362.07 136.6V136.82C362.07 139.36 362.42 141.7 363.14 143.83C363.85 145.96 364.86 147.79 366.17 149.33C367.48 150.86 369.03 152.06 370.83 152.92C372.62 153.78 374.61 154.21 376.78 154.21C380.52 154.21 383.51 153.29 385.75 151.46C387.99 149.63 389.94 147.25 391.58 144.34L413.23 156.57C411.568 159.505 409.615 162.266 407.4 164.81C405.16 167.39 402.52 169.63 399.49 171.54C396.46 173.45 393.02 174.96 389.17 176.08C385.32 177.2 380.96 177.76 376.1 177.76V177.77Z" fill="#182C36" stroke="#182C36" stroke-width="6.6" stroke-miterlimit="10"/>
<path d="M313.22 97.01H287.2L254.11 176.09H282.15L286.19 165.55H313.67L317.82 176.09H346.31L313.22 97.01ZM292.81 146.92L299.99 127.85L307.17 146.92H292.81Z" fill="#182C36" stroke="#182C36" stroke-width="6.6" stroke-miterlimit="10"/>
<path d="M259.48 154.55H219.25V146.02H257.62V127.07H219.25V119.1H260.42V97.5701H193.46V176.09H250.46L259.48 154.55Z" fill="#182C36" stroke="#182C36" stroke-width="6.6" stroke-miterlimit="10"/>
<path d="M175.84 149.39C180.62 147.07 184.4 143.93 187.17 139.97C189.94 136.01 191.32 131.15 191.32 125.39V125.16C191.32 121.12 190.72 117.61 189.52 114.62C188.32 111.63 186.53 108.94 184.14 106.54C181.37 103.77 177.73 101.59 173.2 99.9801C168.67 98.3701 162.9 97.5701 155.87 97.5701H117.51V176.09H143.76V153.66H149.37L164.18 176.09H194.13L175.85 149.39H175.84ZM165.19 127.29C165.19 129.68 164.29 131.55 162.5 132.9C160.71 134.25 158.24 134.92 155.1 134.92H143.77V119.55H155.21C158.28 119.55 160.71 120.17 162.5 121.4C164.29 122.63 165.19 124.52 165.19 127.06V127.29Z" fill="#182C36" stroke="#182C36" stroke-width="6.6" stroke-miterlimit="10"/>
<path d="M469.22 440.28L450.93 471.95H421.82V519.04H390.35V424.87L421.82 407.18V440.28H469.22Z" fill="#FCEB7B"/>
<path d="M326.94 409.34L299.81 456.55L327.09 472.22L336.23 456.32H352.74L325.59 503.31L352.84 519.04L386.42 460.93V424.87H353.85L326.94 409.34Z" fill="#FCEB7B"/>
<path d="M295.21 457.79L296.88 454.87L314.13 424.87H230.45V456.32H285.52V471.66H254.25V486.94L244.52 503.96L271.84 519.57L285.72 495.3V472.05H299.16L304.32 463.03L298.13 459.47L295.21 457.79Z" fill="#FCEB7B"/>
<path d="M179.31 471.66H147.84V407.18L179.31 424.87V471.66ZM195.05 424.87V472.03L176.23 503.49L203.24 519.63L226.51 480.71V424.86L195.04 407.17V424.86L195.05 424.87Z" fill="#FCEB7B"/>
<path d="M437.23 119.78H414.12V97.5701H486.59V119.78H463.48V176.09H437.23V119.78Z" fill="#95F5E8"/>
<path d="M376.1 177.77C370.64 177.77 365.46 176.8 360.56 174.85C355.66 172.91 351.34 170.14 347.6 166.55C343.86 162.96 340.89 158.66 338.68 153.65C336.47 148.64 335.37 143.11 335.37 137.05V136.83C335.37 131 336.44 125.58 338.57 120.57C340.7 115.56 343.65 111.22 347.43 107.56C351.21 103.9 355.64 101.04 360.72 98.9799C365.8 96.9199 371.26 95.8899 377.1 95.8899C381.44 95.8899 385.42 96.3899 389.05 97.3999C392.68 98.4099 395.97 99.8099 398.92 101.61C401.87 103.4 404.49 105.56 406.77 108.06C409.05 110.57 411.01 113.31 412.66 116.3L391.01 128.97C389.51 126.13 387.66 123.83 385.46 122.07C383.25 120.31 380.36 119.43 376.77 119.43C374.53 119.43 372.51 119.88 370.71 120.78C368.92 121.68 367.38 122.91 366.11 124.48C364.84 126.05 363.85 127.88 363.14 129.98C362.43 132.07 362.07 134.28 362.07 136.6V136.82C362.07 139.36 362.42 141.7 363.14 143.83C363.85 145.96 364.86 147.79 366.17 149.33C367.48 150.86 369.03 152.06 370.83 152.92C372.62 153.78 374.61 154.21 376.78 154.21C380.52 154.21 383.51 153.29 385.75 151.46C387.99 149.63 389.94 147.25 391.58 144.34L413.23 156.57C411.568 159.505 409.615 162.266 407.4 164.81C405.16 167.39 402.52 169.63 399.49 171.54C396.46 173.45 393.02 174.96 389.17 176.08C385.32 177.2 380.96 177.76 376.1 177.76V177.77Z" fill="#95F5E8"/>
<path d="M313.22 97.01H287.2L254.11 176.09H282.15L286.19 165.55H313.67L317.82 176.09H346.31L313.22 97.01ZM292.81 146.92L299.99 127.85L307.17 146.92H292.81Z" fill="#95F5E8"/>
<path d="M259.48 154.55H219.25V146.02H257.62V127.07H219.25V119.1H260.42V97.5701H193.46V176.09H250.46L259.48 154.55Z" fill="#95F5E8"/>
<path d="M175.84 149.39C180.62 147.07 184.4 143.93 187.17 139.97C189.94 136.01 191.32 131.15 191.32 125.39V125.16C191.32 121.12 190.72 117.61 189.52 114.62C188.32 111.63 186.53 108.94 184.14 106.54C181.37 103.77 177.73 101.59 173.2 99.9801C168.67 98.3701 162.9 97.5701 155.87 97.5701H117.51V176.09H143.76V153.66H149.37L164.18 176.09H194.13L175.85 149.39H175.84ZM165.19 127.29C165.19 129.68 164.29 131.55 162.5 132.9C160.71 134.25 158.24 134.92 155.1 134.92H143.77V119.55H155.21C158.28 119.55 160.71 120.17 162.5 121.4C164.29 122.63 165.19 124.52 165.19 127.06V127.29Z" fill="#95F5E8"/>
</g>
<path d="M259.58 71.35C257.713 71.35 256.301 70.825 255.345 69.775C254.388 68.7017 253.91 67.1733 253.91 65.19V63.79H257.55V65.47C257.55 67.0567 258.215 67.85 259.545 67.85C260.198 67.85 260.688 67.6633 261.015 67.29C261.365 66.8933 261.54 66.2633 261.54 65.4C261.54 64.3733 261.306 63.475 260.84 62.705C260.373 61.9117 259.51 60.9667 258.25 59.87C256.663 58.47 255.555 57.21 254.925 56.09C254.295 54.9467 253.98 53.6633 253.98 52.24C253.98 50.3033 254.47 48.81 255.45 47.76C256.43 46.6867 257.853 46.15 259.72 46.15C261.563 46.15 262.951 46.6867 263.885 47.76C264.841 48.81 265.32 50.3267 265.32 52.31V53.325H261.68V52.065C261.68 51.225 261.516 50.6183 261.19 50.245C260.863 49.8483 260.385 49.65 259.755 49.65C258.471 49.65 257.83 50.4317 257.83 51.995C257.83 52.8817 258.063 53.71 258.53 54.48C259.02 55.25 259.895 56.1833 261.155 57.28C262.765 58.68 263.873 59.9517 264.48 61.095C265.086 62.2383 265.39 63.58 265.39 65.12C265.39 67.1267 264.888 68.6667 263.885 69.74C262.905 70.8133 261.47 71.35 259.58 71.35ZM270.607 50H266.582V46.5H278.482V50H274.457V71H270.607V50ZM281.715 46.5H286.93L290.92 71H287.07L286.37 66.135V66.205H281.995L281.295 71H277.725L281.715 46.5ZM285.915 62.88L284.2 50.77H284.13L282.45 62.88H285.915ZM294.191 50H290.166V46.5H302.066V50H298.041V71H294.191V50ZM303.93 46.5H314.43V50H307.78V56.475H313.065V59.975H307.78V67.5H314.43V71H303.93V46.5ZM327.815 71.35C325.925 71.35 324.479 70.8133 323.475 69.74C322.472 68.6667 321.97 67.15 321.97 65.19V52.31C321.97 50.35 322.472 48.8333 323.475 47.76C324.479 46.6867 325.925 46.15 327.815 46.15C329.705 46.15 331.152 46.6867 332.155 47.76C333.159 48.8333 333.66 50.35 333.66 52.31V65.19C333.66 67.15 333.159 68.6667 332.155 69.74C331.152 70.8133 329.705 71.35 327.815 71.35ZM327.815 67.85C329.145 67.85 329.81 67.045 329.81 65.435V52.065C329.81 50.455 329.145 49.65 327.815 49.65C326.485 49.65 325.82 50.455 325.82 52.065V65.435C325.82 67.045 326.485 67.85 327.815 67.85ZM336.264 46.5H346.449V50H340.114V56.825H345.084V60.325H340.114V71H336.264V46.5Z" fill="#FCEB7B"/>
</g>
<defs>
<clipPath id="clip0_1317_734">
<rect width="600" height="600" fill="white"/>
</clipPath>
</defs>
</svg>
