<svg width="750" height="750" viewBox="0 0 750 750" fill="none" xmlns="http://www.w3.org/2000/svg">
<path d="M30 374.5L202.75 75.2883L548.25 75.2883L721 374.5L548.25 673.712L202.75 673.712L30 374.5Z" fill="url(#paint0_linear_557_3509)"/>
<path d="M30 374.5L202.75 673.712L375.5 374.5L30 374.5Z" fill="url(#paint1_linear_557_3509)" fill-opacity="0.6"/>
<path d="M202.75 673.712L548.25 673.712L375.5 374.5L202.75 673.712Z" fill="url(#paint2_linear_557_3509)" fill-opacity="0.6"/>
<path d="M548.25 673.712L721 374.5L375.5 374.5L548.25 673.712Z" fill="url(#paint3_linear_557_3509)" fill-opacity="0.6"/>
<path d="M721 374.5L548.25 75.288L375.5 374.5L721 374.5Z" fill="url(#paint4_linear_557_3509)" fill-opacity="0.6"/>
<path d="M548.25 75.2883L202.75 75.2883L375.5 374.5L548.25 75.2883Z" fill="url(#paint5_linear_557_3509)" fill-opacity="0.6"/>
<path d="M202.75 75.288L30 374.5L375.5 374.5L202.75 75.288Z" fill="url(#paint6_linear_557_3509)" fill-opacity="0.6"/>
<path d="M151.311 374.501L263.405 180.348L487.594 180.348L599.688 374.501L487.594 568.654L263.405 568.654L151.311 374.501Z" fill="url(#paint7_linear_557_3509)"/>
<path d="M147.706 372.42L146.504 374.501L147.706 376.582L259.8 570.735L261.002 572.817L263.405 572.817L487.594 572.817L489.997 572.817L491.199 570.735L603.293 376.582L604.494 374.501L603.293 372.42L491.199 178.267L489.997 176.185L487.594 176.185L263.405 176.185L261.002 176.185L259.8 178.267L147.706 372.42Z" stroke="white" stroke-opacity="0.48" stroke-width="8.3253"/>
<mask id="mask0_557_3509" style="mask-type:alpha" maskUnits="userSpaceOnUse" x="151" y="180" width="449" height="389">
<path d="M151.311 374.501L263.405 180.348L487.594 180.348L599.688 374.501L487.594 568.654L263.405 568.654L151.311 374.501Z" fill="url(#paint8_linear_557_3509)"/>
</mask>
<g mask="url(#mask0_557_3509)">
<rect x="633.386" y="107.339" width="15.8785" height="629.155" transform="rotate(30 633.386 107.339)" fill="url(#paint9_linear_557_3509)"/>
<rect x="605.884" y="91.4612" width="17.3219" height="629.155" transform="rotate(30 605.884 91.4612)" fill="url(#paint10_linear_557_3509)"/>
<rect x="659.638" y="122.496" width="12.9915" height="629.155" transform="rotate(30 659.638 122.496)" fill="url(#paint11_linear_557_3509)"/>
<rect x="683.39" y="136.21" width="7.93923" height="629.155" transform="rotate(30 683.39 136.21)" fill="url(#paint12_linear_557_3509)"/>
<rect x="702.767" y="147.396" width="5.77398" height="629.155" transform="rotate(30 702.767 147.396)" fill="url(#paint13_linear_557_3509)"/>
<rect x="719.305" y="156.946" width="3.27783" height="629.155" transform="rotate(30 719.305 156.946)" fill="url(#paint14_linear_557_3509)"/>
<rect x="177.476" y="-81.6074" width="442.472" height="549.47" transform="rotate(30 177.476 -81.6074)" fill="url(#paint15_linear_557_3509)"/>
<rect x="116.379" y="664.356" width="15.8785" height="629.155" transform="rotate(-150 116.379 664.356)" fill="url(#paint16_linear_557_3509)"/>
<rect x="143.881" y="680.234" width="17.3219" height="629.155" transform="rotate(-150 143.881 680.234)" fill="url(#paint17_linear_557_3509)"/>
<rect x="90.1265" y="649.199" width="12.9915" height="629.155" transform="rotate(-150 90.1265 649.199)" fill="url(#paint18_linear_557_3509)"/>
<rect x="66.3746" y="635.485" width="7.93923" height="629.155" transform="rotate(-150 66.3746 635.485)" fill="url(#paint19_linear_557_3509)"/>
<rect x="46.9979" y="624.299" width="5.77398" height="629.155" transform="rotate(-150 46.9979 624.299)" fill="url(#paint20_linear_557_3509)"/>
<rect x="30.4601" y="614.75" width="3.27783" height="629.155" transform="rotate(-150 30.4601 614.75)" fill="url(#paint21_linear_557_3509)"/>
</g>
<defs>
<linearGradient id="paint0_linear_557_3509" x1="639.531" y1="516.03" x2="138.229" y2="219.293" gradientUnits="userSpaceOnUse">
<stop offset="0.015625" stop-color="#1C6CE6"/>
<stop offset="0.520833" stop-color="#34C775"/>
<stop offset="0.520933" stop-color="#64CE6C"/>
<stop offset="1" stop-color="#F3E353"/>
<stop offset="1" stop-color="#F3E353"/>
</linearGradient>
<linearGradient id="paint1_linear_557_3509" x1="210.779" y1="673.618" x2="30.0006" y2="373.907" gradientUnits="userSpaceOnUse">
<stop stop-color="#59871E"/>
<stop offset="1" stop-color="#A3FF2E" stop-opacity="0"/>
</linearGradient>
<linearGradient id="paint2_linear_557_3509" x1="548.548" y1="673.618" x2="202.453" y2="673.618" gradientUnits="userSpaceOnUse">
<stop stop-color="#59871E"/>
<stop offset="1" stop-color="#A3FF2E" stop-opacity="0"/>
</linearGradient>
<linearGradient id="paint3_linear_557_3509" x1="721.001" y1="373.907" x2="548.548" y2="673.618" gradientUnits="userSpaceOnUse">
<stop stop-color="#59871E"/>
<stop offset="1" stop-color="#A3FF2E" stop-opacity="0"/>
</linearGradient>
<linearGradient id="paint4_linear_557_3509" x1="548.548" y1="75.3848" x2="721.001" y2="373.906" gradientUnits="userSpaceOnUse">
<stop stop-color="#59871E"/>
<stop offset="1" stop-color="#A3FF2E" stop-opacity="0"/>
</linearGradient>
<linearGradient id="paint5_linear_557_3509" x1="202.453" y1="75.385" x2="548.548" y2="75.385" gradientUnits="userSpaceOnUse">
<stop stop-color="#59871E"/>
<stop offset="1" stop-color="#A3FF2E" stop-opacity="0"/>
</linearGradient>
<linearGradient id="paint6_linear_557_3509" x1="30.0006" y1="373.906" x2="202.453" y2="75.3848" gradientUnits="userSpaceOnUse">
<stop stop-color="#59871E"/>
<stop offset="1" stop-color="#A3FF2E" stop-opacity="0"/>
</linearGradient>
<linearGradient id="paint7_linear_557_3509" x1="277.975" y1="533.276" x2="467.078" y2="196.696" gradientUnits="userSpaceOnUse">
<stop offset="0.015625" stop-color="#1C6CE6"/>
<stop offset="0.520833" stop-color="#34C775"/>
<stop offset="0.520933" stop-color="#64CE6C"/>
<stop offset="1" stop-color="#F3E353"/>
<stop offset="1" stop-color="#F3E353"/>
</linearGradient>
<linearGradient id="paint8_linear_557_3509" x1="277.975" y1="533.276" x2="467.078" y2="196.696" gradientUnits="userSpaceOnUse">
<stop offset="0.015625" stop-color="#1C6CE6"/>
<stop offset="0.520833" stop-color="#34C775"/>
<stop offset="0.520933" stop-color="#64CE6C"/>
<stop offset="1" stop-color="#F3E353"/>
<stop offset="1" stop-color="#F3E353"/>
</linearGradient>
<linearGradient id="paint9_linear_557_3509" x1="635.702" y1="285.071" x2="651.381" y2="285.293" gradientUnits="userSpaceOnUse">
<stop offset="0.015625" stop-color="#1C6CE6"/>
<stop offset="0.520833" stop-color="#34C775"/>
<stop offset="0.520933" stop-color="#64CE6C"/>
<stop offset="1" stop-color="#F3E353"/>
<stop offset="1" stop-color="#F3E353"/>
</linearGradient>
<linearGradient id="paint10_linear_557_3509" x1="608.411" y1="269.193" x2="625.514" y2="269.458" gradientUnits="userSpaceOnUse">
<stop offset="0.015625" stop-color="#1C6CE6"/>
<stop offset="0.520833" stop-color="#34C775"/>
<stop offset="0.520933" stop-color="#64CE6C"/>
<stop offset="1" stop-color="#F3E353"/>
<stop offset="1" stop-color="#F3E353"/>
</linearGradient>
<linearGradient id="paint11_linear_557_3509" x1="661.533" y1="300.228" x2="674.362" y2="300.377" gradientUnits="userSpaceOnUse">
<stop offset="0.015625" stop-color="#1C6CE6"/>
<stop offset="0.520833" stop-color="#34C775"/>
<stop offset="0.520933" stop-color="#64CE6C"/>
<stop offset="1" stop-color="#F3E353"/>
<stop offset="1" stop-color="#F3E353"/>
</linearGradient>
<linearGradient id="paint12_linear_557_3509" x1="684.549" y1="313.942" x2="692.389" y2="313.998" gradientUnits="userSpaceOnUse">
<stop offset="0.015625" stop-color="#1C6CE6"/>
<stop offset="0.520833" stop-color="#34C775"/>
<stop offset="0.520933" stop-color="#64CE6C"/>
<stop offset="1" stop-color="#F3E353"/>
<stop offset="1" stop-color="#F3E353"/>
</linearGradient>
<linearGradient id="paint13_linear_557_3509" x1="703.609" y1="325.128" x2="709.312" y2="325.157" gradientUnits="userSpaceOnUse">
<stop offset="0.015625" stop-color="#1C6CE6"/>
<stop offset="0.520833" stop-color="#34C775"/>
<stop offset="0.520933" stop-color="#64CE6C"/>
<stop offset="1" stop-color="#F3E353"/>
<stop offset="1" stop-color="#F3E353"/>
</linearGradient>
<linearGradient id="paint14_linear_557_3509" x1="719.783" y1="334.678" x2="723.02" y2="334.687" gradientUnits="userSpaceOnUse">
<stop offset="0.015625" stop-color="#1C6CE6"/>
<stop offset="0.520833" stop-color="#34C775"/>
<stop offset="0.520933" stop-color="#64CE6C"/>
<stop offset="1" stop-color="#F3E353"/>
<stop offset="1" stop-color="#F3E353"/>
</linearGradient>
<linearGradient id="paint15_linear_557_3509" x1="242.028" y1="73.6141" x2="604.77" y2="237.73" gradientUnits="userSpaceOnUse">
<stop offset="0.015625" stop-color="#1C6CE6"/>
<stop offset="0.520833" stop-color="#34C775"/>
<stop offset="0.520933" stop-color="#64CE6C"/>
<stop offset="1" stop-color="#F3E353"/>
<stop offset="1" stop-color="#F3E353"/>
</linearGradient>
<linearGradient id="paint16_linear_557_3509" x1="118.695" y1="842.088" x2="134.374" y2="842.311" gradientUnits="userSpaceOnUse">
<stop offset="0.015625" stop-color="#1C6CE6"/>
<stop offset="0.520833" stop-color="#34C775"/>
<stop offset="0.520933" stop-color="#64CE6C"/>
<stop offset="1" stop-color="#F3E353"/>
<stop offset="1" stop-color="#F3E353"/>
</linearGradient>
<linearGradient id="paint17_linear_557_3509" x1="146.408" y1="857.966" x2="163.511" y2="858.231" gradientUnits="userSpaceOnUse">
<stop offset="0.015625" stop-color="#1C6CE6"/>
<stop offset="0.520833" stop-color="#34C775"/>
<stop offset="0.520933" stop-color="#64CE6C"/>
<stop offset="1" stop-color="#F3E353"/>
<stop offset="1" stop-color="#F3E353"/>
</linearGradient>
<linearGradient id="paint18_linear_557_3509" x1="92.0218" y1="826.931" x2="104.851" y2="827.08" gradientUnits="userSpaceOnUse">
<stop offset="0.015625" stop-color="#1C6CE6"/>
<stop offset="0.520833" stop-color="#34C775"/>
<stop offset="0.520933" stop-color="#64CE6C"/>
<stop offset="1" stop-color="#F3E353"/>
<stop offset="1" stop-color="#F3E353"/>
</linearGradient>
<linearGradient id="paint19_linear_557_3509" x1="67.5329" y1="813.217" x2="75.3734" y2="813.273" gradientUnits="userSpaceOnUse">
<stop offset="0.015625" stop-color="#1C6CE6"/>
<stop offset="0.520833" stop-color="#34C775"/>
<stop offset="0.520933" stop-color="#64CE6C"/>
<stop offset="1" stop-color="#F3E353"/>
<stop offset="1" stop-color="#F3E353"/>
</linearGradient>
<linearGradient id="paint20_linear_557_3509" x1="47.8403" y1="802.031" x2="53.5426" y2="802.061" gradientUnits="userSpaceOnUse">
<stop offset="0.015625" stop-color="#1C6CE6"/>
<stop offset="0.520833" stop-color="#34C775"/>
<stop offset="0.520933" stop-color="#64CE6C"/>
<stop offset="1" stop-color="#F3E353"/>
<stop offset="1" stop-color="#F3E353"/>
</linearGradient>
<linearGradient id="paint21_linear_557_3509" x1="30.9383" y1="792.482" x2="34.1755" y2="792.491" gradientUnits="userSpaceOnUse">
<stop offset="0.015625" stop-color="#1C6CE6"/>
<stop offset="0.520833" stop-color="#34C775"/>
<stop offset="0.520933" stop-color="#64CE6C"/>
<stop offset="1" stop-color="#F3E353"/>
<stop offset="1" stop-color="#F3E353"/>
</linearGradient>
</defs>
</svg>
