<svg width="750" height="750" viewBox="0 0 750 750" fill="none" xmlns="http://www.w3.org/2000/svg">
<path d="M375.141 8.12451L4.99792 377.978L375.141 742.288L745.284 376.13L375.141 8.12451Z" fill="url(#paint0_linear_557_3633)"/>
<mask id="mask0_557_3633" style="mask-type:alpha" maskUnits="userSpaceOnUse" x="4" y="100" width="742" height="551">
<path d="M375.14 100.125L4.99683 377.977L375.14 650.747L745.283 376.13L375.14 100.125Z" fill="#C4C4C4"/>
</mask>
<g mask="url(#mask0_557_3633)">
<path d="M4.99683 8.12402H974.555V742.615H4.99683V8.12402Z" fill="url(#paint1_linear_557_3633)"/>
</g>
<mask id="mask1_557_3633" style="mask-type:alpha" maskUnits="userSpaceOnUse" x="4" y="192" width="742" height="368">
<path d="M375.14 192.126L4.99683 377.713L375.14 559.094L745.283 376.072L375.14 192.126Z" fill="#C4C4C4"/>
</mask>
<g mask="url(#mask1_557_3633)">
<path d="M4.82349 8.08496H1486.06V742.576H4.82349V8.08496Z" fill="url(#paint2_linear_557_3633)"/>
</g>
<defs>
<linearGradient id="paint0_linear_557_3633" x1="4.9978" y1="375.206" x2="745.284" y2="375.206" gradientUnits="userSpaceOnUse">
<stop stop-color="#EDE1A4"/>
<stop offset="0.3333" stop-color="#EA1C78"/>
<stop offset="0.6667" stop-color="#9F0D63"/>
<stop offset="1" stop-color="#41092E"/>
</linearGradient>
<linearGradient id="paint1_linear_557_3633" x1="4.99666" y1="375.37" x2="974.554" y2="375.37" gradientUnits="userSpaceOnUse">
<stop stop-color="#EDE1A4"/>
<stop offset="0.3333" stop-color="#EA1C78"/>
<stop offset="0.6667" stop-color="#9F0D63"/>
<stop offset="1" stop-color="#41092E"/>
</linearGradient>
<linearGradient id="paint2_linear_557_3633" x1="4.82324" y1="375.331" x2="1486.06" y2="375.331" gradientUnits="userSpaceOnUse">
<stop stop-color="#EDE1A4"/>
<stop offset="0.3333" stop-color="#EA1C78"/>
<stop offset="0.6667" stop-color="#9F0D63"/>
<stop offset="1" stop-color="#41092E"/>
</linearGradient>
</defs>
</svg>
