<svg width="229" height="229" viewBox="0 0 229 229" fill="none" xmlns="http://www.w3.org/2000/svg">
<path fill-rule="evenodd" clip-rule="evenodd" d="M115.511 171.372C106.948 171.372 99.9912 164.286 99.9912 155.566V155.06H84.1273V155.488C84.1273 173.123 98.1563 187.45 115.473 187.45C132.789 187.45 146.856 173.162 146.856 155.488V155.06H130.993V155.488C131.031 164.208 124.112 171.333 115.549 171.372H115.473H115.511ZM84.9301 67.3885C72.4302 67.4664 62.3385 77.8219 62.4149 90.5521C62.4914 103.282 72.6595 113.56 85.1594 113.482C97.5829 113.404 107.636 103.166 107.675 90.5132C107.675 77.744 97.5447 67.4274 85.0448 67.3885H84.9301ZM77.82 90.5132C77.82 86.5033 80.9928 83.2332 84.9301 83.1943C88.8674 83.1553 92.0784 86.4255 92.1166 90.4353C92.1166 94.4451 88.9438 97.7153 85.0065 97.7542H84.9301C80.9928 97.7542 77.82 94.523 77.82 90.5132ZM46.8951 49.8309C90.5111 35.7381 106.987 26.9398 114.555 22.5796C121.971 26.9009 138.6 35.6992 182.216 49.8309C182.216 54.814 184.93 208.044 114.555 207.927C44.1811 207.81 46.8951 54.814 46.8951 49.8309ZM114.555 228.366C205.572 228.366 201.978 41.4998 201.978 35.0374C145.595 16.8179 124.188 5.48919 114.555 0C104.846 5.56705 83.401 16.8958 27.0175 35.0374C27.0175 41.4998 23.539 228.482 114.555 228.366ZM121.895 82.1431V97.7153H165.702V82.1431H121.895Z" fill="#FE5619"/>
</svg>
