<svg width="377" height="88" viewBox="0 0 377 88" fill="none" xmlns="http://www.w3.org/2000/svg">
<path fill-rule="evenodd" clip-rule="evenodd" d="M33.7739 65.8215C30.5066 65.8215 27.8519 63.1179 27.8519 59.7903V59.5972H21.7986V59.7606C21.7986 66.4899 27.1518 71.9566 33.7593 71.9566C40.3669 71.9566 45.7347 66.5048 45.7347 59.7606V59.5972H39.6814V59.7606C39.6959 63.0881 37.0558 65.8066 33.7885 65.8215H33.7593H33.7739ZM22.1049 26.1437C17.3352 26.1734 13.4844 30.1249 13.5136 34.9825C13.5428 39.84 17.4227 43.7618 22.1924 43.7321C26.933 43.7024 30.7691 39.7955 30.7837 34.9676C30.7837 30.0952 26.9184 26.1586 22.1487 26.1437H22.1049ZM19.3919 34.9676C19.3919 33.4375 20.6025 32.1897 22.1049 32.1749C23.6073 32.16 24.8325 33.4078 24.8471 34.9379C24.8471 36.468 23.6365 37.7158 22.1341 37.7306H22.1049C20.6025 37.7306 19.3919 36.4977 19.3919 34.9676ZM7.59156 19.4441C24.2345 14.0666 30.5212 10.7094 33.4093 9.0456C36.239 10.6945 42.584 14.0517 59.227 19.4441C59.227 21.3456 60.2626 79.8149 33.4093 79.7703C6.55593 79.7258 7.59156 21.3456 7.59156 19.4441ZM33.4093 87.5692C68.1392 87.5692 66.7681 16.2651 66.7681 13.7992C45.2533 6.84706 37.085 2.52424 33.4093 0.429688C29.7043 2.55395 21.5214 6.87677 0.00669312 13.7992C0.00669312 16.2651 -1.32066 87.6138 33.4093 87.5692ZM36.2098 31.7738V37.7158H52.9257V31.7738H36.2098Z" fill="white" style="fill:white;fill-opacity:1;"/>
<path d="M120.181 68.6767C113.279 68.6767 107.677 66.504 103.375 62.1586C99.1145 57.7707 96.9844 52.2325 96.9844 45.544C96.9844 39.1538 99.1571 33.7008 103.502 29.185C107.89 24.6692 113.407 22.4114 120.053 22.4114C123.802 22.4114 126.997 22.9226 129.638 23.945C132.28 24.9249 134.815 26.4372 137.243 28.4821L132.258 34.425C130.384 32.8061 128.488 31.6133 126.571 30.8465C124.697 30.037 122.418 29.6323 119.734 29.6323C115.644 29.6323 112.193 31.1873 109.381 34.2972C106.612 37.4071 105.228 41.156 105.228 45.544C105.228 50.1876 106.634 54.0217 109.445 57.0464C112.257 60.0285 115.921 61.5196 120.437 61.5196C124.611 61.5196 128.211 60.3907 131.236 58.1328V49.7616H119.798V42.924H138.84V61.7113C133.43 66.3549 127.21 68.6767 120.181 68.6767Z" fill="white" style="fill:white;fill-opacity:1;"/>
<path d="M145.753 28.9933V21.6445H154.061V28.9933H145.753ZM146.073 67.9098V34.1694H153.805V67.9098H146.073Z" fill="white" style="fill:white;fill-opacity:1;"/>
<path d="M172.665 68.4849C166.189 68.4849 162.952 65.1833 162.952 58.5801V40.8152H158.67V34.1694H162.952V24.9036H170.684V34.1694H179.758V40.8152H170.684V57.3659C170.684 60.1776 172.068 61.5835 174.837 61.5835C176.499 61.5835 178.096 61.2001 179.63 60.4333V66.7596C177.585 67.9098 175.263 68.4849 172.665 68.4849Z" fill="white" style="fill:white;fill-opacity:1;"/>
<path d="M185.902 67.9098V23.1782H193.187L217.151 54.1069V23.1782H224.883V67.9098H218.301L193.635 36.0865V67.9098H185.902Z" fill="white" style="fill:white;fill-opacity:1;"/>
<path d="M261.246 67.9098H253.578V63.7562C250.851 66.9939 247.209 68.6128 242.65 68.6128C239.285 68.6128 236.43 67.6968 234.087 65.865C231.787 63.9905 230.637 61.3918 230.637 58.0689C230.637 54.4477 231.893 51.6999 234.407 49.8255C236.92 47.951 240.222 47.0138 244.312 47.0138C247.592 47.0138 250.702 47.4824 253.641 48.4196V47.7806C253.641 45.4375 252.917 43.6482 251.469 42.4128C250.063 41.1773 248.018 40.5596 245.334 40.5596C242.267 40.5596 239.05 41.2626 235.685 42.6684L233.576 36.4699C237.751 34.5954 242.033 33.6582 246.421 33.6582C251.32 33.6582 255.005 34.8936 257.476 37.3645C259.989 39.8354 261.246 43.35 261.246 47.9084V67.9098ZM253.769 55.7045V53.7874C251.469 52.8928 248.891 52.4455 246.037 52.4455C243.609 52.4455 241.713 52.9141 240.35 53.8513C238.987 54.7885 238.305 56.1092 238.305 57.8133C238.305 59.3469 238.923 60.5611 240.158 61.4557C241.394 62.3503 242.948 62.7976 244.823 62.7976C247.422 62.7976 249.552 62.1373 251.213 60.8167C252.917 59.496 253.769 57.792 253.769 55.7045Z" fill="white" style="fill:white;fill-opacity:1;"/>
<path d="M279.197 68.4849C272.721 68.4849 269.484 65.1833 269.484 58.5801V40.8152H265.202V34.1694H269.484V24.9036H277.216V34.1694H286.29V40.8152H277.216V57.3659C277.216 60.1776 278.6 61.5835 281.37 61.5835C283.031 61.5835 284.629 61.2001 286.162 60.4333V66.7596C284.117 67.9098 281.796 68.4849 279.197 68.4849Z" fill="white" style="fill:white;fill-opacity:1;"/>
<path d="M291.668 28.9933V21.6445H299.975V28.9933H291.668ZM291.987 67.9098V34.1694H299.72V67.9098H291.987Z" fill="white" style="fill:white;fill-opacity:1;"/>
<path d="M323.308 68.6767C318.196 68.6767 313.936 66.9726 310.528 63.5645C307.119 60.1563 305.415 56.0027 305.415 51.1035C305.415 46.2043 307.141 42.0507 310.591 38.6426C314.042 35.1918 318.324 33.4665 323.436 33.4665C328.548 33.4665 332.808 35.1705 336.216 38.5787C339.667 41.9868 341.392 46.1617 341.392 51.1035C341.392 55.9601 339.667 60.1137 336.216 63.5645C332.766 66.9726 328.463 68.6767 323.308 68.6767ZM323.436 61.9669C326.503 61.9669 328.974 60.9232 330.848 58.8357C332.723 56.7482 333.66 54.1708 333.66 51.1035C333.66 48.0788 332.68 45.5227 330.721 43.4352C328.761 41.3052 326.29 40.2401 323.308 40.2401C320.283 40.2401 317.834 41.2839 315.959 43.3713C314.085 45.4588 313.148 48.0362 313.148 51.1035C313.148 54.0856 314.127 56.6417 316.087 58.7718C318.047 60.9019 320.496 61.9669 323.436 61.9669Z" fill="white" style="fill:white;fill-opacity:1;"/>
<path d="M346.711 67.9098V34.1694H354.443V39.4094C357.127 35.4474 360.641 33.4665 364.987 33.4665C368.736 33.4665 371.675 34.638 373.805 36.9811C375.935 39.3242 377 42.4767 377 46.4386V67.9098H369.268V48.7391C369.268 46.0978 368.629 44.0743 367.351 42.6684C366.116 41.2199 364.348 40.4957 362.047 40.4957C359.789 40.4957 357.958 41.2413 356.552 42.7323C355.146 44.2234 354.443 46.2682 354.443 48.8669V67.9098H346.711Z" fill="white" style="fill:white;fill-opacity:1;"/>
</svg>
