<svg width="988" height="229" viewBox="0 0 988 229" fill="none" xmlns="http://www.w3.org/2000/svg">
<path fill-rule="evenodd" clip-rule="evenodd" d="M88.511 171.372C79.9483 171.372 72.9912 164.286 72.9912 155.566V155.06H57.1273V155.488C57.1273 173.123 71.1563 187.45 88.4727 187.45C105.789 187.45 119.856 173.162 119.856 155.488V155.06H103.993V155.488C104.031 164.208 97.1119 171.333 88.5492 171.372H88.4727H88.511ZM57.9301 67.3885C45.4302 67.4664 35.3385 77.8219 35.4149 90.5521C35.4914 103.282 45.6595 113.56 58.1594 113.482C70.5829 113.404 80.6364 103.166 80.6746 90.5132C80.6746 77.744 70.5447 67.4274 58.0448 67.3885H57.9301ZM50.82 90.5132C50.82 86.5033 53.9928 83.2332 57.9301 83.1943C61.8674 83.1553 65.0784 86.4255 65.1166 90.4353C65.1166 94.4451 61.9438 97.7153 58.0065 97.7542H57.9301C53.9928 97.7542 50.82 94.523 50.82 90.5132ZM19.8951 49.8309C63.5111 35.7381 79.9866 26.9398 87.5553 22.5796C94.9712 26.9009 111.6 35.6992 155.216 49.8309C155.216 54.814 157.93 208.044 87.5553 207.927C17.1811 207.81 19.8951 54.814 19.8951 49.8309ZM87.5553 228.366C178.572 228.366 174.978 41.4998 174.978 35.0374C118.595 16.8179 97.1883 5.48919 87.5553 0C77.8459 5.56705 56.401 16.8958 0.0175406 35.0374C0.0175406 41.4998 -3.46103 228.482 87.5553 228.366ZM94.8947 82.1431V97.7153H138.702V82.1431H94.8947Z" fill="#FE5619"/>
<path d="M314.956 178.856C296.869 178.856 282.188 173.162 270.911 161.774C259.747 150.275 254.165 135.761 254.165 118.233C254.165 101.486 259.858 87.1952 271.246 75.3607C282.746 63.5263 297.204 57.6091 314.621 57.6091C324.445 57.6091 332.819 58.9489 339.741 61.6283C346.663 64.1962 353.306 68.1596 359.67 73.5186L346.607 89.0931C341.695 84.8506 336.726 81.7245 331.702 79.7149C326.79 77.5936 320.817 76.533 313.783 76.533C303.065 76.533 294.022 80.6081 286.653 88.7582C279.396 96.9083 275.768 106.733 275.768 118.233C275.768 130.402 279.452 140.45 286.821 148.377C294.189 156.192 303.791 160.1 315.625 160.1C326.567 160.1 336.001 157.141 343.928 151.224V129.285H313.951V111.366H363.856V160.602C349.677 172.771 333.377 178.856 314.956 178.856Z" fill="#FE5619"/>
<path d="M381.973 74.8583V55.5995H403.744V74.8583H381.973ZM382.81 176.846V88.4233H403.074V176.846H382.81Z" fill="#FE5619"/>
<path d="M452.499 178.354C435.529 178.354 427.044 169.701 427.044 152.396V105.84H415.824V88.4233H427.044V64.1404H447.308V88.4233H471.088V105.84H447.308V149.214C447.308 156.583 450.936 160.267 458.193 160.267C462.547 160.267 466.734 159.262 470.753 157.253V173.832C465.394 176.846 459.31 178.354 452.499 178.354Z" fill="#FE5619"/>
<path d="M487.191 176.846V59.6187H506.283L569.083 140.673V59.6187H589.347V176.846H572.098L507.455 93.4473V176.846H487.191Z" fill="#FE5619"/>
<path d="M684.643 176.846H664.547V165.961C657.401 174.446 647.856 178.689 635.91 178.689C627.09 178.689 619.609 176.288 613.469 171.487C607.44 166.575 604.426 159.765 604.426 151.056C604.426 141.567 607.719 134.365 614.306 129.453C620.893 124.541 629.546 122.084 640.264 122.084C648.861 122.084 657.011 123.312 664.714 125.769V124.094C664.714 117.953 662.816 113.264 659.02 110.027C655.336 106.789 649.977 105.17 642.943 105.17C634.905 105.17 626.476 107.012 617.656 110.697L612.129 94.4521C623.07 89.5397 634.291 87.0835 645.79 87.0835C658.63 87.0835 668.287 90.3212 674.762 96.7967C681.349 103.272 684.643 112.483 684.643 124.429V176.846ZM665.049 144.86V139.836C659.02 137.491 652.266 136.319 644.786 136.319C638.422 136.319 633.453 137.547 629.881 140.003C626.308 142.46 624.522 145.921 624.522 150.386C624.522 154.406 626.141 157.588 629.378 159.932C632.616 162.277 636.691 163.449 641.604 163.449C648.414 163.449 653.996 161.719 658.35 158.257C662.816 154.796 665.049 150.331 665.049 144.86Z" fill="#FE5619"/>
<path d="M731.687 178.354C714.717 178.354 706.232 169.701 706.232 152.396V105.84H695.012V88.4233H706.232V64.1404H726.496V88.4233H750.276V105.84H726.496V149.214C726.496 156.583 730.124 160.267 737.381 160.267C741.735 160.267 745.922 159.262 749.941 157.253V173.832C744.582 176.846 738.498 178.354 731.687 178.354Z" fill="#FE5619"/>
<path d="M764.37 74.8583V55.5995H786.141V74.8583H764.37ZM765.207 176.846V88.4233H785.471V176.846H765.207Z" fill="#FE5619"/>
<path d="M847.289 178.856C833.891 178.856 822.727 174.39 813.795 165.459C804.863 156.527 800.398 145.642 800.398 132.802C800.398 119.963 804.919 109.078 813.962 100.146C823.006 91.1027 834.226 86.5811 847.624 86.5811C861.021 86.5811 872.186 91.0469 881.117 99.9786C890.161 108.91 894.682 119.851 894.682 132.802C894.682 145.53 890.161 156.415 881.117 165.459C872.074 174.39 860.798 178.856 847.289 178.856ZM847.624 161.272C855.662 161.272 862.138 158.537 867.05 153.066C871.962 147.595 874.419 140.841 874.419 132.802C874.419 124.876 871.851 118.177 866.715 112.706C861.579 107.124 855.104 104.333 847.289 104.333C839.362 104.333 832.942 107.068 828.03 112.539C823.117 118.009 820.661 124.764 820.661 132.802C820.661 140.618 823.229 147.316 828.365 152.899C833.5 158.481 839.92 161.272 847.624 161.272Z" fill="#FE5619"/>
<path d="M908.62 176.846V88.4233H928.884V102.156C935.917 91.7726 945.128 86.5811 956.516 86.5811C966.341 86.5811 974.044 89.6514 979.626 95.7919C985.209 101.932 988 110.194 988 120.577V176.846H967.736V126.606C967.736 119.684 966.062 114.381 962.712 110.697C959.474 106.901 954.841 105.003 948.812 105.003C942.895 105.003 938.094 106.956 934.41 110.864C930.726 114.772 928.884 120.131 928.884 126.941V176.846H908.62Z" fill="#FE5619"/>
</svg>
