<svg id="Layer_1" data-name="Layer 1" xmlns="http://www.w3.org/2000/svg" xmlns:xlink="http://www.w3.org/1999/xlink" viewBox="0 0 396.71 122.89"><defs><style>.cls-1,.cls-2,.cls-5{fill-rule:evenodd;}.cls-1{fill:url(#New_Gradient_Swatch);}.cls-2{fill:url(#New_Gradient_Swatch-2);}.cls-3{fill:#fefefe;}.cls-4,.cls-5{fill:#43ff01;}</style><linearGradient id="New_Gradient_Swatch" x1="447.82" y1="499.44" x2="516.66" y2="618.68" gradientUnits="userSpaceOnUse"><stop offset="0" stop-color="#9f0"/><stop offset="1" stop-color="#00dd3b"/></linearGradient><linearGradient id="New_Gradient_Swatch-2" x1="477.38" y1="550.63" x2="487.11" y2="567.48" xlink:href="#New_Gradient_Swatch"/></defs><title>RS_logo_wht</title><path class="cls-1" d="M448,534.14c-1.86-7.68-4.72-24.69,3-29.14h0c7.75-4.45,21.07,6.54,26.79,12a138.58,138.58,0,0,0-11.58,14.27A139,139,0,0,0,448,534.14Zm26.59-3.48c2.52-3.28,5.12-6.34,7.69-9.13,2.57,2.8,5.15,5.85,7.69,9.13-5.12-.23-10.26-.23-15.38,0Zm-4.86,6.71a167.47,167.47,0,0,1,25.1,0,168.27,168.27,0,0,1,11.46,19.49c.37.71.71,1.46,1.09,2.2l-1.09,2.2a168.27,168.27,0,0,1-11.46,19.49,167.47,167.47,0,0,1-25.1,0,167.06,167.06,0,0,1-12.55-21.69,165.69,165.69,0,0,1,12.55-21.69Zm36.56,37.24c1.54-2.63,3-5.31,4.46-8,1.6,3.85,2.94,7.62,4.09,11.22-2.74.63-5.57,1.17-8.55,1.63-1.09.17-2.14.31-3.26.46,1.11-1.74,2.2-3.48,3.26-5.28Zm-56.57-34.3c3.69-.86,7.63-1.54,11.78-2.08-2.74,4.31-5.32,8.76-7.69,13.3-1.6-3.85-3-7.59-4.09-11.22Zm37,60.85a139,139,0,0,0,11.58-14.3c2.72-.26,5.37-.57,7.95-.94,3.57-.54,7-1.2,10.23-1.94,1.89,7.68,4.75,24.69-3,29.14h0c-1.94,1.14-4.4,1.31-7.23.63-4.15-1-9.06-3.8-14.32-8-1.72-1.37-3.46-2.91-5.2-4.57Zm-33-34.56c2.37,4.54,4.95,9,7.69,13.3-4.15-.54-8.09-1.23-11.78-2.08,1.11-3.6,2.49-7.36,4.09-11.22ZM448,584a139,139,0,0,0,18.21,2.88,135.36,135.36,0,0,0,11.58,14.3c-5.72,5.42-19,16.41-26.79,12h0c-7.72-4.45-4.86-21.46-3-29.14Zm-28.24-24.91c0-8.9,16.18-15,23.76-17.15a144.38,144.38,0,0,0,6.6,17.15,144.38,144.38,0,0,0-6.6,17.15c-7.58-2.2-23.76-8.25-23.76-17.15Zm22.07,23.32c-2.63,10.76-5.15,29.85,6,36.27h0c11.15,6.42,26.44-5.28,34.48-13,1.92,1.83,3.8,3.51,5.66,5,6.49,5.22,12.78,8.5,18.35,9.48a15.11,15.11,0,0,0,10.43-1.51h0c11.12-6.42,8.6-25.51,6-36.27,10.63-3.11,28.47-10.47,28.47-23.32s-17.84-20.21-28.47-23.32c2.63-10.76,5.15-29.85-6-36.27h0a15.14,15.14,0,0,0-10.46-1.54c-8.95,1.57-18.32,9-24,14.5-8-7.65-23.33-19.38-34.45-13h0c-11.12,6.42-8.6,25.51-6,36.27-10.66,3.11-28.5,10.5-28.5,23.32s17.84,20.21,28.5,23.32Zm64.46-38.87c-1.06-1.8-2.14-3.54-3.23-5.28,1.09.14,2.17.29,3.23.46,3,.46,5.8,1,8.55,1.63-1.14,3.62-2.49,7.36-4.09,11.22-1.43-2.71-2.92-5.39-4.46-8ZM486.74,517c4.17-4,12.38-10.9,19.53-12.64a9.73,9.73,0,0,1,7.23.66h0c7.72,4.45,4.86,21.46,3,29.14-3.23-.74-6.66-1.4-10.23-1.94-2.57-.37-5.23-.68-7.95-.94A141.72,141.72,0,0,0,486.74,517ZM521,576.2a144,144,0,0,0-6.58-17.15A144,144,0,0,0,521,541.9c7.6,2.2,23.78,8.25,23.78,17.15S528.6,574,521,576.2Zm-46.43,11.24c5.12.23,10.26.23,15.38,0-2.54,3.28-5.12,6.36-7.69,9.13-2.57-2.77-5.15-5.82-7.69-9.13Z" transform="translate(-413.3 -497.61)"/><path class="cls-2" d="M482.26,568.78a9.73,9.73,0,1,0-9.75-9.73,9.75,9.75,0,0,0,9.75,9.73Z" transform="translate(-413.3 -497.61)"/><path class="cls-3" d="M607.93,542.81v-35.3h16.18c4.49,0,7.92,1.2,10.32,3.57a11.13,11.13,0,0,1,3,8.19c0,5.42-2.54,9-7.6,10.93l8.66,12.61h-9.09l-7.69-11.3h-6v11.3Zm7.78-18.15h7.89a6.37,6.37,0,0,0,4.4-1.4,4.63,4.63,0,0,0,1.57-3.71,4.49,4.49,0,0,0-1.63-3.74,7,7,0,0,0-4.49-1.28H615.7Z" transform="translate(-413.3 -497.61)"/><polygon class="cls-3" points="231.16 45.2 231.16 9.9 257.86 9.9 257.86 16.81 238.91 16.81 238.91 23.97 255.57 23.97 255.57 30.88 238.91 30.88 238.91 38.3 258.12 38.3 258.12 45.2 231.16 45.2"/><path class="cls-3" d="M675.59,542.81l15.15-35.56h7.2l15.15,35.56H705l-3.23-7.91h-15l-3.23,7.91Zm14-14.78h9.41l-4.72-11.44Z" transform="translate(-413.3 -497.61)"/><path class="cls-3" d="M733.43,543.44a17.47,17.47,0,0,1-13-5.28,18.64,18.64,0,0,1,21-29.77,21.55,21.55,0,0,1,6,4.25L742.77,518a17.72,17.72,0,0,0-4.26-3,11.76,11.76,0,0,0-4.83-.91,9.52,9.52,0,0,0-7.38,3.2,12.19,12.19,0,0,0,0,15.75,9.48,9.48,0,0,0,7.38,3.25,10.83,10.83,0,0,0,4.89-1,18.49,18.49,0,0,0,4.4-3.11l4.95,5.28a18.83,18.83,0,0,1-6.23,4.54,20.27,20.27,0,0,1-8.26,1.48Z" transform="translate(-413.3 -497.61)"/><polygon class="cls-3" points="350.51 45.2 350.51 17.06 339.73 17.06 339.73 9.9 369.06 9.9 369.06 17.06 358.29 17.06 358.29 45.2 350.51 45.2"/><path class="cls-3" d="M620.5,610.39a21.83,21.83,0,0,1-15-5.65l4.6-5.51c3.49,2.88,7,4.31,10.58,4.31a6.62,6.62,0,0,0,3.72-.91,2.88,2.88,0,0,0,1.37-2.54,2.76,2.76,0,0,0-1.4-2.43,21.71,21.71,0,0,0-5.72-2.05,44.44,44.44,0,0,1-4.92-1.48,16.54,16.54,0,0,1-3.54-1.94,7,7,0,0,1-2.49-3.05,11.45,11.45,0,0,1-.77-4.42,9.54,9.54,0,0,1,3.46-7.71,13.28,13.28,0,0,1,8.92-2.94,20.55,20.55,0,0,1,13.15,4.48l-4.06,5.88c-3.34-2.34-6.4-3.48-9.21-3.48a5.62,5.62,0,0,0-3.34.86,2.9,2.9,0,0,0,.29,4.88,29.76,29.76,0,0,0,6.15,2.08c3.86,1,6.69,2.28,8.49,3.88a8.48,8.48,0,0,1,2.74,6.79,9.76,9.76,0,0,1-3.57,8q-3.56,2.91-9.43,2.91Zm34.53.06c-4.83,0-8.58-1.34-11.26-4s-4.06-6.56-4.06-11.67V574.58h7.8v20c0,2.83.66,5,2,6.48a7.17,7.17,0,0,0,5.66,2.25,7.39,7.39,0,0,0,5.63-2.17,9.12,9.12,0,0,0,2-6.31V574.58h7.78V594.5q0,7.88-4.12,11.9c-2.74,2.71-6.55,4.05-11.41,4.05Zm23.44-.57v-35.3h8.4l9.29,14.93,9.32-14.93h8.38v35.3h-7.72V586.82l-10,15.1H696L686.11,587v22.89Zm43.88,0v-35.3h8.4l9.29,14.93,9.29-14.93h8.4v35.3H750V586.82l-9.95,15.1h-.2L730,587v22.89Zm44.22,0v-35.3h7.8v35.3Zm24.87,0V581.74H780.71v-7.16H810v7.16H799.26v28.14Z" transform="translate(-413.3 -497.61)"/><path class="cls-4" d="M792.49,520.61v-3.77l7.23-5.94a19,19,0,0,0,2.94-2.83,3.82,3.82,0,0,0,.8-2.37,2.71,2.71,0,0,0-.8-2.08,3,3,0,0,0-2.12-.74,3.71,3.71,0,0,0-2.17.68,10.78,10.78,0,0,0-2.26,2.23l-3.34-2.68a13.15,13.15,0,0,1,3.52-3.42,8.89,8.89,0,0,1,4.57-1.08,7.83,7.83,0,0,1,5.43,1.86,6.25,6.25,0,0,1,2.06,4.91,7.16,7.16,0,0,1-.69,3.17,9.13,9.13,0,0,1-1.77,2.48,34.32,34.32,0,0,1-3.26,2.74l-3.54,2.74h9.46v4.11Z" transform="translate(-413.3 -497.61)"/><path class="cls-5" d="M809.47,558.31H589.66l-5.2,41.84-5.23-41.84h-6.66l6.92,55.42h9.92l6.17-49.37H809.47Z" transform="translate(-413.3 -497.61)"/></svg>