<svg width="1200" height="403" viewBox="0 0 1200 403" fill="none" xmlns="http://www.w3.org/2000/svg">
<g clip-path="url(#clip0_545_2)">
<path opacity="0.7" fill-rule="evenodd" clip-rule="evenodd" d="M1060.62 29.2686L1062.94 31.338V55.2635L1064.24 56.0949V72.1566L1066.05 73.4499V86.626L1068.38 88.178V101.145L1073.58 105.638V76.1773H1075.13V106.978L1081.89 112.811V118.178L1084.52 120.346L1075.88 129.26V138.06L1082.93 142.007L1075.88 144.739V153.862L1086.18 158.961L1078.72 162.543V171.787L1090.65 176.668L1081.89 179.194V191.585L1102.52 203.643V230.998L1086.74 242.453L1097.51 260.494L1112.53 290.795L1129.07 326.716L1161.28 378.513L1171.99 385.143L1171.17 386.462L1160.55 379.886L1116.9 386.373L1128.99 401.616L1127.78 402.581L1115.04 386.525L1071.48 380.054L1078.65 395.828L1077.24 396.47L1069.65 379.773L1034.25 373.747L1025.14 402.334L1023.66 401.863L1032.65 373.645H997.743L984.757 402.418L983.342 401.779L995.834 374.1L954.653 386.43L947.796 407L946.324 406.509L952.915 386.737L921.454 390.948L898.569 404.576L897.775 403.243L920.73 389.572L949.709 363.44L958.435 358.563L989.091 317.345L1008.45 284.053L1018.77 260.573L1025.58 242.398L1011.99 226.491V207.953L1015.27 199.456L1035.52 192.844V181.019L1023.96 177.975L1037.08 172.891V164.251L1029.85 158.762L1042.25 153.465V144.804L1031.96 142.08L1042.25 137.297V127.922L1033.08 116.321L1040.96 111.546V105.226L1045.48 102.51V73.8493H1047.03V101.579L1050.01 99.794V89.2192L1054.54 86.1152V56.045L1056.8 54.881V31.3445L1059.06 29.2751V17.4597H1060.62V29.2686ZM1058.35 54.0828L1059.06 53.717V31.378L1058.35 32.0284V54.0828ZM1059.06 55.4622L1056.09 56.9921V72.1621L1059.06 69.6123V55.4622ZM1059.06 71.6565L1056.09 74.2062V85.051L1059.06 83.0112V71.6565ZM1059.06 84.893L1051.56 90.0368V98.8628L1059.06 94.362V84.893ZM1059.06 96.1719L1042.51 106.105V110.605L1059.06 100.572V96.1719ZM1059.06 102.387L1035.38 116.738L1043.24 126.673L1059.06 118.64V102.387ZM1059.06 120.38L1043.8 128.128V136.576L1059.06 129.485V120.38ZM1059.06 131.196L1036.5 141.678L1043.8 143.61V152.802L1059.06 146.281V131.196ZM1059.06 147.969L1032.92 159.14L1038.63 163.481V172.289L1059.06 164.369V147.969ZM1059.06 166.033L1028.98 177.692L1036.28 179.613L1059.06 172.352V166.033ZM1059.06 173.981L1037.08 180.988V192.337L1059.06 185.157V173.981ZM1060.62 184.651L1066.3 182.793L1072.1 180.555L1060.62 174.232V184.651ZM1060.62 172.46L1073.18 179.375L1073.28 171.239L1060.62 166.056V172.46ZM1060.62 164.379L1077.17 171.152V161.567L1082.64 158.94L1060.62 148.043V164.379ZM1060.62 146.312L1074.32 153.094V143.675L1079.3 141.751L1060.62 131.303V146.312ZM1060.62 129.525L1074.32 137.192V129.369L1060.62 120.539V129.525ZM1060.62 118.693L1074.99 127.949L1082.24 120.473L1060.62 102.655V118.693ZM1060.62 100.643L1080.34 116.899V113.522L1060.62 96.4964V100.643ZM1060.62 94.4461L1066.82 99.805V89.0086L1060.62 84.87V94.4461ZM1060.62 83.0047L1064.5 85.5914V74.2486L1060.62 71.4772V83.0047ZM1060.62 69.5699L1062.68 71.048V56.9422L1060.62 55.6119V69.5699ZM1060.62 53.7669V31.3451L1061.39 32.0349V54.2657L1060.62 53.7669ZM1074.83 171.87L1074.73 179.644L1085.93 176.413L1074.83 171.87ZM1073.14 181.816L1073.08 186.435L1068.35 183.668L1073.14 181.816ZM1065.79 184.594L1016.46 200.703L1014.06 206.902L1065.79 191.482V184.594ZM1065.79 193.101L1013.54 208.676V215.837L1065.79 199.509V193.101ZM1065.79 201.135L1013.54 217.463V225.125L1065.79 207.54V201.135ZM1067.34 207.673L1100.97 229.184V222.752L1067.34 201.488V207.673ZM1100.97 220.916L1067.34 199.652V193.409L1100.97 212.942V220.916ZM1100.97 211.147V204.534L1067.34 184.877V191.614L1100.97 211.147ZM1100.37 230.642L1066.96 209.27L1060.79 225.88L1085.67 241.308L1100.37 230.642ZM1084.28 242.274L1061.4 228.087L1070.56 251.655L1084.28 242.274ZM1068.92 251.743L1059.42 227.267L1028.77 242L1068.92 251.743ZM1026.72 243.801L1039.61 260.09H1020.61L1026.72 243.801ZM1019.99 261.642L1011.02 282.066L1038.85 261.642H1019.99ZM1041.07 261.934L1011.51 283.629H1058.24L1041.07 261.934ZM1059.55 282.791L1069 253.981L1042.55 261.302L1059.55 282.791ZM1041.5 259.981L1067.1 252.897L1028.48 243.527L1041.5 259.981ZM1070.28 255.039L1080.24 278.194L1061.02 283.288L1070.28 255.039ZM1058.78 285.181L1052.39 305.543L1012.38 285.181H1058.78ZM1009 286.183L991.316 316.606L1018.44 310.238L1009 286.183ZM1017.93 311.951L997.546 347.744L990.672 318.351L1017.93 311.951ZM989.365 319.577L996.311 349.275L960.865 357.898L989.365 319.577ZM959.029 360.009L951.025 364.482L954.655 384.81L994.756 372.803L959.029 360.009ZM999.378 372.093L1032.94 344.008V372.093H999.378ZM1034.49 372.214L1067.93 377.906L1034.49 344.229V372.214ZM1035.13 342.675L1068.83 376.614L1059.27 334.31L1035.13 342.675ZM1058.63 331.728L1052.28 307.504L1021.94 311.267L1058.63 331.728ZM1019.99 309.945L1010.61 286.022L1050.24 306.192L1019.99 309.945ZM1054.06 305.399L1060.29 285.553L1079.45 296.399L1054.06 305.399ZM1080.78 297.572L1054.54 306.875L1090.08 331.442L1080.78 297.572ZM1088.91 332.517L1054.14 308.48L1060.44 332.517H1088.91ZM1090.18 334.069H1060.81L1070.44 376.682L1090.18 334.069ZM1071.33 378.462L1114.15 384.825L1091.39 335.148L1071.33 378.462ZM1093.31 335.604L1115.11 383.199L1120.04 354.595L1093.31 335.604ZM1121.45 355.514L1116.4 384.877L1158.52 378.62L1121.45 355.514ZM1158.3 376.653L1121.79 353.893L1128.66 328.999L1158.3 376.653ZM1126.56 324.977L1111.38 291.999L1083.38 296.981L1126.56 324.977ZM1082.08 295.636V279.868L1109.05 290.837L1082.08 295.636ZM1110.23 289.639L1082.61 278.404L1096.65 262.254L1110.23 289.639ZM1095.14 259.546L1085.46 243.348L1071.96 252.572L1095.14 259.546ZM1071.56 254.07L1081.53 277.273L1095.45 261.263L1071.56 254.07ZM1080.53 279.723L1061.88 284.667L1080.53 295.231V279.723ZM1082.6 298.322L1091.96 332.412L1126.29 326.65L1082.6 298.322ZM1127.31 328.052L1093.38 333.748L1120.43 352.971L1127.31 328.052ZM1019.41 312.498L998.764 348.742L1032.61 341.782L1019.41 312.498ZM1030.86 343.726L998.017 350.48V371.208L1030.86 343.726ZM996.465 350.835V371.767L961.657 359.302L996.465 350.835ZM1034.13 341.381L1057.95 333.127L1021.16 312.61L1034.13 341.381ZM953.138 385.141L949.646 365.587L923.573 389.098L953.138 385.141ZM1026.67 241.284L1014.1 226.574L1065.27 209.352L1059.22 225.641L1026.67 241.284ZM1074.62 187.335L1074.7 181.265L1080.34 179.641V190.677L1074.62 187.335Z" fill="url(#paint0_linear_545_2)"/>
<path d="M83.9577 83.3979V102.644C78.6506 102.644 74.51 103.402 71.5355 104.918C68.5613 106.376 67.2781 109.321 67.6866 113.753L70.3983 139.56C71.0983 146.092 70.3692 151.37 68.2113 155.394C66.1118 159.418 62.8751 162.509 58.5012 164.667C54.1853 166.767 49.0823 168.254 43.192 169.129C49.4323 170.061 54.7104 171.578 59.0259 173.678C63.3417 175.777 66.4909 178.81 68.4738 182.775C70.4567 186.741 71.0983 192.048 70.3983 198.697L67.6866 224.503C67.2781 228.936 68.5613 231.881 71.5355 233.339C74.51 234.855 78.6506 235.613 83.9577 235.613V254.859C67.8616 254.859 56.5473 252.409 50.0154 247.511C43.542 242.67 40.9175 234.359 42.1423 222.579L44.7668 197.56C45.2333 193.127 44.4752 189.657 42.4923 187.149C40.5678 184.642 37.7099 182.892 33.919 181.9C30.1282 180.851 25.7543 180.326 20.7972 180.326V157.931C25.6962 157.931 30.0411 157.435 33.8319 156.444C37.6227 155.394 40.5094 153.615 42.4923 151.107C44.4752 148.6 45.2333 145.13 44.7668 140.698L42.1423 115.853C40.8594 103.839 43.4836 95.441 50.0154 90.6589C56.5473 85.8184 67.8616 83.3979 83.9577 83.3979Z" fill="white"/>
<path d="M247.31 131.075V230.365H218.616V131.075H184.586V109.117H282.739L279.765 131.075H247.31Z" fill="white"/>
<path d="M338.087 134.399C347.653 134.399 355.787 136.44 362.494 140.522C369.204 144.605 374.334 150.349 377.891 157.756C381.448 165.104 383.23 173.736 383.23 183.65C383.23 199.163 379.262 211.323 371.33 220.129C363.401 228.936 352.319 233.339 338.087 233.339C323.859 233.339 312.778 228.994 304.845 220.304C296.913 211.615 292.948 199.455 292.948 183.825C292.948 173.969 294.727 165.338 298.284 157.931C301.901 150.524 307.063 144.75 313.769 140.61C320.533 136.469 328.642 134.399 338.087 134.399ZM338.087 154.782C332.433 154.782 328.231 157.114 325.493 161.78C322.807 166.387 321.468 173.736 321.468 183.825C321.468 194.089 322.807 201.525 325.493 206.132C328.231 210.74 332.433 213.043 338.087 213.043C343.745 213.043 347.915 210.74 350.597 206.132C353.339 201.525 354.71 194.031 354.71 183.65C354.71 173.619 353.339 166.3 350.597 161.692C347.915 157.085 343.745 154.782 338.087 154.782Z" fill="white"/>
<path d="M430.441 97.6567V230.364H402.797V100.544L430.441 97.6567ZM490.977 137.46L460.448 178.576L493.514 230.364H462.022L431.493 179.451L462.022 137.46H490.977Z" fill="white"/>
<path d="M595.578 137.46L564.61 230.365C560.529 242.67 554.347 252.03 546.064 258.446C537.841 264.861 526.674 268.477 512.559 269.293L509.41 249.785C515.535 249.027 520.463 247.89 524.194 246.373C527.985 244.857 531.017 242.787 533.292 240.162C535.626 237.596 537.639 234.33 539.329 230.365H529.88L500.4 137.46H529.618L547.64 212.693L567.235 137.46H595.578Z" fill="white"/>
<path d="M652.939 134.399C662.505 134.399 670.639 136.44 677.346 140.522C684.052 144.605 689.185 150.349 692.742 157.756C696.3 165.104 698.078 173.736 698.078 183.65C698.078 199.163 694.114 211.323 686.181 220.129C678.252 228.936 667.17 233.339 652.939 233.339C638.711 233.339 627.629 228.994 619.697 220.304C611.765 211.615 607.8 199.455 607.8 183.825C607.8 173.969 609.579 165.338 613.136 157.931C616.753 150.524 621.914 144.75 628.621 140.61C635.384 136.469 643.49 134.399 652.939 134.399ZM652.939 154.782C647.281 154.782 643.083 157.114 640.344 161.78C637.659 166.387 636.32 173.736 636.32 183.825C636.32 194.089 637.659 201.525 640.344 206.132C643.083 210.74 647.281 213.043 652.939 213.043C658.597 213.043 662.767 210.74 665.449 206.132C668.191 201.525 669.562 194.031 669.562 183.65C669.562 173.619 668.191 166.3 665.449 161.692C662.767 157.085 658.597 154.782 652.939 154.782Z" fill="white"/>
<path d="M805.917 169.129C805.917 181.434 804.284 191.582 801.018 199.572C797.811 207.561 793.436 213.802 787.895 218.292C782.357 222.725 776.058 225.845 769.001 227.653C762.001 229.46 754.741 230.365 747.217 230.365H714.502V109.117H745.119C752.874 109.117 760.371 109.934 767.602 111.566C774.889 113.141 781.394 116.086 787.108 120.402C792.883 124.659 797.461 130.725 800.844 138.598C804.227 146.413 805.917 156.59 805.917 169.129ZM776.175 169.129C776.175 158.223 774.978 149.97 772.587 144.371C770.255 138.773 767.046 134.982 762.964 132.999C758.94 130.958 754.391 129.937 749.317 129.937H743.195V209.632H749.317C754.624 209.632 759.29 208.494 763.315 206.22C767.339 203.887 770.489 199.776 772.763 193.885C775.038 187.995 776.175 179.743 776.175 169.129Z" fill="white"/>
<path d="M846.57 191.961C847.502 199.542 849.982 204.995 854.006 208.319C858.028 211.585 862.988 213.218 868.876 213.218C873.134 213.218 877.247 212.518 881.212 211.119C885.176 209.719 888.999 207.853 892.673 205.52L903.783 220.567C899.408 224.299 894.101 227.361 887.862 229.752C881.679 232.143 874.622 233.339 866.69 233.339C856.076 233.339 847.183 231.239 840.009 227.04C832.835 222.783 827.439 216.951 823.825 209.544C820.208 202.138 818.401 193.623 818.401 184C818.401 174.844 820.151 166.533 823.649 159.068C827.149 151.545 832.25 145.567 838.96 141.135C845.724 136.644 853.975 134.399 863.714 134.399C872.581 134.399 880.248 136.294 886.724 140.085C893.254 143.876 898.299 149.329 901.856 156.444C905.473 163.559 907.28 172.103 907.28 182.075C907.28 183.65 907.223 185.341 907.106 187.149C907.046 188.957 906.929 190.561 906.756 191.961H846.57ZM863.714 152.945C858.758 152.945 854.765 154.723 851.732 158.281C848.699 161.838 846.861 167.525 846.22 175.339H880.337C880.28 168.574 878.966 163.151 876.401 159.068C873.836 154.986 869.606 152.945 863.714 152.945Z" fill="white"/>
<path d="M1015.2 137.46L984.236 230.365H951.696L920.377 137.46H950.208L968.315 209.194L987.212 137.46H1015.2Z" fill="white"/>
<path d="M1116.97 83.3979C1133.07 83.3979 1144.35 85.8184 1150.83 90.6589C1157.36 95.4995 1160.01 103.839 1158.79 115.678L1156.16 140.698C1155.69 145.13 1156.45 148.6 1158.44 151.107C1160.42 153.615 1163.28 155.394 1167.01 156.444C1170.8 157.435 1175.18 157.931 1180.13 157.931V180.326C1175.23 180.326 1170.89 180.851 1167.1 181.9C1163.31 182.892 1160.42 184.642 1158.44 187.149C1156.45 189.657 1155.69 193.127 1156.16 197.56L1158.79 222.404C1160.13 234.359 1157.5 242.758 1150.91 247.598C1144.38 252.439 1133.07 254.859 1116.97 254.859V235.613C1122.34 235.613 1126.51 234.855 1129.48 233.339C1132.46 231.881 1133.71 228.936 1133.24 224.503L1130.53 198.697C1129.83 192.107 1130.53 186.828 1132.63 182.863C1134.79 178.839 1138.05 175.777 1142.43 173.678C1146.8 171.52 1151.94 170.003 1157.82 169.129C1151.58 168.195 1146.28 166.679 1141.9 164.58C1137.59 162.48 1134.44 159.447 1132.46 155.482C1130.47 151.457 1129.83 146.15 1130.53 139.56L1133.24 113.753C1133.71 109.321 1132.43 106.376 1129.39 104.918C1126.42 103.402 1122.28 102.644 1116.97 102.644V83.3979Z" fill="white"/>
<path opacity="0.6" d="M117.349 323.844V290.969H138.073V294.407H121.306V305.475H136.66V308.913H121.306V323.844H117.349ZM156.988 294.171C155.889 294.171 155.12 293.952 154.68 293.512C154.241 293.041 154.021 292.46 154.021 291.769V291.016C154.021 290.325 154.241 289.76 154.68 289.32C155.12 288.849 155.889 288.614 156.988 288.614C158.087 288.614 158.856 288.849 159.296 289.32C159.736 289.76 159.955 290.325 159.955 291.016V291.769C159.955 292.46 159.736 293.041 159.296 293.512C158.856 293.952 158.087 294.171 156.988 294.171ZM146.344 320.641H155.104V302.743H146.344V299.541H158.872V320.641H167.067V323.844H146.344V320.641ZM174.208 323.844V299.541H177.976V303.497H178.164C178.415 302.9 178.729 302.335 179.106 301.801C179.483 301.236 179.938 300.749 180.472 300.341C181.037 299.933 181.697 299.603 182.45 299.352C183.204 299.101 184.083 298.975 185.088 298.975C187.631 298.975 189.672 299.792 191.211 301.425C192.749 303.026 193.518 305.302 193.518 308.254V323.844H189.75V308.913C189.75 306.684 189.264 305.035 188.29 303.968C187.317 302.869 185.888 302.319 184.004 302.319C183.251 302.319 182.513 302.414 181.791 302.602C181.069 302.79 180.425 303.073 179.86 303.45C179.295 303.827 178.839 304.313 178.494 304.91C178.148 305.506 177.976 306.197 177.976 306.982V323.844H174.208ZM217.85 319.887H217.662C216.092 322.902 213.595 324.409 210.173 324.409C207.19 324.409 204.851 323.294 203.155 321.065C201.491 318.835 200.659 315.711 200.659 311.692C200.659 307.673 201.491 304.549 203.155 302.319C204.851 300.09 207.19 298.975 210.173 298.975C213.595 298.975 216.092 300.483 217.662 303.497H217.85V288.99H221.618V323.844H217.85V319.887ZM211.633 321.065C212.481 321.065 213.281 320.955 214.035 320.735C214.789 320.515 215.448 320.201 216.013 319.793C216.578 319.353 217.018 318.835 217.332 318.239C217.677 317.611 217.85 316.889 217.85 316.072V307.312C217.85 306.495 217.677 305.789 217.332 305.192C217.018 304.564 216.578 304.046 216.013 303.638C215.448 303.199 214.789 302.869 214.035 302.649C213.281 302.429 212.481 302.319 211.633 302.319C209.435 302.319 207.724 302.994 206.499 304.345C205.306 305.663 204.709 307.422 204.709 309.62V313.764C204.709 315.962 205.306 317.736 206.499 319.087C207.724 320.405 209.435 321.065 211.633 321.065ZM277.629 323.844C276.153 323.844 275.101 323.467 274.473 322.713C273.845 321.96 273.452 321.018 273.295 319.887H273.06C272.526 321.3 271.663 322.415 270.47 323.231C269.308 324.016 267.738 324.409 265.76 324.409C263.216 324.409 261.191 323.749 259.684 322.431C258.177 321.112 257.423 319.306 257.423 317.014C257.423 314.753 258.24 313.011 259.872 311.786C261.536 310.562 264.205 309.949 267.879 309.949H273.06V307.547C273.06 305.758 272.558 304.423 271.553 303.544C270.548 302.633 269.119 302.178 267.267 302.178C265.634 302.178 264.3 302.508 263.263 303.167C262.227 303.795 261.395 304.659 260.767 305.758L258.224 303.874C258.538 303.246 258.962 302.633 259.496 302.037C260.029 301.44 260.689 300.922 261.474 300.483C262.259 300.012 263.154 299.65 264.158 299.399C265.163 299.117 266.278 298.975 267.502 298.975C270.36 298.975 272.62 299.698 274.285 301.142C275.98 302.586 276.828 304.596 276.828 307.171V320.547H280.219V323.844H277.629ZM266.419 321.253C267.392 321.253 268.272 321.143 269.057 320.923C269.873 320.672 270.579 320.358 271.176 319.981C271.773 319.573 272.228 319.102 272.542 318.568C272.887 318.003 273.06 317.407 273.06 316.779V312.775H267.879C265.618 312.775 263.97 313.089 262.934 313.717C261.898 314.345 261.379 315.256 261.379 316.449V317.438C261.379 318.694 261.819 319.652 262.698 320.311C263.609 320.939 264.849 321.253 266.419 321.253ZM330.813 319.887H330.625C329.055 322.902 326.559 324.409 323.136 324.409C320.153 324.409 317.814 323.294 316.118 321.065C314.454 318.835 313.622 315.711 313.622 311.692C313.622 307.673 314.454 304.549 316.118 302.319C317.814 300.09 320.153 298.975 323.136 298.975C326.559 298.975 329.055 300.483 330.625 303.497H330.813V288.99H334.581V323.844H330.813V319.887ZM324.596 321.065C325.444 321.065 326.245 320.955 326.998 320.735C327.752 320.515 328.411 320.201 328.976 319.793C329.542 319.353 329.981 318.835 330.295 318.239C330.641 317.611 330.813 316.889 330.813 316.072V307.312C330.813 306.495 330.641 305.789 330.295 305.192C329.981 304.564 329.542 304.046 328.976 303.638C328.411 303.199 327.752 302.869 326.998 302.649C326.245 302.429 325.444 302.319 324.596 302.319C322.398 302.319 320.687 302.994 319.462 304.345C318.269 305.663 317.673 307.422 317.673 309.62V313.764C317.673 315.962 318.269 317.736 319.462 319.087C320.687 320.405 322.398 321.065 324.596 321.065ZM353.591 324.409C351.832 324.409 350.247 324.11 348.834 323.514C347.452 322.917 346.259 322.069 345.254 320.97C344.281 319.84 343.527 318.506 342.993 316.967C342.46 315.397 342.193 313.654 342.193 311.739C342.193 309.792 342.46 308.034 342.993 306.464C343.559 304.894 344.328 303.56 345.301 302.461C346.275 301.33 347.436 300.467 348.787 299.87C350.168 299.274 351.691 298.975 353.355 298.975C354.988 298.975 356.464 299.274 357.782 299.87C359.133 300.467 360.279 301.299 361.221 302.367C362.163 303.403 362.885 304.643 363.387 306.087C363.89 307.532 364.141 309.117 364.141 310.844V312.634H346.149V313.764C346.149 314.832 346.322 315.821 346.667 316.732C347.012 317.642 347.499 318.427 348.127 319.087C348.787 319.746 349.572 320.264 350.482 320.641C351.424 320.986 352.46 321.159 353.591 321.159C355.223 321.159 356.636 320.782 357.829 320.029C359.023 319.275 359.933 318.239 360.561 316.92L363.34 318.804C362.618 320.437 361.409 321.787 359.713 322.854C358.049 323.891 356.008 324.409 353.591 324.409ZM353.355 302.084C352.319 302.084 351.361 302.272 350.482 302.649C349.603 303.026 348.834 303.544 348.174 304.203C347.546 304.863 347.044 305.648 346.667 306.558C346.322 307.437 346.149 308.411 346.149 309.478V309.808H360.09V309.29C360.09 308.222 359.918 307.249 359.572 306.37C359.258 305.491 358.803 304.737 358.206 304.109C357.641 303.45 356.935 302.947 356.087 302.602C355.27 302.257 354.36 302.084 353.355 302.084ZM379.005 323.844L370.292 299.541H374.107L377.593 309.714L381.36 320.688H381.549L385.317 309.714L388.802 299.541H392.523L383.81 323.844H379.005ZM410.072 324.409C408.314 324.409 406.728 324.11 405.315 323.514C403.934 322.917 402.741 322.069 401.736 320.97C400.762 319.84 400.009 318.506 399.475 316.967C398.941 315.397 398.674 313.654 398.674 311.739C398.674 309.792 398.941 308.034 399.475 306.464C400.04 304.894 400.809 303.56 401.783 302.461C402.756 301.33 403.918 300.467 405.268 299.87C406.65 299.274 408.173 298.975 409.837 298.975C411.469 298.975 412.945 299.274 414.264 299.87C415.614 300.467 416.76 301.299 417.702 302.367C418.644 303.403 419.366 304.643 419.869 306.087C420.371 307.532 420.622 309.117 420.622 310.844V312.634H402.631V313.764C402.631 314.832 402.803 315.821 403.149 316.732C403.494 317.642 403.981 318.427 404.609 319.087C405.268 319.746 406.053 320.264 406.964 320.641C407.906 320.986 408.942 321.159 410.072 321.159C411.705 321.159 413.118 320.782 414.311 320.029C415.504 319.275 416.415 318.239 417.043 316.92L419.822 318.804C419.099 320.437 417.891 321.787 416.195 322.854C414.531 323.891 412.49 324.409 410.072 324.409ZM409.837 302.084C408.801 302.084 407.843 302.272 406.964 302.649C406.085 303.026 405.315 303.544 404.656 304.203C404.028 304.863 403.526 305.648 403.149 306.558C402.803 307.437 402.631 308.411 402.631 309.478V309.808H416.572V309.29C416.572 308.222 416.399 307.249 416.054 306.37C415.74 305.491 415.284 304.737 414.688 304.109C414.123 303.45 413.416 302.947 412.568 302.602C411.752 302.257 410.842 302.084 409.837 302.084ZM427.527 320.641H436.005V292.193H427.527V288.99H439.773V320.641H448.251V323.844H427.527V320.641ZM466.13 324.409C464.434 324.409 462.896 324.11 461.514 323.514C460.164 322.917 459.002 322.069 458.029 320.97C457.087 319.84 456.365 318.506 455.862 316.967C455.36 315.397 455.109 313.639 455.109 311.692C455.109 309.777 455.36 308.034 455.862 306.464C456.365 304.894 457.087 303.56 458.029 302.461C459.002 301.33 460.164 300.467 461.514 299.87C462.896 299.274 464.434 298.975 466.13 298.975C467.826 298.975 469.348 299.274 470.699 299.87C472.08 300.467 473.242 301.33 474.184 302.461C475.157 303.56 475.895 304.894 476.397 306.464C476.9 308.034 477.151 309.777 477.151 311.692C477.151 313.639 476.9 315.397 476.397 316.967C475.895 318.506 475.157 319.84 474.184 320.97C473.242 322.069 472.08 322.917 470.699 323.514C469.348 324.11 467.826 324.409 466.13 324.409ZM466.13 321.159C468.234 321.159 469.929 320.531 471.217 319.275C472.504 318.019 473.148 316.072 473.148 313.435V309.949C473.148 307.312 472.504 305.365 471.217 304.109C469.929 302.853 468.234 302.225 466.13 302.225C464.026 302.225 462.331 302.853 461.043 304.109C459.756 305.365 459.112 307.312 459.112 309.949V313.435C459.112 316.072 459.756 318.019 461.043 319.275C462.331 320.531 464.026 321.159 466.13 321.159ZM484.716 299.541H488.483V303.497H488.672C490.242 300.483 492.738 298.975 496.161 298.975C499.143 298.975 501.467 300.09 503.131 302.319C504.827 304.549 505.674 307.673 505.674 311.692C505.674 315.711 504.827 318.835 503.131 321.065C501.467 323.294 499.143 324.409 496.161 324.409C492.738 324.409 490.242 322.902 488.672 319.887H488.483V333.263H484.716V299.541ZM494.7 321.065C496.898 321.065 498.594 320.405 499.787 319.087C501.012 317.736 501.624 315.962 501.624 313.764V309.62C501.624 307.422 501.012 305.663 499.787 304.345C498.594 302.994 496.898 302.319 494.7 302.319C493.853 302.319 493.052 302.429 492.298 302.649C491.545 302.869 490.885 303.199 490.32 303.638C489.755 304.046 489.3 304.564 488.954 305.192C488.64 305.789 488.483 306.495 488.483 307.312V316.072C488.483 316.889 488.64 317.611 488.954 318.239C489.3 318.835 489.755 319.353 490.32 319.793C490.885 320.201 491.545 320.515 492.298 320.735C493.052 320.955 493.853 321.065 494.7 321.065ZM523.035 324.409C521.277 324.409 519.691 324.11 518.279 323.514C516.897 322.917 515.704 322.069 514.699 320.97C513.726 319.84 512.972 318.506 512.438 316.967C511.904 315.397 511.638 313.654 511.638 311.739C511.638 309.792 511.904 308.034 512.438 306.464C513.003 304.894 513.773 303.56 514.746 302.461C515.719 301.33 516.881 300.467 518.231 299.87C519.613 299.274 521.136 298.975 522.8 298.975C524.433 298.975 525.909 299.274 527.227 299.87C528.577 300.467 529.724 301.299 530.665 302.367C531.607 303.403 532.33 304.643 532.832 306.087C533.334 307.532 533.586 309.117 533.586 310.844V312.634H515.594V313.764C515.594 314.832 515.767 315.821 516.112 316.732C516.457 317.642 516.944 318.427 517.572 319.087C518.231 319.746 519.016 320.264 519.927 320.641C520.869 320.986 521.905 321.159 523.035 321.159C524.668 321.159 526.081 320.782 527.274 320.029C528.468 319.275 529.378 318.239 530.006 316.92L532.785 318.804C532.063 320.437 530.854 321.787 529.158 322.854C527.494 323.891 525.453 324.409 523.035 324.409ZM522.8 302.084C521.764 302.084 520.806 302.272 519.927 302.649C519.048 303.026 518.279 303.544 517.619 304.203C516.991 304.863 516.489 305.648 516.112 306.558C515.767 307.437 515.594 308.411 515.594 309.478V309.808H529.535V309.29C529.535 308.222 529.362 307.249 529.017 306.37C528.703 305.491 528.248 304.737 527.651 304.109C527.086 303.45 526.379 302.947 525.532 302.602C524.715 302.257 523.805 302.084 522.8 302.084ZM540.349 320.641H547.461V302.743H540.349V299.541H551.229V305.663H551.465C551.967 303.748 552.909 302.257 554.291 301.189C555.704 300.09 557.493 299.541 559.66 299.541H563.051V303.308H558.482C556.316 303.308 554.558 303.936 553.207 305.192C551.889 306.448 551.229 308.097 551.229 310.138V320.641H560.649V323.844H540.349V320.641ZM598.009 330.061H609.783V302.743H597.585V299.541H613.551V327.706C613.551 329.338 613.111 330.673 612.232 331.709C611.385 332.745 610.034 333.263 608.182 333.263H598.009V330.061ZM611.667 294.171C610.568 294.171 609.799 293.952 609.359 293.512C608.92 293.041 608.7 292.46 608.7 291.769V291.016C608.7 290.325 608.92 289.76 609.359 289.32C609.799 288.849 610.568 288.614 611.667 288.614C612.766 288.614 613.535 288.849 613.975 289.32C614.415 289.76 614.634 290.325 614.634 291.016V291.769C614.634 292.46 614.415 293.041 613.975 293.512C613.535 293.952 612.766 294.171 611.667 294.171ZM635.575 324.409C633.879 324.409 632.341 324.11 630.959 323.514C629.609 322.917 628.447 322.069 627.474 320.97C626.532 319.84 625.81 318.506 625.307 316.967C624.805 315.397 624.554 313.639 624.554 311.692C624.554 309.777 624.805 308.034 625.307 306.464C625.81 304.894 626.532 303.56 627.474 302.461C628.447 301.33 629.609 300.467 630.959 299.87C632.341 299.274 633.879 298.975 635.575 298.975C637.27 298.975 638.793 299.274 640.143 299.87C641.525 300.467 642.687 301.33 643.629 302.461C644.602 303.56 645.34 304.894 645.842 306.464C646.345 308.034 646.596 309.777 646.596 311.692C646.596 313.639 646.345 315.397 645.842 316.967C645.34 318.506 644.602 319.84 643.629 320.97C642.687 322.069 641.525 322.917 640.143 323.514C638.793 324.11 637.27 324.409 635.575 324.409ZM635.575 321.159C637.679 321.159 639.374 320.531 640.662 319.275C641.949 318.019 642.593 316.072 642.593 313.435V309.949C642.593 307.312 641.949 305.365 640.662 304.109C639.374 302.853 637.679 302.225 635.575 302.225C633.471 302.225 631.776 302.853 630.488 304.109C629.201 305.365 628.557 307.312 628.557 309.949V313.435C628.557 316.072 629.201 318.019 630.488 319.275C631.776 320.531 633.471 321.159 635.575 321.159ZM654.16 288.99H657.928V303.497H658.117C659.687 300.483 662.183 298.975 665.605 298.975C668.588 298.975 670.912 300.09 672.576 302.319C674.272 304.549 675.119 307.673 675.119 311.692C675.119 315.711 674.272 318.835 672.576 321.065C670.912 323.294 668.588 324.409 665.605 324.409C662.183 324.409 659.687 322.902 658.117 319.887H657.928V323.844H654.16V288.99ZM664.145 321.065C666.343 321.065 668.039 320.405 669.232 319.087C670.457 317.736 671.069 315.962 671.069 313.764V309.62C671.069 307.422 670.457 305.663 669.232 304.345C668.039 302.994 666.343 302.319 664.145 302.319C663.298 302.319 662.497 302.429 661.743 302.649C660.99 302.869 660.33 303.199 659.765 303.638C659.2 304.046 658.745 304.564 658.399 305.192C658.085 305.789 657.928 306.495 657.928 307.312V316.072C657.928 316.889 658.085 317.611 658.399 318.239C658.745 318.835 659.2 319.353 659.765 319.793C660.33 320.201 660.99 320.515 661.743 320.735C662.497 320.955 663.298 321.065 664.145 321.065ZM721.804 294.171C720.706 294.171 719.936 293.952 719.497 293.512C719.057 293.041 718.837 292.46 718.837 291.769V291.016C718.837 290.325 719.057 289.76 719.497 289.32C719.936 288.849 720.706 288.614 721.804 288.614C722.903 288.614 723.673 288.849 724.112 289.32C724.552 289.76 724.772 290.325 724.772 291.016V291.769C724.772 292.46 724.552 293.041 724.112 293.512C723.673 293.952 722.903 294.171 721.804 294.171ZM711.16 320.641H719.921V302.743H711.16V299.541H723.688V320.641H731.884V323.844H711.16V320.641ZM739.024 323.844V299.541H742.792V303.497H742.98C743.232 302.9 743.546 302.335 743.922 301.801C744.299 301.236 744.755 300.749 745.288 300.341C745.853 299.933 746.513 299.603 747.266 299.352C748.02 299.101 748.899 298.975 749.904 298.975C752.447 298.975 754.488 299.792 756.027 301.425C757.565 303.026 758.335 305.302 758.335 308.254V323.844H754.567V308.913C754.567 306.684 754.08 305.035 753.107 303.968C752.133 302.869 750.705 302.319 748.821 302.319C748.067 302.319 747.329 302.414 746.607 302.602C745.885 302.79 745.241 303.073 744.676 303.45C744.111 303.827 743.656 304.313 743.31 304.91C742.965 305.506 742.792 306.197 742.792 306.982V323.844H739.024ZM813.498 290.969V315.319C813.498 316.7 813.262 317.956 812.791 319.087C812.32 320.217 811.645 321.175 810.766 321.96C809.918 322.745 808.898 323.357 807.704 323.796C806.511 324.205 805.208 324.409 803.795 324.409C801.283 324.409 799.211 323.765 797.578 322.478C795.945 321.159 794.878 319.322 794.375 316.967L798.143 316.166C798.3 316.826 798.504 317.454 798.756 318.05C799.038 318.616 799.399 319.118 799.839 319.558C800.31 319.966 800.875 320.295 801.534 320.547C802.194 320.798 802.979 320.923 803.889 320.923C805.679 320.923 807.061 320.421 808.034 319.416C809.039 318.38 809.541 316.779 809.541 314.612V294.407H797.672V290.969H813.498ZM842.445 323.844C840.969 323.844 839.917 323.467 839.289 322.713C838.661 321.96 838.269 321.018 838.112 319.887H837.876C837.342 321.3 836.479 322.415 835.286 323.231C834.124 324.016 832.554 324.409 830.576 324.409C828.033 324.409 826.007 323.749 824.5 322.431C822.993 321.112 822.239 319.306 822.239 317.014C822.239 314.753 823.056 313.011 824.689 311.786C826.353 310.562 829.022 309.949 832.695 309.949H837.876V307.547C837.876 305.758 837.374 304.423 836.369 303.544C835.364 302.633 833.936 302.178 832.083 302.178C830.45 302.178 829.116 302.508 828.08 303.167C827.044 303.795 826.211 304.659 825.584 305.758L823.04 303.874C823.354 303.246 823.778 302.633 824.312 302.037C824.846 301.44 825.505 300.922 826.29 300.483C827.075 300.012 827.97 299.65 828.975 299.399C829.979 299.117 831.094 298.975 832.319 298.975C835.176 298.975 837.437 299.698 839.101 301.142C840.796 302.586 841.644 304.596 841.644 307.171V320.547H845.035V323.844H842.445ZM831.235 321.253C832.209 321.253 833.088 321.143 833.873 320.923C834.689 320.672 835.396 320.358 835.992 319.981C836.589 319.573 837.044 319.102 837.358 318.568C837.704 318.003 837.876 317.407 837.876 316.779V312.775H832.695C830.435 312.775 828.786 313.089 827.75 313.717C826.714 314.345 826.196 315.256 826.196 316.449V317.438C826.196 318.694 826.635 319.652 827.515 320.311C828.425 320.939 829.665 321.253 831.235 321.253ZM851.846 299.541H855.614V303.497H855.802C857.372 300.483 859.869 298.975 863.291 298.975C866.274 298.975 868.598 300.09 870.262 302.319C871.957 304.549 872.805 307.673 872.805 311.692C872.805 315.711 871.957 318.835 870.262 321.065C868.598 323.294 866.274 324.409 863.291 324.409C859.869 324.409 857.372 322.902 855.802 319.887H855.614V333.263H851.846V299.541ZM861.831 321.065C864.029 321.065 865.725 320.405 866.918 319.087C868.142 317.736 868.755 315.962 868.755 313.764V309.62C868.755 307.422 868.142 305.663 866.918 304.345C865.725 302.994 864.029 302.319 861.831 302.319C860.983 302.319 860.183 302.429 859.429 302.649C858.675 302.869 858.016 303.199 857.451 303.638C856.886 304.046 856.43 304.564 856.085 305.192C855.771 305.789 855.614 306.495 855.614 307.312V316.072C855.614 316.889 855.771 317.611 856.085 318.239C856.43 318.835 856.886 319.353 857.451 319.793C858.016 320.201 858.675 320.515 859.429 320.735C860.183 320.955 860.983 321.065 861.831 321.065ZM898.926 323.844C897.451 323.844 896.399 323.467 895.771 322.713C895.143 321.96 894.75 321.018 894.593 319.887H894.358C893.824 321.3 892.961 322.415 891.767 323.231C890.606 324.016 889.036 324.409 887.058 324.409C884.514 324.409 882.489 323.749 880.982 322.431C879.475 321.112 878.721 319.306 878.721 317.014C878.721 314.753 879.537 313.011 881.17 311.786C882.834 310.562 885.503 309.949 889.177 309.949H894.358V307.547C894.358 305.758 893.855 304.423 892.851 303.544C891.846 302.633 890.417 302.178 888.565 302.178C886.932 302.178 885.597 302.508 884.561 303.167C883.525 303.795 882.693 304.659 882.065 305.758L879.522 303.874C879.836 303.246 880.26 302.633 880.793 302.037C881.327 301.44 881.987 300.922 882.772 300.483C883.557 300.012 884.451 299.65 885.456 299.399C886.461 299.117 887.576 298.975 888.8 298.975C891.658 298.975 893.918 299.698 895.582 301.142C897.278 302.586 898.126 304.596 898.126 307.171V320.547H901.517V323.844H898.926ZM887.717 321.253C888.69 321.253 889.569 321.143 890.354 320.923C891.171 320.672 891.877 320.358 892.474 319.981C893.07 319.573 893.526 319.102 893.84 318.568C894.185 318.003 894.358 317.407 894.358 316.779V312.775H889.177C886.916 312.775 885.268 313.089 884.232 313.717C883.195 314.345 882.677 315.256 882.677 316.449V317.438C882.677 318.694 883.117 319.652 883.996 320.311C884.907 320.939 886.147 321.253 887.717 321.253ZM908.469 323.844V299.541H912.237V303.497H912.425C912.677 302.9 912.991 302.335 913.367 301.801C913.744 301.236 914.199 300.749 914.733 300.341C915.298 299.933 915.958 299.603 916.711 299.352C917.465 299.101 918.344 298.975 919.349 298.975C921.892 298.975 923.933 299.792 925.472 301.425C927.01 303.026 927.78 305.302 927.78 308.254V323.844H924.012V308.913C924.012 306.684 923.525 305.035 922.552 303.968C921.578 302.869 920.15 302.319 918.266 302.319C917.512 302.319 916.774 302.414 916.052 302.602C915.33 302.79 914.686 303.073 914.121 303.45C913.556 303.827 913.1 304.313 912.755 304.91C912.41 305.506 912.237 306.197 912.237 306.982V323.844H908.469ZM975.642 323.844C973.79 323.844 972.424 323.325 971.545 322.289C970.697 321.253 970.273 319.919 970.273 318.286V302.743H962.172V299.541H968.201C969.017 299.541 969.582 299.384 969.896 299.07C970.241 298.724 970.414 298.143 970.414 297.327V290.969H974.041V299.541H985.109V302.743H974.041V320.641H985.109V323.844H975.642ZM1002.71 324.409C1001.01 324.409 999.471 324.11 998.09 323.514C996.74 322.917 995.578 322.069 994.604 320.97C993.662 319.84 992.94 318.506 992.438 316.967C991.936 315.397 991.684 313.639 991.684 311.692C991.684 309.777 991.936 308.034 992.438 306.464C992.94 304.894 993.662 303.56 994.604 302.461C995.578 301.33 996.74 300.467 998.09 299.87C999.471 299.274 1001.01 298.975 1002.71 298.975C1004.4 298.975 1005.92 299.274 1007.27 299.87C1008.66 300.467 1009.82 301.33 1010.76 302.461C1011.73 303.56 1012.47 304.894 1012.97 306.464C1013.48 308.034 1013.73 309.777 1013.73 311.692C1013.73 313.639 1013.48 315.397 1012.97 316.967C1012.47 318.506 1011.73 319.84 1010.76 320.97C1009.82 322.069 1008.66 322.917 1007.27 323.514C1005.92 324.11 1004.4 324.409 1002.71 324.409ZM1002.71 321.159C1004.81 321.159 1006.5 320.531 1007.79 319.275C1009.08 318.019 1009.72 316.072 1009.72 313.435V309.949C1009.72 307.312 1009.08 305.365 1007.79 304.109C1006.5 302.853 1004.81 302.225 1002.71 302.225C1000.6 302.225 998.906 302.853 997.619 304.109C996.331 305.365 995.688 307.312 995.688 309.949V313.435C995.688 316.072 996.331 318.019 997.619 319.275C998.906 320.531 1000.6 321.159 1002.71 321.159ZM1036.83 319.887H1036.65C1035.08 322.902 1032.58 324.409 1029.16 324.409C1026.17 324.409 1023.83 323.294 1022.14 321.065C1020.47 318.835 1019.64 315.711 1019.64 311.692C1019.64 307.673 1020.47 304.549 1022.14 302.319C1023.83 300.09 1026.17 298.975 1029.16 298.975C1032.58 298.975 1035.08 300.483 1036.65 303.497H1036.83V288.99H1040.6V323.844H1036.83V319.887ZM1030.62 321.065C1031.46 321.065 1032.27 320.955 1033.02 320.735C1033.77 320.515 1034.43 320.201 1035 319.793C1035.56 319.353 1036 318.835 1036.32 318.239C1036.66 317.611 1036.83 316.889 1036.83 316.072V307.312C1036.83 306.495 1036.66 305.789 1036.32 305.192C1036 304.564 1035.56 304.046 1035 303.638C1034.43 303.199 1033.77 302.869 1033.02 302.649C1032.27 302.429 1031.46 302.319 1030.62 302.319C1028.42 302.319 1026.71 302.994 1025.48 304.345C1024.29 305.663 1023.69 307.422 1023.69 309.62V313.764C1023.69 315.962 1024.29 317.736 1025.48 319.087C1026.71 320.405 1028.42 321.065 1030.62 321.065ZM1068.37 323.844C1066.9 323.844 1065.84 323.467 1065.22 322.713C1064.59 321.96 1064.2 321.018 1064.04 319.887H1063.8C1063.27 321.3 1062.41 322.415 1061.21 323.231C1060.05 324.016 1058.48 324.409 1056.5 324.409C1053.96 324.409 1051.93 323.749 1050.43 322.431C1048.92 321.112 1048.17 319.306 1048.17 317.014C1048.17 314.753 1048.98 313.011 1050.62 311.786C1052.28 310.562 1054.95 309.949 1058.62 309.949H1063.8V307.547C1063.8 305.758 1063.3 304.423 1062.3 303.544C1061.29 302.633 1059.86 302.178 1058.01 302.178C1056.38 302.178 1055.04 302.508 1054.01 303.167C1052.97 303.795 1052.14 304.659 1051.51 305.758L1048.97 303.874C1049.28 303.246 1049.7 302.633 1050.24 302.037C1050.77 301.44 1051.43 300.922 1052.22 300.483C1053 300.012 1053.9 299.65 1054.9 299.399C1055.91 299.117 1057.02 298.975 1058.25 298.975C1061.1 298.975 1063.36 299.698 1065.03 301.142C1066.72 302.586 1067.57 304.596 1067.57 307.171V320.547H1070.96V323.844H1068.37ZM1057.16 321.253C1058.14 321.253 1059.01 321.143 1059.8 320.923C1060.62 320.672 1061.32 320.358 1061.92 319.981C1062.52 319.573 1062.97 319.102 1063.28 318.568C1063.63 318.003 1063.8 317.407 1063.8 316.779V312.775H1058.62C1056.36 312.775 1054.71 313.089 1053.68 313.717C1052.64 314.345 1052.12 315.256 1052.12 316.449V317.438C1052.12 318.694 1052.56 319.652 1053.44 320.311C1054.35 320.939 1055.59 321.253 1057.16 321.253ZM1095.29 299.541H1099.06L1087 329.166C1086.72 329.856 1086.41 330.453 1086.06 330.955C1085.72 331.489 1085.31 331.913 1084.84 332.227C1084.37 332.572 1083.8 332.824 1083.14 332.981C1082.48 333.169 1081.7 333.263 1080.79 333.263H1077.21V330.061H1082.86L1085.59 323.373L1075.79 299.541H1079.66L1083.75 309.714L1087.38 318.945H1087.57L1091.2 309.714L1095.29 299.541Z" fill="white"/>
</g>
<defs>
<linearGradient id="paint0_linear_545_2" x1="1034.88" y1="17.4597" x2="1034.88" y2="407" gradientUnits="userSpaceOnUse">
<stop stop-color="white"/>
<stop offset="0.479167" stop-color="#E14951"/>
<stop offset="0.822917" stop-color="#E14951" stop-opacity="0.83"/>
<stop offset="1" stop-color="#E14951" stop-opacity="0"/>
</linearGradient>
<clipPath id="clip0_545_2">
<rect width="1200" height="403" fill="white"/>
</clipPath>
</defs>
</svg>
