<svg width="1200" height="251" viewBox="0 0 1200 251" fill="none" xmlns="http://www.w3.org/2000/svg">
<g clip-path="url(#clip0_624_12)">
<g clip-path="url(#clip1_624_12)">
<path d="M1112.07 191.37H1132.74C1133.76 191.37 1134.69 190.82 1135.18 189.935L1188.1 94.3983C1188.83 93.077 1187.88 91.4541 1186.36 91.4541H1165.08C1163.65 91.4541 1162.34 92.2366 1161.66 93.489L1127.27 156.938C1126.43 158.486 1124.13 158.223 1123.66 156.526L1106.57 94.3432C1106.1 92.6374 1104.55 91.4541 1102.78 91.4541H1085.01C1083.16 91.4541 1081.83 93.229 1082.34 95.0094L1109.39 189.355C1109.73 190.549 1110.82 191.37 1112.07 191.37ZM1044.88 131.866C1047.58 131.866 1047.92 130.265 1047.5 128.596C1045.84 121.895 1039.06 112.592 1024.93 112.592C1011.37 112.592 1002.86 118.804 999.014 128.214C998.303 129.956 998.819 131.866 1001.53 131.866H1044.88ZM1071.38 146.264C1071.1 149.327 1068.29 151.834 1065.21 151.834H1000.89C999.035 151.834 997.698 153.645 998.301 155.401C1000.09 160.614 1005.15 169.704 1018.71 169.704C1028.48 169.704 1034.02 167.401 1036.26 166.182C1037.07 165.743 1038.04 165.773 1038.83 166.229L1054.33 175.128C1057.48 177.074 1056.95 178.808 1054.42 180.771C1048.98 185.006 1037.1 192.495 1018.71 192.495C956.161 192.495 957.648 90.3345 1026.18 90.3345C1059.75 90.3345 1073.99 117.648 1071.38 146.264ZM892.475 67.9889C890.352 67.9391 888.529 69.501 888.197 71.5993L873.864 162.105C873.12 166.785 875.726 167.636 878.676 167.548C927.395 166.094 929.873 145.354 934.967 108.545C938.886 80.2524 925.222 68.7685 892.475 67.9889ZM958.786 105.526C952.703 162.431 944.87 191.339 851.015 191.339C847.125 191.339 845.693 189.686 846.29 185.899L864.113 73.3853C864.7 69.6781 863.557 67.9447 859.466 67.9447H845.693C841.355 67.9447 840.383 66.7309 841.05 62.5068L843.339 48.0484C843.669 45.9667 845.461 44.4377 847.567 44.4377H892.5C927.955 44.4377 963.277 63.5186 958.786 105.526ZM594.544 232.978C594.096 235.819 596.29 238.39 599.166 238.39H625.371C634.729 238.39 645.674 229.005 654.15 213.729C661.316 200.816 704.892 122.359 718.129 98.3876C720.685 93.7544 720.012 91.4541 714.03 91.4541H697.768C696.066 91.4541 694.498 92.3776 693.673 93.8649L659.767 155.036C655.892 162.024 653.4 161.693 651.175 154.054L634.229 94.8462C633.653 92.8392 631.82 91.4541 629.73 91.4541H615.013C610.53 91.4541 609.24 92.9801 610.513 97.4255L637.662 192.089C638.005 193.283 637.857 194.563 637.256 195.647L633.064 203.208C630.333 208.131 626.176 214.879 621.983 214.879H601.405C599.106 214.879 597.144 216.552 596.783 218.827L594.544 232.978ZM487.088 191.37H504.542C506.085 191.37 507.397 190.25 507.638 188.724L509.902 174.434C510.007 173.782 510.314 173.177 510.781 172.709L533.806 149.683C535.247 148.243 537.66 148.539 538.712 150.286L562.481 189.849C563.047 190.795 564.067 191.37 565.168 191.37H585.28C587.718 191.37 589.224 188.71 587.967 186.62L555.035 131.814C554.295 130.581 554.49 128.999 555.508 127.982L587.389 96.1014C589.103 94.3874 589.858 91.457 585.465 91.457L561.397 91.4541C560.391 91.4541 558.991 92.043 558.289 92.7645L522.854 129.052C519.072 132.928 516.667 131.722 517.515 126.373L529.916 48.062C530.219 46.1601 528.751 44.4377 526.821 44.4377H509.369C507.826 44.4377 506.512 45.5574 506.271 47.0807L483.993 187.746C483.692 189.648 485.162 191.37 487.088 191.37ZM779.228 113.291C738.09 113.291 737.837 169.367 771.99 169.367C815.025 169.367 814.849 113.291 779.228 113.291ZM767.366 192.324C706.022 192.324 708.266 90.3345 783.393 90.3345C844.654 90.3345 844.895 192.324 767.366 192.324ZM420.074 113.291C378.931 113.291 378.68 169.367 412.836 169.367C455.869 169.367 455.695 113.291 420.074 113.291ZM408.212 192.324C346.868 192.324 349.112 90.3345 424.243 90.3345C485.496 90.3345 485.74 192.324 408.212 192.324ZM258.092 44.4377H386.385C389.265 44.4377 391.463 47.0088 391.013 49.8535L388.774 63.994C388.411 66.2721 386.449 67.9447 384.146 67.9447H335.659C333.354 67.9447 331.39 69.6227 331.032 71.8978L312.732 187.419C312.373 189.695 310.41 191.37 308.108 191.37H293.789C290.909 191.37 288.712 188.796 289.161 185.954L306.997 73.3631C307.447 70.5211 305.249 67.9447 302.369 67.9447H255.852C252.972 67.9447 250.775 65.3737 251.225 62.529L253.464 48.3884C253.822 46.1131 255.786 44.4377 258.092 44.4377Z" fill="white"/>
<path d="M136.336 140.205C143.419 134.665 155.738 130.894 158.618 138.489C161.811 146.921 150.715 146.55 144.24 150.031C136.834 154.012 135.358 164.514 128.051 160.89C122.049 157.91 127.249 147.316 136.336 140.205ZM94.8878 160.89C87.5811 164.514 86.1076 154.012 78.6987 150.031C72.227 146.55 61.1273 146.921 64.3232 138.489C67.2011 130.894 79.5224 134.665 86.6025 140.205C95.6896 147.316 100.892 157.91 94.8878 160.89ZM123.893 203.347C123.177 204.016 122.093 204.182 121.239 203.701C118.331 202.067 115.456 201.741 111.489 201.741C107.519 201.741 104.647 202.067 101.738 203.701C100.884 204.182 99.7976 204.016 99.0816 203.347C76.0586 181.817 57.7491 165.899 29.9379 158.31C28.398 157.89 27.7567 156.082 28.6994 154.797C56.1208 117.495 64.2015 83.27 111.489 83.27C158.773 83.27 166.857 117.495 194.276 154.797C195.221 156.082 194.577 157.89 193.037 158.31C165.226 165.899 146.919 181.817 123.893 203.347ZM41.8641 23.9182C57.6108 23.9182 77.8803 63.368 82.7598 73.3564C83.3487 74.5617 82.7321 75.9716 81.4714 76.436C66.673 81.8683 54.4094 94.7649 46.5666 106.981C45.798 108.181 43.9707 107.855 43.65 106.467C39.7934 89.7831 25.5976 23.9182 41.8641 23.9182ZM181.111 23.9182C197.363 23.9182 183.209 89.6587 179.336 106.417C179.012 107.825 177.163 108.153 176.381 106.94C168.535 94.7344 156.285 81.8628 141.506 76.436C140.243 75.9716 139.626 74.5617 140.215 73.3564C145.094 63.368 165.364 23.9182 181.111 23.9182ZM188.633 125.208C188.304 124.705 188.207 124.116 188.362 123.535C191.196 112.967 217.44 11.6548 182.526 11.6548C155.539 11.6548 131.794 61.1344 127.548 70.4895C127.139 71.3852 126.204 71.8885 125.226 71.7558C122.812 71.4323 117.894 70.9015 111.489 70.9015C105.083 70.9015 100.162 71.4323 97.7491 71.7558C96.7704 71.8885 95.8359 71.3852 95.4295 70.4895C91.1832 61.1344 67.4387 11.6548 40.4486 11.6548C5.53813 11.6548 31.7791 112.967 34.6126 123.535C34.7675 124.116 34.6736 124.705 34.3445 125.208C32.3375 128.277 24.4226 140.25 10.9345 159.043C9.3753 161.219 10.4314 164.282 13.0079 165.014C21.6028 167.447 38.9558 173.067 53.2622 182.116C71.2981 193.522 90.6636 212.316 94.4426 216.048C94.8739 216.473 95.0924 217.032 95.1449 217.634C95.612 223.078 100.143 231.075 111.489 231.075C122.832 231.075 127.365 223.078 127.833 217.634C127.885 217.032 128.101 216.473 128.532 216.048C132.311 212.316 151.677 193.522 169.713 182.116C183.978 173.095 201.27 167.483 209.889 165.034C212.502 164.293 213.577 161.186 211.996 158.982C198.536 140.222 190.637 128.274 188.633 125.208Z" fill="white"/>
</g>
</g>
<defs>
<clipPath id="clip0_624_12">
<rect width="1200" height="251" fill="white"/>
</clipPath>
<clipPath id="clip1_624_12">
<rect width="1235.75" height="228.074" fill="white" transform="translate(9.25452 10.4631)"/>
</clipPath>
</defs>
</svg>
